<svg xmlns="http://www.w3.org/2000/svg" data-name="Layer 1" viewBox="0 0 1024 829.1"><path fill="#1c1517" d="M1006.9 448c-1.5.2-2.5-.8-3.3-2.3-4.1 7.1-3.5 6-10.3 2.3-5.6-3-10.3-3.4-11.5-10.5 4.9.1 6.4 4.7 10.1 6.1 6.1-7.3 11.7 0 18.7.3-1.7 1.7-4 2.1-3.6 4.1ZM125 623.8c-3.4 3.7-.7 15.5-1.4 21.2-1.2 9.2-1.6 16.4-.9 25.5.9 10.8-1.1 23.3-3.1 34-1.2 6.4-2.2 18.3-6.2 23.5-4.1 5.3-12.1 2.3-18.3 1.7-11.3-1.2-22.5-2.1-33.8-2.5-11.2-.4-22.4-1.3-33.6-1.3-4.9 0-10.6 1.3-15.5.7-5.4-.7-7.5-3.3-12.2-5.5v-13c3.5 3.4 6.9 4.5 10.1-1.4 1.6 5.3 8.6 1.6 7.5-2.8-1.5-6.2-14.1-5-17.6-1.8v-19c2.3-3.7 8.5-25.1 4-28.3-2.8 5.2-2.1 11-4 16.2v-27c2.5-.9 2.7 2 4.2 2.6 4.2-2.1 6.8-3.6 9.2-7.4 1.7-2.7 2.5-12.2 7.4-10.7 0 3.8.4 7.7 2.6 11.1 1.7-.5.4-2.7 2-3.1 1.5.2 2.6 1.7 4.4 1.1 2.2-2.1 1.7-7.9 5.6-7.5 3.2.4 3.3 7.8 2.9 10-1.8.6-3.7 1.1-5.6 1.4-1.8 1.2-3.1 2.7-4.1 4.6-4.2 2.1-6.2 3.1-11 1.4-3.3 5.4-1.5 11.8-.9 17.7h-.1c-6 7.7-4.9 12.8 1.8 20.8 5.2 6.1 14.9 5.5 8.8-3.5 2.8-.7 2.6-3.3 3.7-5 5.1 3.5 19.2 30.5 24 15.8 3.8-1.7 6 .6 8.3 3.1.5-2.7 1-4.8 1.5-7.5 3.3 2.7 6.4.7 9.3 0 1.8 4.6 4 9.2-3.1 11.4 4.1 5.6-10.1 15.9-12.2 21.6 10-4.2 16.5-12.7 24.6-21.4.5 7-1.2 12.8 3.3 17.4-1.6-4-.1-7 2.3-9.6 1.7-.4 1.6 2.6 3.6 1.2.8-2.1.4-5.4 5-4.5-2.6-4-.9-8.7-4.7-11.4-1.6.9.2 3.1-1.7 3.8-7.7-8.6 9.7-25.1 19.1-21.5-.4 1.9-3.3.8-3.7 3.1 6.9 4.3 9.4 11.3 10.1 19.2 2.1-18 .2-35.6 1.7-53.5 5.9-3.2 1.7-4.5 1-8.2-.5-2.4-1.2-4.6-1.5-7.7-.7-7.2-2.1-16.9 3-22.7 3.7 3.7 11.4-2.4 9.3-6.9-1.7-1.1-2.8 1.5-4.3.5-2.5-3.5 5.2-15.3-1.9-15.8 3.6-5.2 8.2-7.4 14-7.4 1 1.2-1.6 2.3 0 3.8 2.9-1 3-3.2 2.8-5.6-6-2.5-4.2 1.9-8.5-4.9-2.8-4.5-3-10.4-3.9-15.6-2.1 9.6 3.7 20.9-7.6 28-2.6-.5-2.2-4.7-5.6-4.8.9 2.2 4.4 8 2.5 10.4-5.4 3.3-9.7 8.6-15.6 11.1-7.8 3.3-14.9.9-22.7-.8-1.4 8-13.6 2.4-20.5 2.8-.8 1.9 0 3.8.3 5.8-4-.9-5.3-4.8-10-5.4-4.9-.6-11.4 2.1-16.6 2.2 1.6 7.9-5.3 9.6-10.4 13.4-2 1.5-4.7 2.9-6.2 5.1-1.2 1.9 1.2 5.6-1.7 6.6-5.8-3.3.4-8.3-1.5-12.3-.5-1.1-5-2.7-6.5-4.5-3.9-4.9-1-22 5.5-15.8-6.3-15.9 21.6-24.4 31.2-28.5-2.9-1.9-26.6-13.6-23.8-3.4q-3.8.4-7.7-3.5c-3.3 4.1-7.5 4.2-12.1 2.5v-67c4.2-.6 3.6 3.7 6.2 5.2 3.7 2.1 8.1 3.1 12.1 5.3 3.3 1.8 8 6.9 11.4.9 2.6-4.5-4.5-8.7 2.4-14 2.5 3.3-1.9 7.4 2.4 9.9 2.7 1.5 8.1-1.3 10.1-2.7 5.8-3.7 12.3-11.6 3.7-15.4-6.9-3-10.5 2-15.7 4.1-7.9 3.2-6.4.2-8.5 9.4-10.6-2.9-1.9-13.8 1-18.3 1.1-1.6 1.3-5.7 3.8-6.2 2.8-.6 7.8 4.1 11.5 4 7.8-.1 40.9-18.9 36.3-28.5-2.2.5-2.3 3.2-3.4 3.7-3-7.3-9.7-4.1-15-5.5 6-7.9 16.8-.5 22.6-8.2 1.4-.6 1 2.5 3.1 1.7 2.8-4.9.9-12.8 6.7-14.8 2.4 7.4-2.8 6.9-3.8 13.5-.6 4.1 3.9 12.3 7.4 14.6 1.4-3.2-1.7-5.7-1-9.2 10.9 5 12.7 19.4 25.5 22.2 10.6-5.2 3.4-17 10.1-24.8-.5 3.5-2.5 6.7-.8 11.1 3.6-4.8 2.7-11.1 7.1-16.3-3.8 11.4-1.6 23-9.4 32.5 11.9 3 7.6-16.1 13.6-15.6-1.2 7.9-4.4 16.6-5.1 24.3-.6 6.4 3.2 9.4-1.7 15.7 2.5.9 4.9-.6 7.5.3-1-.3 6.1 4.5 6.2 4.7 12.2-2.5 14.5-15.5 22.8-22.3 8.5 10.8-6.2 9.9-6.8 19.7 3.2.6 3.4-5.3 6.8-3.5 4.5 2.4-2.3 3.1-2.6 4.1 1.7 3.9 3.9 6.9 4.8 11 1.6 7.4.4 16.9.6 24.5.3 11.7 4.7 31 .6 42-3.2-11.2-6.5-1.4-11.1-2.3-7.9-1.6 0-11.2-4.7-16.1l-1.2 8.7c-.6 2.2-2 3.3-4.2 3.2-2.8 3.7-3.2-.4-4.8 5.7-1 3.6-2 28.8 6.4 19.2 1.7 0 .6 2.3 2.5 2.5.3-3.2 1.5-6.2 3.1-9 1.7 5.2-1.6 10.4 0 15.7-4.6-.8-5 4-7.9 6-7.8-2.9-3.6-8.5-8.4-12.9-7-6.5-10 8.5-7.8 13.4 2.5 1 2.9-1.7 4.8-2 2.8 4.6-1.5 6.8-1.7 11.7-.2 3.9 2.1 6.9 2.5 10.6-6 3.8-11.2 1.9-15.2-5.6ZM12.7 599.2c-3.2 2-4.4 4.5-5.1 7.3q4.3-3.6 5.1-7.3Zm10.9-11.5c-2 2.8-2.1 6-1.4 10.1 5.9-3.4-.3-7.1 1.4-10.1Zm10.7-7.2c-1.2-4.7-5.4-2.6-6.8.8-1.2 2.9 6.3 3.1 6.8-.8Zm47-114.7c2.2 4.3 7.6 11.3 10.8 3.4-1.6-1.4-3.2-2.8-5.5-4.7 8.2-3.7-4.3-13.8-8.8-10.7-.2.2-3.2 6.1-3.3 6.5-.5 5.4.2 5.6 6.8 5.6ZM55 508.2c-7.4 8.2 5.6 14.4 11.4 17.4 5.9 3.1 22.3 15.7 29.3 10.7 0 .1-1-7.1-.7-6.7-1.9-2.7-1.6-3.1-6-1.8-.8-4.3 2.3-8.5 1.5-12.4-.9-4.1-4.1-5-6.5-8.4-3.4-4.6-7.7-8.9-10.1-13.3-2-3.6.7-6.1-4.6-7.1-2.8-.5-6.5 3.5-8 5.2-3.8 4.2-12.1 11.7-6.3 16.5Zm17 25.3c-2.1 1-2.5 3.6-5.9 4 3 1.5 4.6 4.9 7.1 2.1 1.5-1.7 1.9-4.6-1.2-6.2Zm-17 14.7c1.5.4 12.9-2.5 13.3-4 1.1-4.6-16.5-4-20.1-3.3 2.2 3.5 2.5 6.3 6.8 7.3Zm20.1 37.6c-2.8 4.7-7.3 3.4-11.9 3.1-.6-2.1.5-5.2-2.8-6-2.9 1.4-.6 4-1.6 5.8-2.9-1-8.4-2.3-4.7 3.9 5.9-1.3 9.8 5.4 16.3 3.2 5.3-8.1 5.5-8.5 4.6-10.1Zm5.6-2.6c0 4.8.7 7.8 4.7 9.7.8-4.3-1.5-6.4-4.7-9.7Zm19.9-3.4c-2.5-3.2-6-5-7-9.5-.7 1.7-1.1 2.5-1.5 3.3-8.2-1.8-16.1-4.5-24.7-3.1 4.9-.2 6.7 3.2 8.1 6.8 1.7 0 .5-2.6 2.4-2.1 3.9 4.4 11.7 12.8 14.3 3.9 2.7-.6 5.1 2.1 8.4.7Zm19-33.2c-5.1.8-9.9 11.8-7.1 15.6 3.4-2.6 10-4.2 11.5-8 1.4-3.6-.6-8.2-4.4-7.7ZM39.8 704.4c-2.9-2-13.9-7.1-15.8-.9-1.7 5.5 3.4 1.8 5 2 1.3.8 0 2.7 2.2 3.8 4.5-6.5 6.7 3 11.2 1 4.6-2.1-.4-4.5-2.5-5.9Zm61.9-17c-5.1.3-1.7 5.1.5 6.2 2.6 1.3 3.8-5.6-.5-6.2Zm873.4-217.5c1.7 1.2 2.6-1.1 4.1-.9 3.3 5.8 3.3 14.9 11.6 12.2-4.9-.3-7.1-16.5-8.7-20.5-1.1-2.6-3.4-5.6-4-8.3-1-4.7.7-6.5.8-10.8.2-5.9-.9-7.8-5.5-10.9-8.6-5.8-8.6-1-11.3 8.3 2.8 2.1 6.3 2.2 8.6 4.9-5.6-1.9-10.9-2.9-13.6 3.8-2.8-1.4.3-6.8-3.8-6.1-4.5.7.2 4.9-1.5 7.1-1.8 1.4-3.7.4-5.7 0 .8 4.3 5 7.2 4.2 13.3-4.2-3.9-3.9-10.2-10.4-12.4 4 6.2.4 15 3.8 17.4 3.4 2.4 25.7-5.2 30.4-6.5 0-4.6-4.2-7.3-4-12.6 2.3 3 6.3 9.8 6.8 13.7.3 3-4.2 5.1-1.7 8.2ZM980 346c-3.9.7-6.5 4.4-10.6 4.6 6.9 1 13.8 2.7 20.1 5.7 3 1.4 13.1 10.3 16.2 7.5.1-2.7-3.7-2.1-3.1-5.4 5.3 1 9.9-1.2 14.8-2.9-2-3.3-20.4-6-24.7-7.3-4.1-1.2-8.2-3-12.6-2.3Zm12.6 19.2c-.9 8.6 3.4 15.6 12.4 20-4.5-6.9-6.8-14-12.4-20Zm-277.4-59.9c-6.5-6.4-10-16.2-20.3-18.5-.5.5-.9 1-1.4 1.5 6.9 6 13.8 12.1 20.7 18.1.3-.4.7-.7 1-1.1Zm242.1 36.5c6.2-3.1 11.3-7.8 16.5-12.2-5.7 3.9-12 6.8-16.5 12.2Zm9.2-.4c-6.1 3.6-10.5 7.9-15.5 11.4 5.2-1.6 11-.2 16.7-3.5-2.4-.9-4 .7-5.2-.9-.1-2.7 3.4-2.9 4-7Zm16.6-.3c-4.1-5.8-8.1-1.2-12-.6 3.9 1.4 7.8 1.5 12 .6Zm5.2 33.4c-2.6-3.1-4.9-6.7-8.9-8.4 2.1 3.8 5.3 6.3 8.9 8.4Zm-3.3 76.7c-7.9-4 3.7 20.1 4.5 22 3.9-.4-1-20.2-4.5-22ZM87.4 320.1c4.3-3.5-2-4.4-4.8-6.2-3.6 6.2-9.1 6.4-15 5.8 3.4 2 16.6 3.1 19.8.5Zm592.2 16.7c5.6-3.8 7.9-9.7 13.3-14.6-4.4.5-12.5 10.1-13.3 14.6Zm-653 338.3c2.8-3.5 2.6-6.2-.7-9.3-2.4 3.5-2.3 6.3.7 9.3ZM633.8 60.7c-2.9-.6-5.9-2.9-9.2.7 3.5.6 6.3.4 9.2-.7Zm37.8 223.9c2.7 3 1.6 7 4 10.3.4-3.2-1.5-5.8-.2-8.5 5.2 0 7.2 4.6 10.6 7.3.7-1.9-1.3-3.9.3-5.8 1.6-.6 4 .1 4.9-2.6-3.2-1.6-5.6.3-8.4 2.2-2.6-7.3-8.2-9.1-15.3-9 1.4 5.5-.2 11.4 3.2 17.2 2.3-4.1-1.1-7.5.9-11.1Zm-589 .2c-.2-1.2-.4-2.3-.7-3.6-3.4 1-6 2.3-8.1 5.8 3.8.8 6.1-1.2 8.7-2.2Zm25.4-9.3c-1.9 7.9-11.1 5.1-15.8 11.3 8.1-2.6 14.9-4.8 22.5-7.2-2.6-1.6-4.3-2.7-6.7-4.1Zm-9.6-2.8c-3.2 3-6.3 5.8-9.3 8.6 4.4.5 7.9-.6 11.5-2.7-.8-1.8-.4-3.8-2.2-5.9ZM608.9 78.6c-3.8-3.5-8-3.3-11.7-4.6 1.7-2.4 1.1-8.8-.8-10.2-4.5 6.4-12.4 8.1-19.6 13.1 4.4.5 7.3.8 10.6 1.1-1.1-7 18.3 0 21.4.7Zm-31.7 2.6c8.8 4.7 18.1 7.4 28.1 7.8-8.8-4.6-18.5-6.1-28.1-7.8Zm25.5-11.5c7.3 4.2 14.7 7.7 22.8 9.6-6.7-5.7-15-7-22.8-9.6ZM600 92c-10.2-6.4-24.3-10.4-33.4-1.1 7 .7 14 1.5 21.6 2.3-.9-1.7-2.7-1.3-2.3-3.1 4.7.7 9.4 1.3 14.1 2ZM20.6 669.1c1.7-2.3 2.6-5 2.3-8.3-1.4 2.6-3.6 3.6-6.1 4.4 1.1 1.3 1.4 3.4 3.8 3.9Zm96.5-440.9c-5-2-10-3.3-15.4-.5 2.8 1.5 11.6 1.7 15.4.5Zm-25.6 40c3.9-.4 13.2.1 16.1-2.7 8-7.8-6.7-8.9-12.2-6.6-3.8 1.6-4.7 4.2-8.9 4-1.7 0-10.1-4.9-11.4-6.3 5.9 9.5 5.1 12.8 16.3 11.6Zm337-191.7c-.5-4.9-4-5.7-5.8-8.5-1.1-1.7-2.1-7.2-4-8.6-.4.7-1.3 11.4-1.1 11.8 1.7 2.6 6.7-.6 7.2 2.3.5 3.2-4.1 4.5-6.4 3.7-2.3-.7-5-7.3-7-9 1.1 3.4 1.2 5.5-1.6 6.8 6 3.4 20.2 14.8 18.7 1.5ZM17.9 433.2c-2-5-1.5-10.6-4.2-15.4 2.1 5 .6 10.8 4.2 15.4Zm31.7-98.3c8.1 1.5 1.3.4 4.7 6.1 3.8 6.4 4.7 2.2 4.8-5 .1-18.4-17.8-3.6-27.6-2.7-5.4.5-11.1-1.1-15.9 1.1 1.7-.8-3.2 5.1-3 4.9-2.9 2.3-9.1 4-12.6 4.7v6c13.8-4.7 34.2-17.9 49.6-15.1Zm45.9 97.4c1.6.4 1.8-1.9 3.2-1.1 1.2 1.2-.6 3.8 2.7 4.4 0-2.2 3.1-10.5-1.3-10.8-3-.2-5.5 5.2-4.7 7.5Zm11.3-6.9c-3 4.6-1.9 8.7-2.7 12.5q2.9-.9 2.7-12.5ZM3.2 581.7c9.3-2-.3-8.7 3.3-12.7 1.4-1.6-4.2-1.9-6.5-3.1v11c3.9-.6 2.7 2.7 3.2 4.7Zm1.4 56.5c.6-3.6-2-4-4.6-4.2v6c1.9.4 4.1 1.2 4.6-1.8Zm135.1-183.7c4.1 2.3 5.2-7.3 7.4-9.2-5.2-1.7-5.1 6.5-7.4 9.2ZM60 369.4c3.6-1.8 1-6.2 4.7-7.9 4.6-2.1 9.6 4.8 12.8 5.9 3.4 1.1 8.3-2.2 7.3 4.5 2.7-1.8 1.3-5.1 3.5-6.7 1.4 1.5-.9 2.9.5 4.7 9.9-.6 2.3-11.1-.9-13.3-1.3-.9.4-4.4-2.8-3.3-3.3 1.1-2.6 7.2-4.4 9.8-3-3.8 3.8-6.6.3-10-1.8-.7-2.5 1.8-4.3 2-1.6-1-.5-2.5-.6-3.8-3.6-.3-5.1 3.1-7.7 4.6-3.7-4.3-2.6-10.3 3-17.8 1 1.6-1.1 3.7 1 5.2 4.1 1 2.3-4.3 3.7-5.8 2.8-2.8 4.1-2.9 7.3-5 4.7-3.1 10.2-8.1 14.5-1.6 5.8-11.1 19.1.9 26.6 4.6 2.8 1.4 5.7 2.3 8.5 3.6-1.9-.8 10.1 3.6 7.2 4.4 5.4-1.2 7.9-11.6 6.8-16-1.3-.7-1.8 1.3-3.3 1.1.4-2.5 1.2-5.5-3.2-5.2 1-3.2 3.6-1.2 5.4-2.3.7-3.3-12.2-5.7-14.6-5.3 0-2.6 1.8-4.2 3-6.3-3.5-1.8-4.1 3.1-6.7 2.6-2-1.6 1.1-3.6-.9-5 2.1-1.4 5.6.8 4.8-3.4-1-5.5-5-.7-7.4-1.1-8.8-1.6-16.6-2.7-26.3-2.7 1.6-2.6 5.2-2 6.2-4.6-2.4-2.2-5.7-.3-8.2-2.1 7.4-8.2 21.2-5.7 25.7-14.6-3.5-1.5-7.7-2-9.5-5.6.5-2.5 4.4-1.3 4.2-3.9-.3-4.1-3.8.7-5.6-.4-.4-3 7-3.2 7-8.2 0-4.3-5-6.5-7.8-9.5-4.3 5.1-20.6 1.1-22.3-5.4 5.4 2.7 13.2 2.5 19 3.2 7 .9 6.4 1.7 9.7-3.5 2.6 4 .6 14.9 6.5 10.5 1.1 1.2 1.4 2.6 1 4.1-3.7 3.9-6 2.6-3.1 10.5 2.1 5.7 4.7 7.7 9.3 3.4-2.8 7.4-2 12.5 4.9 14.4 4.3-.5 4-9.4 11-5.4-2.5 4.1-5.9 7.2-6.9 12.5 4.9-.9 11.1-10.8 11-15.7 0-3.8-3.6-7.6-6.4-12-2.3-3.6-6.9-6.9-8.5-10.9-1.7-4.2.4-5.3-3.1-9.3-6.7-7.6-18-1.6-17.3-13 9.2-1.1 14.2 1.9 17.4 10 4.7-2.5 11 6.1 15.3 7.5-4.3-14.2-15.6-18.1-24.8-28 7.2-7 12.6 12.8 19.6 8.7 1.7 1.6 1.1 4.1 2.9 5.5 3.6 0 2.5-3.3 3.8-5.4 4.7-.3 9.6-.7 14.1 2.9-2.5 3.5.4 8.4.5 12.5 0 5.2-1.1 10.4-1.2 15.6 0 7.6-4.8 20.2 5.9 18.2 1.1-2.9-.4-10.9-.1-15.1.6-8.8-1.8-17.1-1.2-25.9.2-2.6.2-6.9.9-9.3.6-2.2 3.2-4.4 3.3-6.1.4-5-5.3-13.6-9.1-16.3 7.9-3 5.6 9.1 13.8-.3 2-2.4 7.6-18.3 13.1-14.2 5.4 4.1-19.2 33.8-7.1 40.3-4.9 11.1-7 16.6-4.2 29.1-1.8-11.3 4-20.3 7.8-30.1 4.8 6.2-.6 10.8-2 17.8 5.1-1.6 4.2-7.3 7.8-9.7 4.3 5.2-.9 11.8-2.6 17.2-1 3-6.5 12.4-5.4 14.9 6.8-1.1 8.9-6.5 10.6-11.9 3.8.4 1.1 6.9 6.4 5.5-1.1 2-3.9 2.5-3.4 5-6.4-1.8-5.5 5.6 1.1 6.4-.5-2.2-.9-4-1.2-5.7 9.8 3.2 17.5-13.9 2.1-12.4 2.4-6.4 13-3.6 11.5-13.4 3.6 4 6.5 4 9.5 1.9.8 3.4 1 5.9-.1 8.5-4.7-.6.3-2.7-6-1.1-.2 1.3 1.7 1.2 2 2.4.5 1.7-2 8.8-2.8 10.4-2.7 5.6-6.8 11.9-10.1 17.3 8.1-4.9 11.5-18.9 20.7-23 8.2-3.6 20 7.5 27 11.3-3.1-1.1-27.2-10.3-26.5-5.2.3 2.9 8.2 5.6 10.3 7.2 1.9 1.5 6 7.7 8 8.5-2.4 4.3-9 .6-.2 5.8 7.9 4.7 8.2 8.5 12.7 16.4-5.5-.5-5.3-7.5-9.7-9.5-1.1-.5-11.5-1.3-12.1-.3 11.3 9.3-12.1 15.4-4.8 22.5-3.8 5.2-4.4-11.6-9.4-11.9-1.5 7.3 4.6 15.9-3.7 22.3-2 0-2.7-4.1-5.2-1.7-1.9 1.7 1.7 3.8 1.9 5.5-1.9-.7-4.8-2.8-4.3-5.3 1.1-5.2 4.9.2 6.7-2.7-.3.5-1.3-11.8-2-12.5-6.1 6.6-5 15.7-8 23.2 1.2 2.2 2.5-.3 3.8-.2-2.2 11.5-4.5-.3-11.3 2.7 0 2.8 7.5 7.5-2.2 7.9 1.1 2.5 1.1 5.1 1.4 7.6-7.1 2.3-6 9.8-10.1 14.6 3.8 1.7 4.6 4.3 3.7 7.6 4 1 8.3-6.1 10.4-8.5 0 4.4-3.3 6.2-5.2 8.9 4.5 5.8 5.8 6.2 13.3 4 .4 1.7-2.1 1.5-1.8 3.1q6.1 3.5 8.4 3.1c2.4 5.8 5.2 8.3 3.3 14.6-1.2 3.9-2.5 7.9-7.6 6-1.6 3 2.2 2.7 2.1 4.6-5.4 1.6-4.2-11.3-7.1-14.6 0 5.9 1.2 13.3-.5 19.1-2.1 7-7.2 14.1-10.2 20.9q-1.3-3.4.9-7.4c-11.3.1.4-17.7-3.5-22.7-2.5 3.2-1.5 7.4-3.4 10.6-3.1-1.5-.9-5.4-5.2-1.9-1.5 1.2-4.5 12.7-4.4 14.9-1.6 1.3-2.6-1.1-4.6.2 1.5 1.8 2.2 11 1.6 13-1 3-4.9 3-5.5 5.2-1.6 5.9 2.9 11.4 6.5 15.1-6.8 6.9-6.2-5.3-7.2-7.8-.8-2-4.1-2.9-4.6-4.8-1.2-4.3 2.3-3.8 2.9-7.9 1.1-6.9-2.3-13.3-2.9-20.2-.6-6.7 2-9.8 2.1-16.8-4.3 3.4-4.9 8-7.4 12.1-2.5-6.1 4.7-9.4 2.3-13.6-.8-1.5-4.3-.3-5.7-1.5-1.8-1.6-1.2-4.6-3-6.1.3-2.8 3-1.1 3.6-3.1-2.6-6-8.6 0-12.1-3.6-.3 2.7 2.2 3.7 2.3 5.7-2.3.8-3-2.5-5.8-1.8 1 3.5 4.7 6.6 2.1 10.5-10.6-14.4-10.7-17.2-.9-27.2-3-1.5-2.6-4.9-4.9-8.2.5 4.6-1.9 6.1-5.2 7.2-1.5-4.4 6.3-6.7 1.8-11.4-3.2.4-6.4-.5-9.5-3.1.4 2.4.5 4.8.2 7.2-.4 2.5-1.6 4.5-3.6 6.1 0 4.5 2.6 3.3 5.1 5.8 3.9 3.9 5.7 1.4 1.6 8-2.4 3.8-6.8 6.9-11.3 7.5.2-1.6 2.4-1.9 2.1-3.5-2.5-2.8-6.1-1.5-8.5-5.9-2.3-4.1.7-8.9-2.9-12.7-2.2.3-.7 2.8-2.5 3.5q-8.1-1.3-9.6-7.8c-2.1 3.2-4 5.9-6.5 9.7 3.6-.6 7.2 2.8 9.3 5.2 3.1 3.5 6.6 5-1.5 7.7-2.3-1.7 1.9-4.4-1.5-5.8-3.2 1.1.2 4.6-2 5.7-1.8.9-1.9-.9-3.4-.5-.5 2.5-2.9 2.6-6.5 2.4 5.8 6.5-.8 13.6 3.1 19.8-7.3 4.5-4.6-10.2-4.6-12.5 0-6 .7-6.9-6.7-7.9-.1 2.3-.2 4.4-.4 6.5-2.5.8-1-2.8-3.5-2.2-1.3 2-1.2 5.7-4.9 6.2.8.6.9 1.3.4 2.3-.8-1.5-1.9-2.8-3.1-3.9-.7.6-1.3 1.2-1.8 1.9-2.7-1.6-1.7-6.1-5.3-6.8-3.1-.7-6.3 3.6-8.3 5.3-7.7 6.6-11.2.7-20 4.1q-3.6-3.5.9-11c-6 1.3-9 8.6-15.7 7.2-5.3-1.1-6.4-3.8-2.1-7.5 3.6-3.1 11.4.6 15-1 3.4-1.6 4.7-9.8 6.8-9.9 1.6 2.1.7 6.7 5 5.6 3-.8 3.4-6.9 1.3-8.7-.7-.6-9.5-1.3-10.5-1.4-3.3-.2-7 .1-9.9-1.5 5.1-1.2 7.1-6 10.7-9-3.3-5.8-8.7.9-13.3-3.8 10.1-1.1 19.6-.4 29.7-2.6 1 1.5 12.8 4.1 14 3.5Zm-17.2.8c-4 .5-6.3 1.6-7.6 5.7 3.6-.9 6.2-1.6 7.6-5.7Zm145.7 37.4c-2.2.5-4 .9-5.9 1.3.5 5.2 7 3.6 5.9-1.3Zm-8.3-22.9c2.8-2.5 9.2-2.5 8.5-6.8-6.4-1.3-9.7 1-8.5 6.8Zm7.5-83.2c6.7 1.3 5.5-8.4 11.9-6.6-.4-2.2-.4-3.8-2.6-5.1-2.9 3.9-6.7 7-9.4 11.7Zm-7.6 67.4c3.3 7 13.9-15.7 9.3-17.8-3.4 1.8-11.6 13-9.3 17.8Zm-10.3-11.6c1.4 0 2.7 1.9 4.7.8q-1-3.9 2.5-7.1c-5.3-8 9.7-18 8.7-27.1-2.1-.4-3 2-4.9 1.3-.7-1.6 2-2.4.9-4.2-7.2-1 .5-6.3-2.2-8.7-11.1 3-8.8 36-9.7 45.1Zm-12.7 10.6c-.3 0-8.8-4.8-7-5.4-4.8.9-1.6 8.2-2.1 12 4.7-6.3 5.5-.9 7.8 2.6.5-3.9.9-6.6 1.3-9.2Zm2.7 28.4c.9 6.3 7.1-1 8.9 3.6-1.2-7.1-1.2-7.2-8.9-3.6Zm1.3-110.5c.6 4.1.2 7.9 1.9 11.8 5.1-3.7 4.7-8.5 4.9-13.9-2.5.8-4.6 1.4-6.8 2.1Zm-3.4 60.9c-1.8 2.1-5.4 7.8-4.5 10.9.6 2.2 4.8-.5 5.9 1.5-.4 1.1-1 2-1.9 2.7 2 2.9 3.4 6.2 4.7 10 8.6-1.5-6.9-11.6 4.5-14.9-4.8-2.1-7.8-4.9-8.7-10.1Zm-9.1-49.4c3.7-1.8 4.8-5 7.8-5.8-.8-1.9-1.4-3.5-2.4-6-2.8 3.8-3.3 7.5-5.4 11.8Zm5.6 23.1c-3.7-2.5-.6-15.8-5.9-15.3-1 2.9-3.4 4.3-6.6 5.2-1.1-3.3 2.1-4.6 2.8-7.6-3.3 3-6.4 2.6-9.7-.6-.3 9.7 6.2 7.3 11.4 10.9 3.5 2.4 3 7.8 8 7.4Zm-18.6 37.2c4 .2 10.6-8.5 2.1-7.6-.8-3.3-1.3-7.2-4.2-1-1.3 2.8 0 5.9 2.1 8.6Zm-12.2-7.5c4.4-.3 3.3 4.4 6.5 5.8 2-4.5-1.3-7.4-2.4-11-2 1.3-2.8 2.8-4.1 5.3ZM113 366.2c-.7-2.8.8-6.3-3.4-6.7-2.3-.2-3 1.5-2.2 3.5 1.6.9 2.3-.3 3.2-1 1.5 1.2.1 3.2 2.4 4.2Zm4.2.8c-2.3 3 0 6.6-1.9 9.3-.3-1.4.4-3.2-2.4-3.7-2.5 4.8.3 9 .7 14 5.2-2 7.6-15.3 3.6-19.6Zm-1.9-17.5c4-8.8-7.1-5.7-6.9-11.2-8.2 3.1 5.3 8.8 6.9 11.2Zm-32.8-13.2c-1 .5-6 12.6-6.4 14.7 5.6-2.8 8.1-8.6 6.4-14.7Zm13 32.6c.4-3.6 5-6.2 7.2-8.6-1.8-1.8-3.5-3.4-6.5-2.7-.8 3.3-2 6.4-.7 11.3Zm-29.4 37.8c1.8-2.7 2.1-5.5.8-8.4-11.1-1.1-.6 4.6-.8 8.4Zm-4.9-18.3c4.6 1.1 3.6-7.7 1.7-9.4-2.2 1.3-6.5 8.3-1.7 9.4Zm-14.1-.3c13.3 3.8 4.4-6.7 5.6-10.8-5.4 3-7 6.2-5.6 10.8Zm99.3 38.5c3.5-1.2 5.9-2.5 8-4.7-4.6-2.3-6 .8-8 4.7Zm21.4 165.5c-1.5 1.6-8.5 5.5-7.3 8.3.9 2 10.2 1.3 11.1.7 5-3.3 3.5-19.4-1.4-24 1.1 5.8 1.6 10.3 1 16.3-2 .9-2-1.4-3.3-1.3Zm524.4-301c-.9 4.5 2.2 8 3 12.1.7-4.5-1.4-8.2-3-12.1Zm-533.8 152c-6.9-4.6 1.8-10.4-2.9-15.2-13.7 4-9.3 14.8 2.9 15.2Zm-152-56.7c3.4-3.5 8.8-2 12.2-5.3l.1.2h.2s-.1 0-.2-.1c-1.4-7-10.9 2.9-12.3 5.2Zm339.9-161.3c6.3 3.5 12-.3 18-1.3-6.1-1.4-12 .9-18 1.3Zm117.3 11.6c-1.4-1.1-3.3-2.1-5.3-3 1.8 1.1 3.5 2.1 5.3 3Zm40.7 32.5c-.7-1.1-1.7-2.1-3-2.7-.2-1.6-.3-3.2-2-3.9-1.5.5-2.3 1.6-3 2.8-4.5-.7-9.1-1.5-13.5-1.2h-.1c-1.8.1-3.5.5-5.2 1.1.4-1.5.5-3.2.2-4.9 6.7 0 13.4-16.1 8.8-20.7.7 6.7-9.7 7.8-6.7 15.6-4.2-2.1-5-5.6-8.4-7.9-3.7-2.4-9.3-3.3-13.6-4.1-8.1-1.5-21.4-1.6-26.7 6.3-.6-1 .3-2.7-.9-3.8-3.3.3-3.7 3.2-4.6 5.9-5.9-1.5-11.8-4.5-16.4 1.5-3.5.6-1.7-2.1-6.1 0-2 1-4.6 4.9-5.3 6.8-2 5.1-2.9 11.7-3.4 17.4-.8-6-2.4-11.9-1.3-18.7-4.5 2.1-1.4 6.3-4.5 8.4-1.8 0-3.5-.6-4.9-1.9-1.3.1-2.4.6-3.3 1.6-6.4 1.7-11.2 8.5-16.7 12.2 1.4-4.1 5.7-6.5 7.1-12.2-12.1 9.4-20.4 21.4-33.8 27.6.3-3.8 4.2-6 3.7-10.1-6.2 6.6-11.2 14.4-18.6 19.7-5.8-9.1 26.8-29.3 33.3-32.9 8.2-4.5 16.3-9 24.9-12.8 4.4-1.9 8.9-3.3 13.3-5.2 2.8-1.2 7.3-5.8 9.7-6.4 1.5 3.3 5.7 2.7 9.5-1.4.2-2.8 3.8-5.6-.2-8.5-2.7 1.6-4 5.2-8 5.8 4.4-5.5-.6-11.3 2.3-16.6-3.1 4.3-9.6 1-10.8 6-3-.1-1.5-2.8-3.2-3.4-2.6.5-2.2 2.8-2.9 5.1-4.4-3.5-4.8 3.4-8.3 3.3-.8-4 5.5-3.6 4.2-8.4-3.7 3.2-6.9 6.6-11.8 7.8 0-3.5 3.4-5.1 4.3-8.1-5.6 0-8.5 3.9-12.1 8.4.8-5.2 5.9-6.7 6.5-10.9-1.8-1.6-2.7 1-4.5.6 0-4.4 9.7-4.2 12.6-6.7.4.1 1.6 2.1 2.2 2.4 1.6.8 7.9.1 9.8 0 5.5-.3 8.2.7 5.7-5.8-4.7-.1-9.3-1.6-14-.3-.5-2.5 4.6-6.4 4.3-10.9-6.8 7.9-15.4 1.3-23.5 4.3-2.1-1.1-1.5-3.2-2.8-5.1-7.5 4.9-12.9 4.7-18.1 11.6-6.7-.8-3.8-4.8-2.4-8-3.4-3-5.6-1.6-7.4 1.4-3.2-4.6-6.9-7.4-13.5-6 3.2-2.5 6.6.3 8.8-2.3 0-3.5-4.3-1.8-5.5-4.7 8.7-1.2 17.1-1 26.2 1.4-4.6 2.7-9.1.3-13.7 2.3 6.1 3 17.5 0 24 0 9.6 0 19.2.2 28.7 1.1 7.7.7 15.7 1.5 23.3 3.1 6.3 1.3 12.3 5.9 14.3-2.7-1.8-.3-6 .6-6.9-1.9-.6-1.8 2.8-2.5 1.7-4.6-2.1-1.2-2.6 1.7-4.3 1.6-.5-1.8 2.2-3 1-5.1-3.5-.9-2.1 3.6-4.6 4.1-1.7-.9.9-2.3-.4-3.4s-2.6 1.3-4 .7c-1.4-1.2 1.3-2.2.4-3.4-1.8-.7-2.7 1-4 1.4-1.3-.5-1-2-1.8-3.4-2.1 5.3-7.4 5.9-11.6 9.3 2.3-4.5 8.6-6.7 5.1-13-3.4 4.6-9.1 1-13.3 3.9 3-2.2 3.7-4.7 2-8.2-7.4-.4-12.6 5.3-19.9 8.8 2.6-3.3 6-4 7.2-7.1-3.5-1.8-5.4 1.3-8.6 2 1.7-1.1 3-2 4.3-2.8-7.2-7.8-20.3 5.6-27.5 9.6 5.3-10 14.9-19.7 26.7-19.8-8.1-7.1-52.5-7.6-61.8-.5-.2-3.8-3.2-1.4-5.9-3.2 4.7-.6 8.4-4 12.6-4.8 4.1-.8 8.9 1.6 12.8-.2-3.2-3.2-7.8-2.6-11.8-6.1 5.5.2 10.5 2.9 15.7 3.2 1.2.7 2.5 1.1 3.8 1.3.4-1.5 1.4-2.3 2.7-2.4 5.2.3 10.3 4.1 15.5 4.4 3.1.2 6.4-1.2 9.2-.5 7.8 2 52.8 28.8 57 17.4-3.9-3.4-7.2-7.2-10.8-11.9 9-1.2 15.4 5.4 23.9 5.5 3.9 0 6.2-.5 9-3.3 2.2-2.2.4-6.5 3.7-7.8-1.1-1.8-3.3-.4-4.1-2.2 0-3.4 3.6 0 2.4-5.7.6-1.7 2.7-1.3 3.8-3-1 0-4.1-4.3-5.5-5.1-4.7-2.7-11.4-3.8-16.7-4.5 0-1.8 2.5-1.9 2.3-4.6-.2-.6-3.9-.5-2-3.1-1.8-.9-2.4 1.1-3.8 1.1.2-2.5 2.7-3 3.7-5.3-3.6-.1-1.4-4.9-4.8-5.4 2.2-2.1 5.6-.7 7.9-3.1-2.9-3.5-6.4-3.2-9.9-2.3-1.6-2.7 1.6-3.6 1.5-5.6q-8.1-7.5-16-1.9c-4.6-3 4-10.8-7.1-9.4-7.3.9-11.5 8-19 8.1-2.3-9.1 4.3-14.5 9-20-1.5-2.7-3.3-.9-4.9-1.8 2-3 4.5-5.2 5.6-8.6 3.2 1.4 2.2 6.7 6.8 6.3.5-14-15.9-11.1-18.8-21.6 4.3 1 7.9 2.4 10.9 4.6 1.8-1.6.4-3.2.9-4.6 4.2 0 4.1 4.1 6.1 6.6 2.2-.4 4.3-1.6 6.4-1 2-1.1.3-3.6 2.3-4.5 2 0 10.7 15.7 12.3 17.9 3.4 4.7 5.4 13.6 10.1 5.9 10.7 5.6 20 17.1 27.1 26.6.2-4.7-12.2-21.8-19.8-27.6 2.9-.1 5.1-1.3 8.2-2.7-8-2.6-5.1-9.4-8-14.1 3.5-.4 3.7 2.6 5.2 3.6 1.3-.1 1.1-2.1 2.6-1.5 2 2.9 1.5 6.7 3.4 10.2 1.9-2.1.3-4.5 1.8-7 2.2 5.1 1.5 10.4 3.6 14.9 4.4-2.3 4.7-1.8 8.1 11.7 1.5.2.9-1.5 1.9-2 4.5 2.9 7-2.7 7.2-7.5.4-7.3-6-14.3-9.8-20-4.3-6.6-8.5-13.6-14.2-19.1-5.2-5-15.4-7.6-19.1-13.4 6.5-2.5 14.9 4.3 21 5.8-3.9-4.5-9.8-6.7-12.9-12.1 1 0 1.9 0 3.4.2-2.8-4.5-8-5.9-10.7-10.2 1.1-1.5 4.1-2.7 1.9-5.8 7 4.1 14 8.1 20.7 12 2.3-.1 2.1-2.5 3.8-2.9 6.6 6.9 10.9 15 11.5 24.6 3.5-.4 2.2-3.6 4.7-4.1 6.6 8.6 3.4 29 5.6 39.5.7 3.2 1.8 12.7 4.6 14.6 5.4 3.5.5-9.9.5-9.6-2.6-11.9.6-24.4-1-36.4-.8-6.2-2.3-12.2-4.7-17.9-1.7-4.2-7.4-11.1-7-15.6 5.4 1.8 4.9 9.6 11.6 11.5.2.3-1.3 1.8.2 3.2 2.3-1.3 4.6-.9 6.1 1.8 2.3-1.9 1.7-4.7 3.4-6.4 4.8.1 8 4.2 13.2 6-3.6-5.4-7.7-9.2-6.4-16.1 1.4-7.2 3.7-5.9 10.8-4.4V0h3c-1.6 6 1.2 11.5 1.8 17.4 3.8-5.3 4.3-11.9 7.2-17.4h2c-2.7 7.2-5.6 14.3-7.7 23.2 5.7-7.9 8.7-15.6 11.7-23.2h2c3.7 5.1-1.1 9.4-1.4 14.1 2 1.4 2-2.1 3.7-1.3 0 2.2-2.5 3.7-1.3 6.6 6.4-.8 1.4-9.9 9.2-9.8 9.4 3.6-7.3 24.2-9.5 31.1-2 6.2-3.1 12.7-3.9 19.2-.5 3.8-4.5 13.2-3.4 16.1 2.9.4 2.9-4 5.9-3.6.4 6.3-1.1 12.3-2.3 18.6 5.6-5.1 9.4-3.9 16.2-3.2 4.1.4 10.5-1.6 14.2-.2.3.9-1 3 .7 4.9 5.1-8.9 7.9-19 15.5-26.6 1.4 6.7-12.9 15.1-2.4 18.3 3.4-8 9.5-14.5 13.4-22.4-.6 4.1-10 16.5-2.6 17.6-6 5.4-11.5 10.2-16.9 15.1.2.4.3.9.5 1.3 11.9-5.8 22.6.4 34.2 1.8-1.1 1.7-4.2.9-5.6.8-.9.9.6 6.3.7 7.3-9.4-1-18.6-2-27.9-2.9-.1.5-.2 1-.4 1.5 5.9 1.2 11.9 2.4 16.6 7.3-3.9 1.7-7.9-1.3-12 1.7 4.4.4 7.9.8 11.7 3.2-4.9 1.3-9-1-14-.2 4.7 2.9 9.6 2.8 14 5-1.5.9-5.7-.8-2.5 3.4-4.8-.5-9-1-14.3-1.5 1.5 1 2.2 1.5 3.6 2.5-5.4-.4-9.6-.9-14.1-.3-.9 1.7 2.1 1.5.9 4-1.1.8-4.8 1-3.8 5.1-2.8.4-5.8-.2-6.9 3 2.2 3.4 5.7-1.2 8.1 1.1-.2 2.4-3.5 0-3.4 3 3.8 1.2 6.6 4.4 9.6 7.3 9.5-3.6 42.5-41.6 51.9-33 0 1.9-2.2 2.4-2.5 4.6 4.6-1 8.7 2.8 13.4-.1.1.6.3 1.2.4 1.8-4.1 1.8-8.2 3.7-12.3 5.5v1.4c5.2-3.1 9.6-.5 14.8 1.4-6.4 2.3-12.7 2-18.5 4.3 5.3 1.7 10.9-.2 16.8 1-4.2 4.9-13.5-.9-15.1 7.6-10.6-1.5-3.8 8.9-8.2 11.7-1.7-1.8.3-4.8-1.5-7.6-.7 4.3-1.3 8.1-1.9 12.3-4-4.8-.3-9.2-.3-13.5-9.1-.1-6.1 7.2-7 11.9-4.7-1.8-2.6-6.7-5.4-9-2.5 8.4-6.2 12-11.3 10.8-1.4 6.8-1 15.5-6.9 19.8-2.2-3 .1-7.4-3-10-2.5 1.5-4.6 17.9-6.5 5-2.5-.7-2.1 1.1-2.5 2.4-1.4-.5.2-2.9-2.1-2.8-4.7 4.1.3 6.4 3.8 9.3-3.6.5-5.7-1.5-7.9 0 .3.7.6 1.6 1.2 2.9-4.2 0-3.9 2.8-3.7 5.6-1.7 1.1-1.4-2.2-3.5-.6-2.2 1.7 2.5 4 2.7 5.1-1.6 1.1-15.5 9.5-11.6 12.2 4 2.8 6-2.7 7-5 3.1 2 17.2-5.9 20.7-7.3 9.2-3.7 18.2-8 27.4-11.7 15.7-6.5 36.2-11.8 53.2-13.5 5.8-3.9 14.2-3.2 21.1-3.9-1.7 3.4-6.9.9-7.2 5.3 5.5-.7 20.5 3.6 18.2 11.6-1.3 1.5-2.9-.7-3.9 0-1.8 1.2.1 1.7-.9 3.7-.7-.5-1.3-.9-2-1.4-1.2.9.3 2.8-1.7 3.7-6.1-1.7-7.7-8.6-13.1-12.9.4 4.7 4.3 7.1 4.4 11.5-4.1-1.4-3.6-6.2-7.4-9 1.4 7.3 7.5 12.2 5.3 20.4-2-3-6.1-8.2-8.4-10.6-3-3.2-2.6-5.7-8.4-3.9 2.6 3 .4 7.2 1.4 10.7 1.2 4.3 5.6 8.3 8.9 10.9 6.9 5.6 12.9 8.5 18.9 15.5-7.3.4-10.4-5.8-15.5-9.7-5.4-4.2-12-6.6-18.5-8.5v4.8c-.6 1.8-1.8 2.7-3.9 2.6-.8 4.1 1.9 5.8 4.2 9.8-4.2-1.8-6.1-6.7-10.6-8.1-1.6 1.7.6 2.5.4 3.9-2.4-.2-3.1-3.5-6.1-3.3-.2 5.9 6.9 6.7 8.4 12.8-3.9-3.4-14.1-14.3-19-14.7-6.4-.5-4 2.4-2 7.1-6.5 3.5-11.2-1.3-16-3.1-1.9 1-1 2.5-1.6 3.4-4-.2-8.4.5-10.9-4.7-1.7 3.6 1.4 5.7 0 8.4-2.2-1.1-1.8-4.3-4-5.2-1.7 1.3-3.7 1.9-5.5 1.6-1.7 2.3 0 4.7-.1 6.8-5.1.8-2.7-7.1-8-6.4.2 1.5.3 2.9.5 4.3-2.9 2.8-4.3 1.1-5.3-1.5-2.7.2-.9 3.3-3.2 3.7 0-4.7-5.3-6.1-6.4-10.1-4.5-.9-.9 4.5-5.2-.8-1.3.8-2.6 1.7-3.9 2.5.3 3.2 3.3 4.7 4.3 8.8-5-2.7-9.6-3.5-14.8-3.5-1.5 3.2-2.8 7.5-7 9.3-.4 2.4 1.6 2.8 2.6 3.8-.3 1.5-2.5.8-2.2 2.6 1 1.6 2.5-.5 3.9.8-2.9 7.9 5.8 5.7 8.4.3 2.2-.5 1.7 2.2 3.1 2.6 4.7-2.3 10-1.8 16-4-2.1 3.2-5 1.8-6.2 3.9.4 4.1 15.3 9.1 18.5 11.1 6 3.7 12 11.6 19.3 11.3 1.4 5.4 7.7 9.8 10.9 14.5 4.7 7.1 8.1 8.7 8.7 17.7-4.3-5.2-10.3-8-15.4-12.3-4.1-3.4-6.3-7.4-9.9-11.2-5.6-5.9-11.7-14.6-17.6-6.6-1.2-1.8 1.6-2.9.5-4.7-1.1-.2-2.1 0-3.1.4-1.4-1.6-.1-3.7-.4-5.5-.8-.6-8.7-4.5-9.3-4.5-4.4 0-6.3 6.3-10.4 2.1.7-1.8 1.4-3.8 2.2-5.8-4.1-6-8.7-5.2-15.1 2.6-2.6 0-2.5-2.9-4.6-4.1-.8 4.9-4.2 9-5.1 13.6-.5 2.4.5 5.5.3 7.8Zm129.7-98c1.9 2.8 4.5 2.9 7.9 2-2.1-4.2-5.4-1.5-7.9-2Zm-15.2 19.1c0 8.8 4.6 12.8 13.4 11.1-4.9-4-9-7.4-13.4-11.1Zm-82.9-34.1c2.6 1.1 3.6 6.4 7.7 3.2 2.8-2.2 5.6-5.1 6.6-8.8-1.6-2.6-4-3.2-6.7-3.8.2 2.2 4.3 3.2 1.3 5.6-2 1.6-4-2.4-6.3-.5-.7 1.2 1.1 1.6.8 2.6-.9.9-2.8-.8-3.6 1.8ZM525 163c1.2 3.2 4.6 3.2 5.8 5.8-.8 1.5-3 1.5-3.7 4.3 7.4 2.9 14.9-13.6-2-10.2Zm-9.5-29.3c.5 4 5.8 2.6 5.9 6.9 2.5-2.6 1.1-4.8.9-7.5-2.5.4-4.8-.4-6.8.6Zm-79.4-21.1c-2.9-5.4-7.4-9.7-9.3-15.8-9 3.6 4.8 17.5 9.3 15.8Zm-31.4 101.2c-4.9 1.9-4.9 2.2-1.9 8.7 2.2-.5 2.7-6.5 1.9-8.7Zm5.5.3c-3.8-1.7-4.7 6.6-4 8.4 5.1.7 8.8-6.2 4-8.4Zm55.3-86.8c6.3.5 5.8-8.3 1.6-10.8-.8 3.7-2.3 6.9-1.6 10.8Zm6.5 105.6c1.5-5.2-7.6-18.8-13.6-19.2-6.1 8.1 8.6 15.2 13.6 19.2Zm-29.9-57c1.5 1.5 3.1-.8 4.2.5 5.3 5.8 5.6-1.1 7.9-3-4.8-1.8-8.6-.6-12.2 2.5Zm2.5 38.5c2.3 0 4-3.3 6 .2 0-3.7 3.6-6.8-.7-10 1.8 5.2-4.8 5.5-5.3 9.8Zm-18.9 18.5c-1.9.8-2 3.1-3.1 4.4-2-.8-.4-3.7-3.3-3.8-3.1 3.3-1.4 9.6-6.3 12 4.4 6 15-6.5 12.7-12.6Zm6.1 2.4c-3.6-.3-8.1 6.1-3.8 7.4 5.2 1.5 4.4-4.8 3.8-7.4Zm3.2-25.4c-1.4-3.6 1.5-5.5 2.9-8.3-6.7.4-8.6 1.7-10.1 6.8 2.2 0 4 1.9 7.1 1.5Zm4.7 4.9c-6.2 8.4-.6 10.4 6.1 12.3 3.4 1 8 3.9 12.6 6.6-5.7-2.6-12.6-4.7-14.8-5.4-6.2-.6-5.1 1.1-6.7 5.2.2-.4-.7 7.4-1.7 5.9 1.8 2.9 7.6 1.1 12.5 1.6 3.1.3 19.3 4.5 18.9-.5-.1-1.3-1.2-2.6-2.9-3.8 3.3 1.7 6.4 2.9 8.8 2.7 2.8-9.5-26.9-21.5-32.7-24.5Zm36.8-16.6q-5.7 4.8-1.3 11.5c5.1-5.7 5.3-7.6 1.3-11.5Zm12.4-6.2c-1.7 2.9-4.1 5.1-.4 8.3 3-2.9 2.5-5.3.4-8.3Zm9.2-137.6c-1.5-3.8-4-6.4-8.8-7.7 1 5.8 5.2 6.5 8.8 7.7Zm4.8 138.4c4.2-2.4 6.3 3.5 10.5 2.4-4.8-1.4-3.7-8.4-9.5-9 .9-2.2 1.9-4.3 2.8-6.4-2 4.9-7.1 2.7-10.1 5.7-3.5 3.5-2.2 11.7-3.8 16.3 6.1-3.6 3.3-11.5 9.3-16.6-1.7 7.7-3.2 14.1-4.7 20.9 6.9-2.5 8.6-7.2 5.5-13.3Zm-10.2 542.3c-.2-2-.6-4-1-6.1-1.1-5.3-1.7-10.6-2.1-16-.9.3-1.9.4-2.9.4-.5 0-1 0-1.4-.2-.2 2.6-.4 5.1-.6 7.7 1.1-3 1.7-4.7 1.9-5.4.8 2.6 2.4 6 2.8 9.5.3 2.1-.4 5.4-1.9 6.4-3.3 2.1-2.4 4.8-2.2 7.4 2.3 0 4.7-.2 7-.3-2-1.9-4.1-.6-4.7-2.9 1.4-.6 3.1-.7 5-.5ZM227.1 416.5c-2.7-.6-5.4-1.3-7 2.4 3.8 2.7 4.9-1 7-2.4Zm85.8-64.5c1-.5 1-.7.5-.9-5.2-1.7-9.5 0-13.4 3.5 4.6-.6 8.5-4.2 12.9-2.6Zm-23.4 18.3c1 1.9 1.2 4.7 4.4 4.7 0-1.9 1.3-3.7 0-6-1.3.5-3-.9-4.3 1.3Zm-78.3 260.3c-6.9 1.6-5.6-2.3-11.3-3.6-3.7-.8-7.3 1.1-5 6 3.5 7.6 16.1 6.3 16.3-2.5Zm27.6-249.3c1.5-2.8 1.6-10.3 5.2-11.4-2.2-5-3.4-10.2-3.4-15.7 0 9.1-2.5 18-1.8 27.1Zm130-39.2c1.5 3 4.4 4.5 7.2 6.2-1.5-3-3-6.1-7.2-6.2Zm-138.6 31.8c.7-4 1.8-8.1.6-12.1-.5 4-2.8 8-.6 12.1Zm367.6-74.1c-1.3 4.6 3.6 15.5 8.3 18.6 0-4.8-5-16-8.3-18.6Zm210.3 344.3c-2 .4-3.3 1.8-4.6 3.3 4.8-7.4 6.6-10.7 8.1-19.8.7-4.7 5.6-16.8 2.4-21.3-5.9-8.4-21.3 11.3-22-6-1.4 3-5.8 53.8-1.3 56.3 4 .1 7.4-1 9.5-4.6-2.5 4.7 7.6 3 9.8.9-5.3-2 .8-6-2-8.8Zm9 14.7c-2.6-1.3-4.9-1.4-7.1-1.5-2.9 3.3-1.3 5.7 1.3 7.5.2 1.6-2 .7-1.5 2.4 2.2.1 4.5.3 6.3-2.3-2.2-2.1-1.7-4.3 1-6.2Zm-16.9-.9c-13-1.8-11.7 16.8-4.2 7.4-1.7 12.1 21.8-4.9 4.2-7.4Zm53.1-80.2c-3.8-3.1-9.1-4-12.5-6.8-1.6-1.4-3.1-7.8-5.4-7.6.4 7.4 10.4 15 17.8 14.5ZM1024 464v18c-3.9-8.8-11.3-14.8-17.6-21.3-.1-2.4 2.5-1.3 2.6-3.2-.7-2.6-3.7-2-5.4-3.4-.3-2.9 3.8-3.3 3.4-6.1 2.6-.5 5.5 1.5 7.7-1.3 1.5 2.1-1.3 3.5-.4 5.7 7.3.2 4.9 8.5 9.6 11.6Zm-2.2 1.9c-.4-1.5-5.6-12.7-7.9-10.7-5.6 4.8 4.6 10.1 7.9 10.7ZM318.7 178.2c4.1-3.2 8.2-6.5 12.4-9.7-6.1.7-10.3 3.9-12.4 9.7Zm614.6 282.5c-1.5-5.8-10.6-8.5-6.8-16.6-10.5-1.7 5.7 15.6 6.8 16.6Zm-364.5-16.8c-1.4-.2-2.8-.5-4.1-2 1-.5 2-.7 3.1-.9-.5-.9-1.2-1.8-2.1-2.8-4.7-4.8-9.3-9.9-13.8-14.9-.8 0-1.6.3-2.4.9-.2.8 1.9 1.2.6 2.3-1.8-.2-3.1-2.5-5.2-1.1-.5 2 .2 4.2-1 6.5-3.1-1.5-8-1.1-12.5.5-.8 4.8-1.5 9.6-2.6 14.4 3.9-3.1 9.3-2.7 14.2-3.4.8-2.6.4-5.8 4.1-7.3 1 8.4-11.2 17.4-19.6 15.6-1.1 3.4-2.4 6.7-4.1 10-.7 1.2 0 3.2.3 4.9.3 1.8.7 3.7 1.2 6.6h2.1c-.5-2.9.2-5.4 3-7.9.8 3 .5 5.4-.6 7.9H543v1c-2.2.5-4.6.7-6.6 1.6-2 .8-3.7 2.3-5.5 3.6 1.8 2.4 3.1 5.5 5.4 7 1.3.8 4.9-.2 6.3-1.6 5-5 9.6-10.5 14.3-15.9 1.2-1.4 2.2-3.2 3-4.8 2.2-4.2 4.2-8.6 6.6-12.7l-.9-1.2c.6-.1 1.2-.2 1.7-.2 1.3-2.1 1.9-4.1 1.7-5.9Zm81.6-159.8c.2-1.8.4-3.5.7-5.9 2.8 4 1.7 8.6 3.9 12.5 4.6-6.6 8.8 5.8 10.7 7.4-1.1-9.8.2-18.8-4.8-27.1-2.4 1.7.2 4.4-2.8 5.2-8-19.5-29.9-24-48.5-29-18.3-4.9-45.2-13.3-63.9-7.7 3.3.4 6.7-.8 10 .7-.3 2.6-2.4 4.5-1.5 7.3 1.6-2.5 3.7 1 5.6.3 3.2-1 3-5.4 7.2-6.3-2.4 3.2-1.9 5.7.2 8.4 3.6-1.5 5.3-4.8 7.5-7.5 4.5 4.6-5.7 6.6-1.6 10.8 4.1-.8 5.9-3.4 6-7.2 6.8-.8 14.1-4.7 17 5.7 1-1.2.7-2.6 2.2-2.8 3.6 3.2 2.3 10.3 8.8 12.3-1-3.9 0-6.4 4-7.2 1.8 3.4 5.3 2.9 8.8 3.1 0 2.9 1.4 5.3 2.5 8 4.5-3.7-.5-.8 4.5 1.1 9.5-1.7 6.1 7.2 8.8 11.4 3.7-7.5-4.1-11.7-4.3-18.9 9.7 7 17.9 13.4 18.9 25.1ZM1024 511v10c-4.1 2.2-7.6 10.2-.2 9.1-1.4 2.6-7.2 2.5-5.2 7.5 2.2.4 3.6-2.1 5.5-.6v9c-1.2 2.6-3.4 4.4-5.8 6.4 3.6 2.8 1.4 8.3 5.8 10.6v181c-7.8 2.7-14.6 1.4-22.6 1.3-7.6 0-15 1.3-22.5 1.5-17.5.4-35.2-1.7-52.7-2.2-5-.1-17.7 2.9-21.2-.6-3.7-3.7-.5-19.5-.4-24.7.1-18.8-.1-37.5-2.3-56.2-8.3 10.1 4.2 45.5-7.3 47.4 6.5 10.6 5.8 22.2 6.8 33.9-11.4 10.9-8.7-11.5-9.4-13.7-1.9 1.6-3.5 2.8-5.3 4.3 1.7 2.7 1.8 5.6 0 9-11.3 1-22.9 3-35.1-1.6-2.6 4.2-8.2.2-11.8.1-5.4-.2-15.9 1.2-20.9 3.1-.7-2.6.9-4.1 1.9-6.4-1.4.5-2.5.8-3.9 1.3-1.1-4.2 3.7-3.4 4.7-6.4 1.2-3.3.6-7.2.8-10.7.4-7.8 2.4-16.1 3.1-23.3 0 .7-.5-5.4-.5-5.6 0-2.8 1-6.5 1.1-9.6.2-6.3-1.1-23.2 9.5-21.7.6 3.2-3 3.6-3.8 5.7 1.5 2.4 6.7-3.7 9.8-3.1 6 1.2 8.1 10.3 8.7 14.9 1.1 7.7-.1 15.7.2 23.5.4 9.4 2.4 16-1.6 24.4 9.9-2.3 7.6-14.1 16.9-15.4-2.2-.2-4.3-.5-7.4-.8 3.5-5.2-2.6-20.6 3.9-23-11.4-9.2.3-21.5 3.1-5.8 8.7-5.2-5.8-16.1-7.2-22.4-1.2-5.3-.4-5.6-3.5-9.5-2.5-3.2-8.8-6.1-7.6-12.9 2.4-13.4 6.4 9.1 10.7 5.9 4-3-1.8-7.2-2.3-10.1-.3-2 1.6-4.2 1.3-6.4-.3-2.3-2.1-4-2.1-6.5-3.9 2.8-6.5 8.7-11.4 2.5-4.3 5.3 0 9.6 1.5 14.7-4.1-.5-6.2-3.9-9.6-4.1l.2.1-.1-.1c-5.8-3.6-1.8-19.6-1.1-25.4.5-4.3-1.4-21.4 2.6-24 2.2-.2 4.7 2.6 6.5 3.3 4.3 1.7 3.9-1.8 7.3 3.7 1 1.3 1.8 2.7 2.5 4.1.5 2.1-.4 3.6-2.5 4.5.1 3.5 1.8 6.5 1.3 10.4 3 1.4 6.4 1.2 8.9 3.5 3.2-3.5-2.5-6.4.3-9.9 1.9 4.9 5.1 9.1 3.9 15.6 2.2-2.4.7-4.5 2.6-5.9 2.3 0 5.1 1 7.6-1-.4-4.5-5-7.6-7.2-11.3-2.6-4.3-6.3-11.6-8.1-16.3-1.6-4.3.3-6.3-3.5-10.4-2.6-2.9-7-3.4-8.7-7.2 3.4 1.9 6.3 3.5 10.5 4.4-2.8-3.8-6.1-5.2-9.6-6.7 2-.9 3.8.9 6.7-1.2-8.3-1.8-9.7-11.2-18-12.6 3.9-3.5 2.6-6 2.4-10.2-.2-5.5-.1-9.7.7-15.3.8-4.9 0-10.4.9-15.1.5-2.6 2.4-4.6 2.8-6.6-1.5-2.7-3.5-1-5.3-.4-4.7-6.3 8.2-8.7-4.4-11.8-1.7-1.9.3-3.4-.4-5.5-6.2.5-5.9-6.6-10.4-9.3-1.3 5 5.5 12.1-4.2 14.3.2 2.2.3 4.4.5 6.5 2.5 0 2.4-2.1 3.7-3.3 2.5 7.9 1.5 15.8 3.2 23.7 1.9 8.6 5.6 15.8 6.1 24.7-3 .2-1.7-2.3-3.1-3.3-.9 5.6 2 11.4-2 17.5-1.2-10.4.6-19.9-1-29.3-2.2 5.2-9.4 7.1-8.6 15 1.3-3.5 4.6-9.1 7.1-2.9 1.4 3.4-4.7 12-6.6 15 .1-9.6-12.2-15.9-.5-20.7 1.3-2-1.1-2.6-1.1-4.1 1.3-1.3 2.9.3 4.8-.8-3.2-1.8-5.4-4.7-8.9-6 1.7-1.1 16.3-17.2 8.5-17.8-2.8 2.9-3 8-7.6 9.7.3 6.2-6.6 7.4-8.8 12.1-1.2 2.6-2.2 7.4.3 9.9 1.9-2.4 3.8-4.8 6-7.5 2.8 9.6-10.6 10.3-14.8 13.3 3.6 2.3 6.7 4.5 11.2 3.6-.3 2.2 1 3.7 2.1 5-.4 2.1-2.7 1.5-3.4 3-1.3-.7-.5-3.2-2.7-3.1-2.1 5.1 1.3 10.5 7 9.7-3.8 4.4-3 8.7-.6 13 1.2.2 1.7-1.3 3.9-2-7 7.7 3.4 11.7 2.3 18.3-1 1.8-3.8-.5-5 1.5-.3 2.5 3.1 1.1 3.2 4.6-4.6-2.9-7.7-6-9.6-10.4-1.6.8-1.1 3.2-2.9 3.8-1.5-.2-1-2-2.4-2.8-1.8 4.3-4.9 7.6-7.7 11.2-1-8.3.9-13.9-7-19.6-.5 4.7-10.9 1.2-7.2 9.5-5.1 1.9-3.6-3-8.3-3.9-7.1-1.3-6.2 5.1-8.7 9-2 3.1-6.9 8.5-10.6 9.2-6.9 1.3-2.3-5.4 1.3-9.1-4.5.5-6.1 3.8-8.8 5.1-3.2 16.2 7 3.1 9.7 9.9-1.3 3-7.3 1.4-6.5 7.2 3.3-1.9 13.4-7.6 17.3-7.7 4.7 0 6.3 3.5 11.5 2 1.7-2.9.3-7.1 3.5-10.8 3.6 13 .6 28.9.5 42.3 0 5.6 1 12.5-1 17.9-2 5.4-7 8.5-10.7 12.7-8.2 9.6-13.2 21.4-22 30.6-9.5 9.9-15.5 19.4-8.5 33.3-1.1-7.5-3.3-15.7.8-22.7 3.3-5.7 9.9-9 14.1-14.1 3.6-4.4 20.5-37.1 26.5-34.6 1.2 17.7-.1 35.4 1.4 53.2 10.7-11.1 9.6-19.4 9.6-34.4 0-2.3-1.5-11.8 1.2-12.9 4.4-1.9 3 3 4.4 5.4 2-1.3.5-3.5 1.4-5.2 1.7-1.4 3.6-.8 5.6-.2-.6 3.3-4.7 19.4 4.3 16.8-1.8-4.2 1.4-7.9 2-12.4 2.3-.7 4.6.9 7.1 2-.5 2.5 0 5.3-3.4 6.1.8 3 4.5 2.9 4.9 6.2-4.2-1.3-7.6 1.4-13.2 1.3 6.5 3.7 4 10.8 9.1 14.4-4.7 3 1.7 9.5-4 12.7.4 1.2 2.7 1.1 2.7 3.5-3 6.2-20.2 5.4-22.1-.7-2.1-6.6 9.7-19 3.8-25.1.6 7.4-3.2 14.3-4.8 21.4-2.3 10.4-2.8 8.6-13.1 14.1 12.6-3.8 25.1-7.6 38.5-1.9-1.6 1.8-3.5 3.3-4.3 5.7-.6 1.8.8 4 0 5.6-3 6.2-11.5 4.1-17.7 4.1-3.3 0-7.2.6-10.5 0-3-.5-4.7-2.1-6.6-2.6-4.9-1.4-10.6 0-16-1.2-5.3-11-4-22.6-4.7-34.2-8.7 4.7-2.9 26.4-2.3 34-12.7-1.2-23.2 4-35.6-1.6-11-5-19-9.9-31.5-10.7 11 1.3 20 7.2 29.3 12.7-7.3 3.1-11.9 1.4-19.3.9-7.1-.5-14.2.9-21.4.4-11.6-.8-22.4.4-34 .4 1.5-2.5 5.2-3.9 9.3-4.9-2.6.5-5 .9-6.7 1.3-6.1 1.4-37.5 7.6-39.1-1.4-2.9 5.9-23.8 2.3-30.1 2.7-10.5.7-21.2.8-31.6.8-8.5 0-16.2-2.8-24.6-2.6-3.2 0-7.6-1.2-12-2.4 1.5-9.1 3.1-18.2 4.8-27.3.3-1.7.9-3.3 1.4-5.1 1.2.7 2.1 1.2 2.9 1.6.1-.3.2-.5.4-.8 1.1 1.6 2.5 2.2 4.3 1.3 1.1-.6 1.7-2.6 2.1-5.5.6 2.9 1.2 5.8 1.8 8.8h1.7c.5-1.7 1.1-3.5 1.6-5.3 1 .8 2 1.6 3.7 3 .9-3.9 1.6-7.2 2.4-10.8 1.5 2.5 3.1 5 4.9 8 .7-2.2 1.2-3.8 1.7-5.4.7 1.9 1.4 3.7 2.6 6.9.7-3.6 1.1-5.4 1.5-7.8.8 2.1 1.4 3.4 1.9 4.8l1.1-.3V697c.3 0 .6 0 .9-.1.5 2 .9 3.9 1.4 5.9h.9c.5-2.6 1-5.2 1.6-8.1 1.6.7 2.7 1.2 2.9 1.2 1.3-1.7 2.7-3.1 3.4-4.8 1-2.3 2.1-4.9 1.9-7.2-.7-7.4-1.3-14.7-.2-21.8.6.7 1.1 1.4 2 1.3.9-1.5.1-3.9-1.2-5.3.4-1.5.8-2.9 1.4-4.4 1.1 4.1 2.3 8.3 3.5 12.6 1.4-4.4 3-8.8 2.1-12.7-1.5-5.9-3-11.8-4-17.8 2.1 1 4.2 2 6 2.9 1.5.7 8.2 5.1 10.2 4.5 3.7-1.1 4.4-6.2.6-7.9-2.4.5-1.8 2.8-4 3.6-3.9-3.7 16.2-21.8-.5-21.6 1-1.6 3.2-.9 4.3-2.2-8.4-6.9-21.1 9.6-19.2-3.7 6.6 6.1 9.6-4.4 3.5-6.2.7-1.4 1.4-2.6 2-3.8-1.3-1.2-2.3-2.1-3.2-3-.4-1.9-.7-3.9-1.1-5.8.5-.4 1-.8 1.7-1.3-.7-.7-1.6-1.3-2.4-2-.3-1.7-.7-3.4-1-5.1.1-.2.2-.5.4-.8 1.4 2.3 12.4 8.4 13.9 6.9-.4 2.7 14.6 9.4 17.3 7.6-2.9-6.5-7.7-9.3-13.2-8 3.6-2.7 2.5-8.3 6.3-11.9.2 3.2-.8 6.1.7 8.8 1.2 2 9.8 8.3 11.8 6.5 1.7-1.5-2.1-17-6.2-17.2-1.7-4.8 6-9.1-.5-14.2-1.1 4.5-2.1 8.3-3 12.2.1-6.7-6.5-13.2-2.5-19.7 3.9-6.3 10.7-4.5 7.9-13.6 2.5-2.1 6.9-.8 9.3-3.6 1.6-1.9-.2-4.9.9-6.2 2.4-3.1 8.9-9.1 13.2-10.1-.5-2.5-1.6-3.3-2.3-3.5.8-.1 2.3-.5 5-1.6 4.9-2.1 12.8-10.4 16.5-2.3 2.1-3.3-1.4-5.8 0-8.4 3.1 1.1 5.8-1.3 9.4-.9-.7-4.2-12.4-18-13-7.1 4.8-1.8 6-1.1 6.8 4.8-4.5-3.5-8.6-1.2-12.9-.4.9 3.6 4.8 1.5 6.1 4.2-2.7 2.1-5.5 2.8-8.4.7-5.7 6.8-9 7-12 1.1-2.6.4-.8 2.9-2 4.1-4 .9-2.7-4.6-5-6.3-2.4.2-1.7 1.8-1.8 3-1.7.5-2.1-1.5-3.9-1.7-2.1 1.9-4.6 4-7.6 6.7 3.1.5 12.7.2 14.3 3.5-9.9 0-15.7 7.5-23.9 11.2 1.5 2 4.8.8 4.4 4-3 3.2-8.1 3.9-11.6 7.3 7.2 3.3-5 8.4-7.6 10-.4 2.5 2.2 1.7 2.3 3.4-4.3 3.1-6 12.5-8.5 16.4-.8 1.3-2 2.9-3 4.8-2.4-9.7-5.3-19.2-9.1-28.5-2.5-5.9-3.8-12.4-4.9-18.7-1.2-7.4-1.6-14.9-2.4-22.8 2.2-1.4 5.7-3 8.3-5.4 9.6-9 18.8-18.3 26.9-28.6 2.3.1 4.2-.8 7.4-5.5-.3-.4-1.1-1-2.1-1.6 1.1-1.5 2.1-3.1 3.1-4.7 6.1 3 12.5 5.6 17.3 4.8 6.4-1 18-9.4 21.5-14.6-1.8-1.2-3.6 0-4.7-1.5 3.4-5.1 10.2-4.4 14.8-8.3-2.2-.5-6.9 2.2-8.4 0-1.7-2.3 1.6-3.3.7-5.8-2.5-1.7-5.6 1.1-8.2-.5 1.4-2.2 4.9-.3 5.9-3.5-3.1-2.2-6.2.7-10.2.1 2.5-1.5 4.1-2.4 5.8-3.4-1.6-1.9-3.9-.9-5.9-1.4 1.9-1.9 4.7-.8 6-2.6 0-1.1-2.4-.5-1-2.4 2.8.2 5.4-.3 6.1-4.6-6.7 4.2-10.6 1.4-17.5 2.7-5.2 1-9.1 6.1-14.4 2.4 1.7 5.6-4.5 2.6-5 7.1 5.3-.9 9 2.2 13 5.1-3.6-.7-7.2-.3-10.9.1-1.4-2.3-3.3-5-5.8-8.2-.6-.8-1.2-1.5-1.8-2.3 0-.1-.2-.2-.3-.3 6.1-1.6 16-5.6 18.5-6.1 3.5-.7 5.5 1.2 9 0 4.7-1.6 8-6.3 12.4-8.6-9 .2-18.2-1.7-25.6 5.5 1.8-2.7 5.5-3.4 6-7.3-4.9-1-8.6 3.8-13.5 2.5.8-3.3 6.7-7.3 6.1-10.7-1.2-6.8-3.6-.5-5.7-4.2 3.3-2.4 8.1-.5 11.2-3.4.6-2.4-1.8-3.3-2.8-5.3 2.1-2.8 5.8-5.2 4.4-9.7-4.8.3-9.4 4.2-14.6.4 4.6-3.4 10.4-1.2 15-3.6-.2-2.7-3.2-3.2-4.8-6 4.4.8 6.6 3.6 9.8 5.2.2-1.8 1.3-3.1 3.3-3.2-.3-4-4.2-4.2-6.3-6.6 1.3-2.2 3.1-4.5.9-8.4 3 1.8 2.1 5.7 5.6 5 0-1.8-3.7-4.1.9-5.4 2.5 4.9 4.8 3.3 9.1 5.9 3 1.8 4.8 4.7 7.4 6.8 2.3 1.8 5.2 2.7 7.2 4.2 1.5 1.2 2.4 3.6 4.1 4.4 3.6-4.6.4-7.8-2.3-11.5 2.6 1.5 3.3-2.6 5.8-1.3-.7-3.1-3.4-11.1 2.4-8.1-.2-5.6-3.1-10.3-3.6-15.2 1-1.6 2 .4 3-.8-.6-3.4-2.4-6.9.4-10.5 2.8 3.2 3.2 7.7 5.3 11.4 1.5-.3.8-3 3.2-2.1.6 2.3 1.5 4.5 2.9 6.5.7-.6 1.5-1 2.4-1.2.6 11.3 4.4 22.4.7 34.1 8.3-2.1 11-5.6 9-10.7 1.5-2.1 4.5-3 5.2-5.9-1.6-.7-2.6 1.3-4.3 1-1.3-11.4 13.8-18.9 20.5-25.3 4.9-4.8 6.7-15.7 15.9-14.9 9.2.8 16.1 18.2 20.9 24.8 3 4.2 17.3 12.5 21.4 4.7 1.1 1.6 1.9 2.8 3.2 4.6 1.3-4.5 4.4-2.5 7.3-2.6-.1-3.1 1.2-4.7 4.5-3.3 0-1.2-11.4-9-3.2-9.2 1 2.4 2.4 4.7 5.9 3.2.9-4.1-2.3-9.8-3.5-12.6-1.4-3.4-3.8-9.2-5.9-13.5-2.5-5.3-4.5-10-8.8-14.2-4.1-4-9.9-5.8-11.4-12.1 8.7 3.8 15.2 10.2 19.1 19.4 1.8-1.8 1.7-4.9 3.1-6.2.8.5 1.5 1 2.2 1.7 1.3-.8 2.2-1.8 2.6-3.3 1 1.1-.5 2.8 1.4 3.9.4-3 5-3.5 3.8-7.4 7-2.1 2.8-10.7 0-14.8-5.5-8.2-9.1-6.8-17.1-7.6 1.7-12.6-8.2-5-12.8-7.5.9-3.4 5-2.2 6.4-4.4-.3-2.5-2.9-.9-3.8-2.7-1-2 3.7-2.8.6-5 4.6-2.6 8.2.7 12.6 2-.6-2.6-3.2-2.3-4-4.7.3-1.3 1.9-3.1.8-5.7 3.5 1.3 6.4 2.3 9.1 5.1 6-13.4 5.8 2.8 10.9 6 2.3-2.1 0-4.3.8-6.4 6.4 4.8 5.6 13.1 11.5 18.1 4 3.4 8.4 8.4 13.9 6.5 2.5 9.2 8.7 16.1 12.9 25.3 2.7-4 1.9-8.5 6.5-8.5-.9-11.1-.6-25.9 6.2-35.2 2 7.6-1.8 35.7 8.4 34.9-7.3 4.7-7.6 16.5 0 21.6 4.8-7.3 2.6-19.1 3.6-27.4 1.1-9.6 1.7-21.3 5.1-30.4 3.1-8.3 5.5-5.6 7.5 1.6 1.4 4.7 2.3 6.8 1.3 12-.5 2.7-4.9 7.7-2 10.2 2.6-.6 1.6-3.8 3.3-4.9.3 6.2-.6 12.4-1.7 18.5-.9 4.7-5.3 14.1-3.1 18.5 5.7 11.6 10.5-12.1 11.5-16.2 1.6-6.6 2.8-17.4 6.4-22.9 2.1-3.2 4.9-5.2 7-8.9 5.5-9.7 11.5-19.4 16.9-29.1 2.6-4.6 3.7-6.8 7.1-9.4-.2.2 7.1-3.2 6.6-3.3 10.2 3.4-5.6 17.7-9.1 20.8-8.2 7.2-14 16.6-18.5 26.6s-12 24-11.8 35.2c1.1 2 2.8-.8 4.2.8-.9 2.5-1.8 5.2-3.1 9 7.6-3.8 14.9-5.9 21.6-9.9-.6 1.5-2.7 2-2.6 4.4 8.6 0 5 2.4 10.5 5.7 2.2 1.4 7.9 2 9.3 4-2.2 3.8-3.6 7.9.4 12.7-5.8-.4-6.6-8.2-12.6-9.3-5.9-1.1-12 2.9-6.5 8.3h-6.6c.8-.8 1.3-1.8 1.6-2.9-.5-3-18.3 1.3-19.9 1.9 3.8 2.8 7.3 1.3 11.3 1.2-4.6 3.7-12.5.6-15.3 8.2 7.7-1.8 14.3-4.9 21.6-2.3-1.9 5.6-10.2 5.7-15.1 6.1-9.2.9-7.1.3-9.1 8.8-1 4.3-4.8 8-1.1 11.2 3 2.6 12.7-3.4 12.3 3.8-2.9-.4-8.3 2-9.9 1.6-1.6-.4-2-3.2-3.8-3.4-3.2 3.7-2.9 4.4 3.4 8.3.3 2-1.6 3.1-2 5.1 2.7 1.1 5.1 2.7 3.1 6.6 3.2-.2 6 1 8.8-.9-5.4-5.1 3.3-7.2 8.7-8.9 10.8-3.3 5.7 3.9 13.2 6.9 12.4 5 23.2-21.3 31.3-26 .1 4.4 11.7 5.7 5.2 0 1.6-2.1 8 0 11.2-2 5.3-3.4 8.9-11 13.8-15.3-2.9 4.2-11.3 11.3-4.9 14.7 4.8 2.6 13-7.6 17.5-10.2-9.4 14.8-25.6 17-39.6 22-2.4-1.1-.6-3-2.1-3.8-2.4-.4-15.5 19.2-18.4 22-6.9 6.9-13.3 13.7-19.7 21 5.2-5.6 11.8-11 17.5-15.4 2.8-2.2 6.3-5.2 9.9-5.5 2.7-.2 3.9 3.8 7.6 2.5-.4-3.1-4.1-2.1-5.2-5.1 6.7-6.4 14.7-11.3 22.9-15.5 7.7 7 17.3 10.4 24.5 17.1-2.2 1.5-5-.5-7.9.4 1.6 4.3 4.8 8.3 3.3 11.7-2.1 4.8-13.8 2.9-5.3 9.5-5.8 3.5-9.1-4.4-14.3-2.9.6 1.2 1.4 8.2.4 7.1 1.5 2.1 5.4 3.8 5.8 5.7-3.2 3-6.5-2.1-9.6 0 4.1 5.6-1.8 10-1.3 16-2.5-1.7-4.5-2.2-5.8.8.5-4.4-2.7-5.9-5-8.1-2.4 1.4-3.1 3.2-1.5 5.7q-6.2 0-16.5-6.9c-2.3 2.8-3.7 6-4 9.2 7.1 4 13.5 8.3 18.7 14.1q-6 5.6 4.2 18.3c1.5-.5.3-2.7 2.3-3.1 1.5 3.8 7.3 5.1 5.6 10.8 10.9 3.2 22.5-1 33.4 2 6.5 1.8 9.8 5.7 14.5 10.6 8-10.8 10.2-6.8 13.2 3.8-2.1 1.3-2.3-2.1-4.4-.9-1.3 5.8 4.5 8.9 5.8 14.1.3-3.6.5-6.8.7-10.2 4.1.8 4.6 5.3 8 6-1.9-4.5-2.7-9.3-3.4-14.2 2.7 3 5.8 2.2 9.4.9-1.3-9.7-7.5-17.7-10.1-27.1 4 3.2 8.9 3.9 11.4 8.9 1 2-.2 5.4 1 7.9 1 2.2 4.2 5.2 5.7 7.3 5.1 7 8.3 19.3 15.8 23.9-7.3 1.5-7.4-11.4-17.6-8.7.9 5.9 13.2 13 17.6 16.7Zm-92-133.2c5.3-.8 7.3 5.7 12.4 3.5-2.6-5.3-8.6-7.5-12.4-3.5Zm-7 18.8c4.2-2.4 7.2 2.9 11.6 1.3-1.7-3-13.8-8-11.6-1.3Zm-17.2 23.8c1.4-4-.7-6.3-3.6-8.4-2.8 4.1-2 5.8 3.6 8.4Zm-287.1-37.6c-3.1-6.2-8.4-5.4-13.6-4.5 3.7 4.6 9.4 1.9 13.6 4.5Zm-31.8 127.6c-.2-3.4-2.2-1.9-4-4-1.5.7-1 2.9-2.6 2.9-1.7-1-.1-3.2-.7-3.4-6.2-.5-13.1-7.7-19-5.8.1 2.8 6.7 2.8 4.7 5.9-1.5 2.3-9.4 1.6-11.3-.4.1 1.3-.4 6.2.4 7.6 5.9-3 17.1 2.5 23.9 1.6 2.8-.4 8.9.9 8.5-4.3Zm39.1-28.6c-.6-3.5-4-6.7-1.4-10.9-4 .6-5.3 3.1-7.6 4.8 2.8 2.3 5.2 4.3 7.7 6.4l1.3-.3Zm.5-22.5c-4 2.1-15.5 8.2-18.1 11.8 7.3 2.1 5.5 4.4 11-1.5.9-1 8.8-8.2 7.2-10.2Zm-39.7 140.9c-2.2 3-5 2.7-7.6 3.1-1.7 6.8 11.1 5.8 7.6-3.1Zm4.8 72.3c-2.3 4.5.1 8.1 0 11.8 3.3-3.7 2.9-7.4 0-11.8Zm189.1-234c8 7.5 12.9 16.8 16.7 27.3-9.8-.9-11.1 4.4-14.4 12.9 3.5-.2 6.1-1.3 9.1-.6-1.4-4.3-5.4-8.5 1.5-11.5-.3 4.8 1 5.5 7.4 4-1.4 2.3-3.6 4.1-2.1 6.9 3.6 1.3 5.1-2.6 8.8-2.4-1.8-1.6-2.9-2.5-3.9-3.5 1.3-1.6 3.5-1.8 4.2-4.3-8-10.4-16.9-20.2-27.2-28.9Zm1.1-152.8c2.2-.6.7-2.7 2.9-3.5 7.7 11.9 14.4 24.4 19.4 37.9 2.3-6.5-4.6-25.7-8.6-31.3-1.7-2.4-16.2-18.7-17.9-18.3-.3 5.6 3 10.1 4.3 15.2Zm-85.7 263c2 .6 2.1 2.8 4.3 3.8.3-5.8 0-11.4 4-16.6-7-.4-4.1-6.3-8.8-8.4-1.8 1.7 1.3 4.1-.8 5.7-2.8-.4 0-3.9-3.2-4.1-1.8 1.8-1.6 5-3.8 6.5.7 1.8 2.6 2.1 2.7 4.3-3.2-.7-2.2 2.6-3.7 3.8-1.3-.6-.4-2.8-2.5-2.8-2.6 1.9 1.1 5.8-2.2 7.7-.9-2.6.3-6.4-5-7.2-2.3 14.1-10.1 26.9-7.3 41.9 5-1.1 10.6-12.9 9.8-20.3-1.1-.7-1.4 1.1-2.1.9-.9-4.7-.3-8.6 5.6-9.1 3.6 4.5-4.1 8.1-1.4 13.3 2.3-3.3 5.6-6 7-9.9.9-2.7-.6-6.2 2.1-8 .5 2.9-.8 6.1 1.8 9.2 1.7-3.8-1.3-8.8 3.5-10.7Zm-14.6-101.5c2.4.9 2-3 4.1-2.4 1.5.8-1.2 2.6 1.2 3.4 2.1-2.1 2-5.7 5.2-7.9-5.7-2.1-8.8.2-10.5 6.8Zm17.6-16.9c-3.2-3.1-6.2-.5-9.8-.3 2.3 6.7 6.2 6.6 9.8.3Zm15.1 20.6c6.9-6.2 12.4-14.2 20-19.6 4.2-3 21.1-6.1 18.7-9.3-17.6 5-28.5 10.4-40.6 24.7-7.6 9.1-29.7 12.1-23.6 27 6.1 3.5 11.5-2.5 15-7.5 4.4-6.4 4.8-9.9 10.6-15.2Zm.6-39.6c-2.7-3.1-2.7-3.1-7.3-.7q3.9 2.9 7.3.7ZM694 347.6c4.4 3.1 9.8.2 14.6 2.2 4.8 2 7.3 7.5 12.2 9.7-.4-2.9-.7-5.2-2.5-6.9.8-1.2 2.7 0 2.9-2.5-4.7-1.4-10-1.4-14.5-4-.4-11.8-10-3.3-12.7 1.5Zm1.3 14c-1.8-.7-.3-2.7-1.5-3.8-8.3-2.9-2.8 9.3 1.5 3.8Zm-13.1 66.6 1.6-4.8c1.1 2.2-.5 4.5 2.2 4.9 1.3-.9-.2-2.8 1.7-3.7 4.3 5 21.4 3.3 14.9-5.2-3.5-.6-1.7 3.6-4 4.2-3.2-2.4-10.5 4.4-10.7-5-4.6 1.1-7.1 4.3-5.7 9.5Zm-7 43.8c3.1-3.2 10.2-4 9.4-9.6-4.7 3.8-9.7 2.5-9.4 9.6Zm-15-52.1c3-6.5 11.7-17.3 12.7-24.2-10.5 9.2-15.4 18.7-12.7 24.2Zm-4.7 134.6c-2.4-3.1 0-7.1-3-10.7-2.4 8-1.1 15.3-1.7 23 4.8-1.7 1.9-6 3.9-8.3 2 1.9-.8 4.7 2.1 6.2 1.3-2.8 4.1-2 6.5-2.6 3.5-.9 2.6-4.6 4.1-6.9 3 1.5 1.8 5.4 4.6 8.2-.3-8.5 3-15.7 3.5-24.6-3.4 2.8-1.6 6.2-4.5 7.7-1.3-8.4.6-16.7.3-25.6-1.9 1.7-1.3 3.2-1.9 4.8-.3-1.9 0-3.6-2.1-5-2.3 11.2.5 22.5-3.5 33.9-.9-2.5 0-4.7-1.3-6.4-2.3 1.7-1.1 4.7-3.2 6.6-1.1-1-2.6.3-3.8-.3Zm-11.4-145.3c3.8 8.5 7.7 19.1 9.1 28.4 1.2-4.2 3.9-7.6 4.5-12.2-1.6 0-2.6 2-4.8.8-3-6.7 4.5-11.2 5.1-17.6-6.6 7-8 4.9-12.1-2.4-4.2-7.5-7.9-14.2-14.8-19.5 3.2 8.1 9.4 14.7 13 22.6Zm3.3 68.6c-3 1-9.5 7.5-8.4 10 3.1 7.5 12.6-2.7 8.4-10Zm-20.5 63.6c-5.6 1-3.6 17.8-5 22.7-3.2 11.3-8.9 17.6-8.5 30 4.4-3.2 1.8-8.4 4.2-12 1.4 1.6-.6 4.4 1.5 6.4 3.7-4.1 1.6-8.5.9-12.7 2.4 0 1.6 2.5 3.6 2.6 2.7-3.6 8-4.9 9.9-9.8.7 1.6-.6 3.7 1.9 5.3 1.8-9.5 2.3-21.4 6.6-30.1-.1 10-7.5 21.8.1 30.3.7-6.3 4.8-11.2 6.6-17.1 2.2-7.1.7-14.3 1.8-21.5-3.3 3.8-1.9 8.6-3.7 12.7-.2-3.8-2.9-7-2.2-10.9q-2.6 1.4-4.2-1.4c-1.8 1.4-5.6 10.3-5.7 12.4-.1 2 2.3 3 2.2 5.2 0 2.6-1.7 4.5-2.5 6.9v-6.6c-1.2 3.6-2 5.9-3.1 9.2.7-8.4-3.9-14.4-4.5-21.4Zm-10.7 2.2c4.5-3 .3-14.5 9.5-9.3-6.1-9-13 2.6-9.5 9.3Zm-12.7 20.6c.9 3.9-1.4 8.5 2 13 1.1-4.1 2.1-9.8 1.8-14.2 0-1.2-2.6-8.2-2.3-8.8 1.6-3.3 3.8-.7 5.7-3.2 1.6-2 2.3-7.6 2.5-10-1.6-.9-3-1.6-5.9-3.3-2.2 7.3-4.2 14.2-6.3 21.3-2.8-2.3.8-5.3-1.1-7.5-4.3 1.7-7.2 19.6-4.2 26 2.1-3.5.7-7.8 2.7-11.8 1 3.8-.4 7.4 1.2 11.3 3.3-4.3 2.4-9.1 3.9-13Zm2.4 120.7c-4 5.2-1.9 11.3-3.7 17.9 6.6-5.9 3.8-12.1 3.7-17.9Zm-.1 20.2c-1.9 1.1-4.2 9.1-.5 9.3 3.9.2 2-7.5.5-9.3Zm6.1-129c3.3-2.1 1-5.9 2.6-8.5.7.3 1.4.5 2.1.8 3.4-1.9-.4-18.4-1-20.8-3 6-10.7 23-3.7 28.5Zm5.5 84.7c3.1-3.6 1.9-13.3-2.5-18.7-2.5 5.6 3.9 11-.8 16 1 1 1.7 2.4 3.3 2.7Zm4.9 16.6c-.4-5.9-6.9 1.2-5 4.2 1.9 2.9 4.8-3.8 5-4.2Zm15.5-42.5q-3.4-3.3-6.5-1.7c2.1 4.7 2.6 4.8 6.5 1.7Zm-.1 8.6c-3 7.4 4.1 8.7 5.6 13.5 6.6-5.8-1.5-7.3-5.6-13.5Zm22.7-27.4c.6-5.5 1.1-18.2-6.3-18.3 8.8-5.5.6-9.8.8-14.7-5.4 2.7-4.5-4.2-7.6-4.8-1.8 1.1.9 3.8-1.7 4.7-2.2-1.8-1.6-5.6-5.3-6.7-.3 3-3.1 3.6-4.9 5.1-1.6-.9-3-1.8-4.4-2.6-4.1 3.6-6.4 3.6-6.2 9.5.2 5.5 4.9 12.5 9.9 14.4-2.5 5.1 5.1 6.6 8.9 8.2-.9 10-8.7 5.9-16.8 4.7 0-2.8 3.8-3.4 2.9-6.3-2-1.1-3 2.1-5.3.9 3.9-4.9-2-9.4-.6-14.6-3.1 2.5-6.2 5-9.5 7.7 6.2 6.3-3.9 16.1-4.4 24.2 5.5-2.8 2.7-2.4 4.8-7.4.8-2 1.8-8 4.8-8.4 7.8-1.1-.6 6.9 0 9.7 2.4.9 4.6-1.4 7.1-1.3 2.8 0 7.7.8 10.6 1.2 8.1 1.1 4.2 7.2 9.7 8.8 6.1 1.7 13-9.4 13.6-14.1Zm56.3 11.9q2.9 5.1 11.1 3.9c.5 3.1-6.5 3.9.5 4.8 3-3.3 8-.2 11.2-3.9-1.5-4.2 3.7-9.2-1.2-13.9-2.7 1.2-3.3 5.3-7 5.4-.3-5.5 5.3-9.4 3.7-15.1-1.3-4.8-5-5.1-9-7.1-1.2-6.8-4-9-10.2-6.1-1.9-8.3-4.9-16 2.2-23.6-3.5-1.1-3.4 1.7-4.6 3-4.8-4.1-6.7 4.4-10.1 2.5-3.9 11.1 4.4 23.8-6 32.3.1-5.4 3.2-9 4-14.1-3.4 2.6-3.1 6.8-6 8.6-5-1.6-1.6-6.6-3.5-9.4-5.8-.4-1.2 5-3.9 6.4-9.2-4.1-5-5.8-3.9-13.1.6-3.9.4-9.9-.5-14.3-4.5 1-3.1 3.3-5.4 6.1.1-.1-5.8 8.2-5.4 7.5-1.5 3.4-.2 14-3.7 15.9 1.9 1 3.4 1.7 4.7 2.4-4.5 2.7-6.1 7.9-10 11.6 3.6.3.6 5.8 4.9 5-.2 3.1-3.1 2.2-4.2 4.8-1.3 3.2.3 5-.2 8.3-.8 5.2-5.1 11.2 4.2 10.1-4.3 7.9-2.3 16.9-2.6 25.5-.2 6-2.2 10.7-2.7 16.3-.9 9.6-3.7 27.8 5.3 33.8 1.7 0 1.1-2.4 3-2.7 7.7 11.8-5.7 16.5-17.5 19.1 3.1-.5 6-.9 7.8-1.3 8.3-2 10.1-2.3 16.7 2.8 1.5-11-2.3-24.8-3-35.9-.8-12.5-1.4-24.9-1.7-37.4-.2-7-.3-14-.3-21 0-4.1-1.9-12.5-.1-15.8 3-5.8-.1-2.2 5.4-3.5 3.8-.9 7.1 3.8 7.9-3.4 7.9 1.6 6.9 8.9 9.6 13.8-2.2-1.1-3.1-5.1-6.7-2.6-.5 2.8 2.7 6.8 5.4 7.1 6.5.7 3.5-5.6 4-8.6.4-2.5-1.6-10.7 3.3-11.4 5.1-.7 3.9 3.8 3.7 7.7 3.8 1.2 7.4 4.3 10.9-.7Zm-6.6-98.4c-2 8.8-2.5 18.2-3.7 27.7 6.3-1 6.1-23.1 3.7-27.7Zm54.4 111.1c-3.8-3.8-9.7 3.2-12.8 4 .7 0 19.6 2.9 12.8-4Zm.4-12.5c2.9-2 11.2-1.4 3.9-8.2-1.3 2.8-4.5 4-3.9 8.2Zm-19-7.4c3.2 3.9-.6 10.4 5.8 14 4.7 2.6 29.2.7 19.8-8.6.5 6-1.9 3.1-4.8 3.9-1.2.4-10.8.1-12-1.5.3-2.7 3.3-1.8 4.2-3.9-1.9-1.2-.4-3.5-1.4-5.3-2.8 1-2.2 4.6-5 5.7-.4-4.1-2.9-5-6.7-4.3ZM728.3 637c-.8 8.7-10.4 8.9-14.8 14.7 8.2.5 13.1-5.3 19.7-9.4-.7 3.9-8.5 6.9-6.8 11.6 1.9 1 4.1 0 6 .3 1.2 1.7-1.5 3.4.2 5.2 3.1-1.1 3.4-4.7 5.8-6.3 1.5.8 0 2.5 1.3 3.1q16.2-1.8 16.8-6.3c-5.5 0-17.4 7-12-4.7 2.6 1.7 10-3.5 11.7-6-3.6-3.9-5.7-1-7.8 1.4-4.8-1.8-.3-4.4-.9-6.8-3.6 0-5 1.8-4.9 5.8-4-3-11.2 1.7-14.4-2.7Zm13.8-60.9c-3.8 2.5-5.3-1.3-8.2-2.8 5-2.4 3.1-6.5 3.8-10.1-2.1 0-.8 2.3-2.7 2.2.4-3.2-.6-6.1-1.1-8.7-1.2 0-13.9 2.6-14.6 3.7-2.7 4.2 2.9 6.1 5.1 9 3.5 4.6 6.4 10.4 9.3 15.5 2.1 3.6 3.9 14.8 9 15.1.7-2.9.3-21-.7-23.9Zm-17.2-35.3c2.5-.8 3.7 0 4.8 2.1.2-5-1.1-9-3.3-13.5-2.7 4.2.8 7.8-1.5 11.4Zm5.7-8.1c4.6-1.8 3.5-4.4 1.6-7.6-2.2 2.4-4.4 4.5-1.6 7.6Zm16.9 47.4c-.5 3.5-1.3 6.8.9 10.5 3-4.1 2.7-7.6-.9-10.5Zm5.1-99c0 1.7.5 3.2 1.5 4.6 1-.4 1.9-1 2.7-1.8 1.1 1.4 2.3 2.9 3.5 4.4 7.6-3.8-.3-7.2-2.2-8.6 2.9-2.9 5.6-5.1 9.6-4.5-.1-2.2-1.1-3.4-2.4-4.8-3.9 4.7-3.6-3-6.6-1.6 2-2.6 1.2-4.8.7-7.3-4 1.6-5.7 4.8-7.3 8.2-3-2.2-1.8-5.7-3.8-9.7-.7 7.7-6.4 9-10.8 11.8.6-3.8-1.9-2.4-3.3-1.3-2.5 1.9-.5 5.3-.6 7.8-5.1 0-2.9-7.5-8.1-7.1.8 6.6-8 5.5-9.8 11.1-3.3-2.4-6 .6-8.4 9 5.8-1 28.4-9.4 30.2-2.1 2.1-2.1 1.7-5.8 4.5-7.2 3.5-1.7 7.6 2.3 10.6-.9Zm10.4 58.1c-1.5 1.2 0 2.9-.8 4.2l-6.6 1.8c-.3 2.8-6.3 12.9 0 11.8-.5 3.4-3 6.1-2 10.2 4.2-4.7 4.3-10.8 7.6-15.3-.5 5.3-3.9 11.9-2 17.2 2-1.8 1.1-4.7 3.8-6.2.7 1.9-1.1 4 .5 5.7 7.2-.1 5.7-22.1-.6-29.4Zm10.9-124.9c-8-11.1-18.9-17.4-28.3-26.7-3.2-3.1-4.6-8.6-9.3-9.7-5.9-1.4 2.4 5.2 3.7 5.8-4.9-.2-9-2.8-13.8-2.9 18.9 6.7 32.5 21.3 47.7 33.5Zm9.2 58c-2.8 4.2-10.6 1.8-10.9 9.2 5.6 1.6 13.5-3.5 10.9-9.2Zm8.2 67.9c-.6-6.4-1.4-12.4-4.8-18.9-1.9 3.5 1.4 7.2-3.7 8.2 3.8 1.8 1 12.9 8.4 10.7Zm5.5-42.7c-4.8 0-5.5 3.8-8.3 5.7 5.2 1.8 6.5-1.3 8.3-5.7Zm17.4 11.8c-2 2.7-3.5 5.3-3.3 8.4 1.7.9 2.3-.2 3-.9.8-2.3 3.6-4.5.3-7.5Zm1.9-32.4c-4.9 6.5-6.2 15-13.6 19.5 3.1.2 4.3-2.7 6.7-3.1-2 3.2 2.3 6.1.8 9.7-1.6 3.8-5.2 3.6-8.5 4.5-2.5 2.7 1.5 2.9-.2 5-2.7-1.1-5.1-2.4-5.6-6.6-1.9 2.9-3 5-3 7.5 9.6 5.6-3.2 9.6 1.8 12.8 2.9 0 1.7-3.3 3.4-4.5 3.8-2.5 2.7 0 5.3-1 .9-.3 3.6 3.1 4.4-.2.4-1.9-2.8-2.7-2.5-4.9 5.3 0 8.5-11 9.4-15.7.7-3.5-.5-7.3 0-11 .6-4.1 4.6-8 1.5-12.2Zm17.1-45.8c-6.6 2.3-4.8 6.6-4.6 10.7.1 3.4 0 12.3 2.7 15.3.3-8.5.6-17 1.9-26Zm13.9 168.3c-.6 0-1.2-.1-1.8-.2v13.6c1.7-4.4 2.3-8.9 1.8-13.5Zm33.3-131c-.1 1.4 4.3 9.9 5.3 10.1.9-7.1 0-8.6-5.3-10.1Zm-6.1-80.2c1.6 1.8 3 3.2 4.6 4.9 5.1-7.2 4.9-7.9-3.7-12.4 2.3 3.2 1.3 5.6-.9 7.5Zm-9.8-9.1c1.5 3.6 3.7 4.5 7.6 2.6-2.2-3-4.1-4.9-7.6-2.6Zm-22.2 25.4c.9 10.7 10.8 13.8 14.6 22.9 5.1-2.6 1.4-4.8 0-6.7 2.4-2.8 3.6-.2 5.4.9 10.6-10.9-10-12.6-11.6-6.2-10.5-3.8.7-6.7 3.4-7.4 5.3-1.3 15.8-1.8 19.7-6 2.4-2.5 4.3-12.8-2.2-11.6-3.4.6-3.9 8.7-6.8 11.4-1.2-5.2-2.7-9.8-8.6-9.6-.9 1.8 2.5 1.4 1.3 3.4-1.5 0-3.1.2-4.6.3-1.4 2.2-1 4.6-1.6 7.1-3.9-2.8-5.8 1.8-9 1.6Zm-3-43.8c-.8 1.2-1.5 2.3-2.6 4 9.4 1 10.4-23.8 10.4-30.5-1.6 4.4-3.6 11.4-5.8 15.3-3.5 6.2-7.1 3.9-2 11.1Zm5.9 122.9c-5.5.7-9.8 5-8.1 7.6 1.3.3 2.6.6 4 .9 1.3-2.9 3.5-5 4.1-8.5Zm1.3 18.9c3.3-.6 5.6-4.8 1.1-5.7-3.9-.8-5.3 4.7-1.1 5.7Zm3.2 38.6c-5.2-2-1.8 5.8 1.6 6.8 3.7-1.1.6-6-1.6-6.8Zm10.4-39.2c-2.1 3-3 7.8-6.3 6.2-6.3-3.1-6.4 2.3-9.7 4.7 9 2.2 16.7-3.2 16-10.9Zm1.2-30.8c-.3 3.6-3.2 5.8-3.1 9.3 5.2-1.5 6.1-4 3.1-9.3Zm7.5-7.9c-2.2 3.6-5.4 7-1.9 11.6 1.1-3.8 2.6-7.5 1.9-11.6Zm5.9-17.7c-3.4 3.8-3.6 7.9-4.7 11.6 3.1-2.9 5.3-6.2 4.7-11.6Zm.6 72.2c-.2-4.8 5.9-8.9 1.3-14.4-4.1 4.6-2.4 9.5-1.3 14.4Zm19.1 201.6c-1-4.2-4.6-7.4-4.2-12.4 4.1-1.6 4.1 1.3 2.7-3.7-.7-2.6-5.8-7.8-7.7-10.6-3.5-5.2-3.8-6.9-5.2-13.3-.5-2.5-2.8-12.3-5.4-13.3-7.2-2.7-4.3 24-3.8 28.4.8 6.5-.5 13 0 19 .5 5.8 3.8 8.1 9 11.3 2.9-5-4.5-8.8-2.1-14.5 2.5-.6 4.5 1.1 6.9.7-3.7-2.2-4.8-6.1-6.4-9.5 13.2-5 3.6 15.3 9.9 17.1-.3-2.5-2.4-4.9 1.6-7.1-1.1 4.4 2.7 5.3 4.5 7.8Zm4.9-269.5c-2.9-5.6-2.4-10.5-10.5-11.1.2 1.8 2.9 5 1.3 6.7-2 2.2-1.3-.2-3.1.5-.6 2.6.9 8 4 9 3.7 1.1 2.6-1.3 5.6-2.1 3 2.1 1.1 6 3.2 8.2 2.2.3 1-1.7 2.4-2 1.3-.2 2.1 2 3.6 1.8.8-2.5-5.1-8.4-6.4-11Zm16.8 137.6c-1.1-4.5-3.5-6.3-8.1-6.9 1.8 4 3.8 6.3 8.1 6.9Zm-.1-16.5c-2 2.4-4.4-.8-6.9.7.4 2.2.8 4.3 1.2 6.5 6.9-1.2 7.6-2.1 5.7-7.1Zm3.5-73.9c-5.8 6.4-5.9 6.7-2.2 9.9-2-4.5 3.1-5.6 2.2-9.9Zm13.5 52.8c-1.2-2.6-5.6-.2-6.7 1.3.2 1.5.8 2.6 2.6 3.5 1-2.1 5.7-1.4 4.1-4.8Zm30-51.2c3.5-3.2 4.7-6.9 3.2-12.1-3.3 3.9-2.6 8.2-3.2 12.1Zm-3.7 2.9c1.1-3.8 1.8-6.4 2.5-8.9-3.4-5.2-3 7.3-2.5 8.9Zm-11.5-9.3c0 4 3.9 2.2 5.6 4 1.2-3.7.2-6.7-.7-9.8-3.6.6-5 2.7-4.9 5.9Zm-9.8 29.6c-.6-3.7 1.4-8.2-3.3-12-.8 5.2-.5 9.1 3.3 12Zm6.6-24.4c2.5-5.3-2.3-10.1-.8-15.9-9 1.9-3 12.6.8 15.9Zm34.9 48.3c-1.4-4-3.8-7.1-7.1-9.3-2.2 1.3-1 4.2-4 4.6-4.3-3.5-7.7-11-9.3-16-1.4-4.5-.9-1.2-1.2-5.7-.3-4.1 2.1-4.3.7-9.2-3 2.9-.1 7.3-3.5 10.1-.8-.8-12.2-6.1-12.9-5.9-2.1.8-1.9 6.8-1 8.8 2.1-1.4 6.1-3 8.7-1.4 1.6 1 6.3 15.9 6.8 18.8-2.6.7-15.3-11.4-10.4 1.2 2.1.8 1.4-1.9 3-1.4 1 3.6 1.4 6.7-4.1 6 .4 4.4 2 7.8 5.4 10.3 1.6-1.9-.8-4.7 2-5.9 2.2 2.5 1.7 7.8 7.1 7.4.8-3.1-2.7-5.7.2-9.9.4 12.6 11.6 18.1 14.6 28.3.7-1 0-2.8 2-3.2 7.9 4.6-1.3-1.5 4.6-5.5 3.5-2.4 2.5 12.2 7.6 13.2 2.4-4.4 1.7-38.4-9.3-35.2Zm11.5.8c-2.1 4.1-2.6 7.5-.4 12.3 2.2-4.5 3-7.9.4-12.3Zm8.7 2c-1 2.4-1.8 4.5-2.6 6.4-1.2 0-.5-1.7-1.9-1.4-.2 2.1-.3 4.2-.5 6.5 1.5.5 2.8.9 4.5 1.4.3-4.3 6.1-7.8.5-12.9Zm2.1-4c1.9-3.1 2.1-6-.3-9.6-2.1 3.7-.8 6.6.3 9.6Zm5.8 95.4c-2.2-4.1 0-9.2-3.1-13.9q-3.4 9.4 3.1 13.9Zm5.3-96.9c-1.3 1.6-2.7 3.2-5 6 .5-5.7 5-10.7-1.8-14-2.2 5 0 9.8-.7 14.6-.5 3.8-4.2 10.6.3 13.8 2.3-2.6.8-6 2.5-9 1 3.7 2.4 2.7 3.6-.2.5 5 .9 9.3 4 14.1 2.2-5.8-1.3-8.9-1.2-14.3.2-5.8 4.3-6.9-1.8-11.1Zm-3.6-9.5c1.3-3.5.2-6.4-.8-9.5-1.1 1.6-3.3 2.1-3.6 4.3 1.5 1.4 2 3.8 4.4 5.1Zm4.4-28.2c-2.3-1.8-18.7-8.6-19.3-9.8-.4 5.6.8 12.3 2.4 13.3 2-3.3-1.1-7.6 5.2-7.2 4.9.4 5.3 8.9 11.7 3.7Zm-508.8-169c1-.3 1.9-.6 2.3-1.1 1.3-1.3 2.2-4.6 3.1-7.6-1.1 1.3-2.2 2.7-3.3 4-1.3 1.6-2 3.2-2.2 4.7Zm191 203.8c-.3 3.7-1.7 6.7-2.9 9.8 5-2.5 6.1-5.5 2.9-9.8Zm153 123.2c11.9 0-9.9-24.3-13.2-28.3-15.7 5.1 4.1 28.3 13.2 28.3Zm-573.2 40.5c2.8-3.7 1-6.5-.4-9.3-1.3 3-.3 5.8.4 9.3Zm104-102.2c0-.6 4.3-8.5 4.8-8.9 4.9-4 1.3-.9 5.7.5-2.3-6.4-.4-11 5.3-13.8-8.6-6-16.5 16.3-15.7 22.1Zm-121 49.2c-15.4 8.2 6.4 22.3 6.2 6.9-3.8-.7-5.8-3.1-6.2-6.9Zm219.8 87c0 .5-.5.9-1 1.3-13.9.4-27.4.4-41.1.4.6-2.7.2-4.5-1.8-6.4-.2 9.6-22.5 2.7-27.2 2.9-5.2.1-9.7 2.7-15.4 2.4-7.7-.3-15-1.3-22.8-1-11.9.5-22.9-1-34-.3-8.3.5-19.5 2-17.6-8.3-5.6 13.7-35.9 6.6-47.2 6.2-8.5-.3-16.2.4-24.5-1.6-7.8-1.8-16.1-4.6-24.3-4.4-4.7.1-8.1 2.3-12 3-6.5 1.3-14-.4-20.7-1.1-7.3-.7-14.1 2-21.4 2.2-8.7.3-16-2.8-24.2-5.1 2.4-5.9-6-14 6.2-18.4-3.6-.5-5.6-.8-7.4-1-1.3-2.4-.1-10.1-.2-13.2-.3-6.1-.5-7.1-2.3-13.1-.5-1.8-3.1-12.6 2.1-11.7 3.3.5 1.7 9.7 3.4 12.3 2.5-2.6 3.5-5.5 5-8.7 3.4 5.7 4.5 0 7.9 2 1.5.9 3.2 4.6 5.3 5.2 1.8-3.1 4.6-4.7 8.7-4.3-.7-5.1-6.5-4.2-7.6-7.8-2.3 0-3.8 2.1-6.1 1.9-2.1-.1-5.9-3.7-8-4.3 1.9-6.3 9.8 2.8 11-4.4 3-.7 6 2.8 9.3-.3-.4-3.7-1.4-8.1 3.5-10.7-.9 10.8 1.9 21.5-.3 32.2 5.9-3.9 9.5 1.6 9.6 6.6 0 1.5-2.9 4-3.3 5.7-.8 3.8.9 7.5-1.1 11.1 5.3-.9 9.6 5.9 13.7 3.2-4.5-5.4 2.4-4.9 3.9-8.5 2.3-5.2.7-14 .6-19.5-.3-11-5.3-28.5-1.9-38.6 2-5.9 0-5 6-2.9 1.9.6 5.7 2.6 6.7 4.3 1.5 2.7-.5 5.9.4 8.8 1 3.7 4 5.6 4.3 10.4 4.4-2.5 3.1-6.5 3.6-10.6 3.8 7.9 9.4 3.1 14 3.8 2.7-6.4-8.4-7.4-4.7-13.9-9.5-6.6-8.2 1.6-7.2 7.3-7.8-2.3-5.9-6.5-5.1-12.8.3-2.5.6-5.9 1-8.1.7-3.8.5-3.3 2.5-6.5 1.1-1.7 4.6-.1 5.3-2.8.9-3-3.2-3.9-4.1-6.3-2.1-6 1.1-13-8.9-11.8-1.4-10.6-19 2.1-16.5-11.2 1.4-1.4 3.3.8 5.2-1.4-6.1-4.7-11.5-10.1-1.5-16.1-1.4-2.3-3.1 0-4.9-1.4.5-6.5-1.8-13.5-2.4-20-.8-9.2-1.5-18.4-2.2-27.6-.5-7-2.8-16.3-.3-23 2-5.5 11.2-9.2 5.6-15.3 2.2 1.7 3.8 4.3 6.7 2.1-.7-2.9-2.4-6-5-7.6-.9-.6-8-1.2-8-1.3-6.6-7 6-6.9 8.3-10.5-3.5-2.7-6.5.9-9.8.3-1.2-3.2 1.4-6.7 4.5-7.6 5.3-1.5 6.1 2.8 8.9 6.5 2.2 3 5 5.9 7.9 8 1.5-.9 2.9-.9 4.3-.1.5 1.3 1.2 2.5 2.2 3.5 2.1-4.3 7.8-6.3 6.5-12.9 7.8 3.6 12.5 10.5 22.2 9.5 6.2-.7 17.5-7.3 20.4-13.3-8.2-.4-13.2-8.4-21.3-5.6-1-3 1.9-2.6 2-4.1-2.8-3.6-7.7.4-10.7-3.5 1.8-2 2.4-3.8 4.7-5.1 3.1-1.7 3.8 2.5 7.2-.8 3.6 1.6 11.5 13.1 14.8 6 8.8 4.6 11.7 16.3 22.1 9.6 2.9-8.6-7.1-11.3-7.4-18.9-2.8-.2-5.6-2.7-9.9-2.1 2.1-2.4 2.4-5.2 5.4-5.6 1.8 1 .2 3.9 3.4 4.6 1.1-3.7-1.4-6.4-2.4-9.8-3.7 2.2-7.9 0-10.9 3.1-1.9-2.1 1.2-3.1.4-5.1-3.8 2.4-3.8-4-8.8-1.9 5.3-6.7 5.6-11.3-2.3-13.5-2.4 1.6-1.7 5-3.9 7.6-.7-2.5 1.7-4.6 0-6.6-2.2-1-1.9 2.7-3.8 2.2-.9-6.7 9.4-3.7 4.5-10.7-1.8 1.7-7 3.1-9.2 3.7 2.3-13.9-9.7-2.2-13.8-.8-1-2.3 1.6-3.8.5-5.7 2.4-.7 2.4 2.5 4.8 1.9.9-5.6 1.8-13.6-4.5-14.3-1.9 2.8 1.9 5.7-1.2 8.7-1.3-4.7-2.6-9.1-3.8-13.4 2-1.4 3.1.5 4.6.4 1.6-4.8.8-5.7-4.7-4.6-2.9-3.3-2-10-8.5-10.9.5-2.1 13.4-7.4 2.4-9 11.8-8.5 24.4-14.8 37.5-20.7 1.6 3.4 0 7.1 2.1 11.1.6-3 1-12.3 3.5-14.4 3.5-2.9 17.7-1 21.8-1.1 14.5-.3 22.2 1.8 34.9 7.3-5.3.2-10.8-.8-15.3 3.6 3.2 2.2 7 2.1 11.7 3.3-7.6 3.1-11.4-3-15.9 3.6-4.1 5.9-2.8 17.3-5.9 24.1-2.7.5-4.8-1.5-7.3-.6-.2-1.5-.4-2.6-.6-3.5-5.8-.9-7.7 2.6-8.2 8.1-2.8-3.1-.5-5.3-.9-7.8-1.7 1.2-1.4 4.4-4.1 4.2-2.7-6.9-1-14.2-2-21.2.2 3.7-5.9 6.5-1.3 10.5-2.4 4.5-7.6 4.4-11.2 7.3-4.3 3.4-4 6.8-6 11.6-1.9-5 2.4-9.4.6-14 1.2 0 5.9-.9 6.2-2.6.4-2.4-3.2-1.2-3.6-2.5-1.5-4.7-4.2-11-2.7-16.7-2.8 1.5-4.2-.4-6-2.7-2.8 6.2-2.2 12.4-3.6 18 0-4.2 1.1-10.9-4.1-12.4-6.3-1.8-5.4 3.6-5.7 7.4-.5 6.9-.6 21.8 5.5 26.5 3.3 2.5 9.8 2.6 13.7 4 5.7 2.1 9.1 3.5 15 4.3 11.3 1.5 27.7 11 38.6 6.8 2.5.7 1.7 5.7 5.7 4.7.9-2.1-1.6-3-.9-5.4 4.2 1 8.5-2 12.6.6 5.1-2.6-3-20 6.7-20.9 5.3-.5 7.7 10.3 13.5 8.8 1.7-8.9-14.3-17.7-21.6-15.8-10.7 2.7-.2 12.7-2 21.6-1.7-1.9-3.1-3.5-4.4-5-6.5 2.9-15.5-5.5-13-13.7 4-.6 3.9 3.1 5.6 5.5 10-6.1.1-15.5 1.4-23 2.6-.7 4.2 1.4 6.6 1.8 1.3-3.3 3.5-3.2 6-1.2 0 1-1.9.9-1.1 2.7 5.8-1.4 12.4 7.9 18.8 9.1-6 1.9-2.6 7.7 2.3 6.5 4.4-1.1.8-3.9 2.8-6.5 2.8 1.6 3.1 5.4 5.7 7.2 3.9-7 2.9-16.6 11.8-20.3 8.9 10 0 25 5.8 36.3 3-1.2 2.5-3.6 2.6-6.2 4.6 1.8 2.9 5.9 4 9-.9-.3-1.7-.8-2.3-1.5-4-1.5 3.1 6.4 3.1 6.4 2.1-3.1 5.4-4.4 7.5-6.8 2.4 0 1.4 2.7 3.1 3.1 1.9-1.8 2.8-4.3 4.6-6.4-.3 1.7-.6 3.5-.9 5.5q4.7-5.1-4.7-35.7c4.9-2.2 9.2 16.8 10.5 20.7 2.6 7.6 2.3 12.8 7.8 17.4 1.1 2-1.3 3.1-.9 4.8 6.7 1.4 12.4-3.1 13.3-10.6-1.2-1.8-2.8.7-4.1-.4-1.6-5.5 5.8-7.7 4.7-13.3-3.2.6-3.4 5-6.7 5.3-5.4-2.2 2-19.3 2.9-22.9 1.5-5.8.1-13.6-.8-19.5-.7-4.6-4.9-13-3.4-17.3 3.4 5.9 6.5 12.3 7.5 19.1.8 5.8-1.9 13.4 3.2 17.8 1.8-5.9 3.6-11.4 5.4-17.2 1.5 1.4.3 4 2.4 4.9 2.3-.6 1-4 4.4-4.7-3.8 8.9-4.6 39.3 8.4 41.3-.3 2.4-2.6 4.2-2.3 7.2 2.3.2 4.2-4.4 6.9-.5-1.2.6-3.1 7.2-3.8 8.5-1.5 2.7-6.1-.4-4.4 5.3 2.3.3 3.7 3.7 7.4 2.9-3.2 4.9-1 6.8 3 7.5.4.4.8.7 1.2.9 0 2.4-2.5 3.8-1.6 6.5 2.1-1 3.4-2.7 4.4-4.5.4.5.9.9 1.4 1.2l-.3.3c-5.9 11.2-10.9 22.5-7.4 35.7-.1.3-.2.5-.4.8h.6c.3 1.2.6 2.1 1 2.7.4 1.5 1.3 2.8 2.4 3.8.3.6.7 1.2 1.1 1.7-.9.7-1.7 1.6-2.2 2.6-4.1-.9-8.2-1.6-12.4-.8-3.4.6-4.7 2.8-7.2 3.4-4.2 1.1-4.4.9-9-.4-7.7-2.2-16.6-6.4-22.3-.4 6.5.5 13.5-1.2 18.5 5.3-5.6 4-14.1 2.3-17.8 9.4 2.9 2.5 10.1-3.7 12.8-4.5 5.1-1.6 12 .8 14.4-5.1 4.2 6.6 11.5 4.5 18.3 1.9-.5 1.4-1.2 3.1-.7 3.6l.6.6c-.7 2.4-.9 4.8-.6 7.2.1.8.2 1.6.2 2.4-.2.8-.5 1.7-.8 2.5-.2 0-.5-.2-.7-.3-.1.3-.2.6-.3.8-.4-.8-.6-1.7-1.8-1.9-2.9 2.7-1.9 4.8 0 6.7-.8 2.1-1.6 4.1-2.3 6.2 0 0 .2.2.4.3-1.3 3.7-2.4 7.5-3.3 11.3-.5.3-1 .6-1.7.8v6.1c-2.2 9.2-4.5 18.4-6.5 27.7h-.6c-.5 2.2-1.1 4.3-1.6 6.5-1.8 0-2.7 1.3-3.5 2.9.5 1.1 1.3 1.8 2.2 2.4-1 3.9-2 7.7-3 11.6-1.4 1.6-2.3 3.7-2.6 6-.7 5.8-1.7 11.7-2.8 17.5.2-6.9 0-13.6-1.1-20.3-3.4-.3-4.3 6.6-7.9 1.6.3-2.5 2.8-4.3 2.7-7.1-2.1-1.1-4.1-.8-5.8-.6.5-7.8-5.1-4.1-8.3-4.3-2.3-2.4 1.6-5.5-3.6-4-3.2.9-4.9 7.7-4.1 10.6q-3.3-1.7-3.3-6.6c-2.5 2-5.2 3-8.3 2.2-.3 2.9 2.6 5.7-.5 8.2-3.4-5.9-2.4-11.1 2.5-12.8-.6-1.8-1.3-3.6-1.9-5.3-2.5-.3-2.4 2.9-4.5 2.8-4.1-8.9-11.9-14-19.4-19.9 3.4 6.9 4 14.5 5.3 21.9.3 1.9 2.5 7.7 2 9.9-.6 2.7-2.5 2.9-3.7 5.1-5.8 11-14.2 14.8-15.2 28.4-1.3 17.1-.7 34.4-1.3 51.5-.6 15.8-2.6 34.9 4.1 49.7 3.7-3 7.3-3.1 9.5-7.8 2.1-4.4.4-12.3.2-17-.5-11.8-1.2-23.7-1.7-35.5-.6-13 1-26 .9-39 0-9.5-1.6-18.3 5.6-25.8-.4 2.4-.7 4.1-1 5.9 5.1 1.3 5.6 11 6.9 15 1.9 5.7 2.4 1.8 2.6 7.8.1 3.6-5.4 4-2.1 8.2-3.4 5-6.9 3.4-5.6 9.9.5 2.6 4.3 8 6.9 8.7 5.2 1.2 5.5-5.9 10.1-7 5-1.3 9.4 5.9 14.7 1.4 1.2-2.9-2.4-1.9-1.7-4.7 4 3 6.1-1.7 9.4-2.2 3.2-5.5 6.2-11.4 12.9-12-.3.9-.6 1.9-.9 2.8-4.1 2.2-8.5 8.3-11.9 9.3 3.5 8.8 2.4 10.7-2.7 19 3.3 6.4 14.7 1.5 18.2-3.1.5 4.4.9 8.7 1.1 13.1.1 1.9.3 3.7.8 5.4-1.1 2.6-1.5 5.2-1.6 8.2-.2 3.8-.7 7.6-1.1 11.4 2.7.2 4.5-.4 5.6-1.7v.7c.1 3.6 2.1 5.9 4.7 7.9.1.3.3.5.4.8-6.6-1.2-21.2-14.8-27.9-6.5-2.5 3.1 0 15.6 2.6 18.1 1.8 1.7 6.4 2.2 9.2 3.6.1-6.2-7.9-11.9-.8-16.7.6 2.1 3.1 1.5 4.3 3.5-6 4.1-1.8 4.7-.2 8.5.2.4 2.2 6.1 1.5 5.6 6.2 4.2 7-2 9.2-6.3 1.1-2.2 2.2-4.2 3.3-6 .5 1.8 1.1 3.6 1.8 5.5.6-2.4 1.1-4.8 1.4-7.2.6.3 1.2.6 1.7 1 .8 2.3 1.8 4.3 3.1 6-.3-.2-.5-.4-.7-.6-.9 3.1-3.3 4.6-5.2 7 2.5 1.5 8.6 5.9 11.2 1.9 1-1.4.3-2.9-.8-4.3.8.5 1.7 1 2.7 1.4-.3 1.4-.7 2.9-1 4.3.8.2 1.7.4 2.5.6.4-1.3.8-2.6 1.2-4 1.2.4 2.5.7 3.7.9.6 1.1 1.5 2.2 3 3.2 0-.9 0-1.8.1-2.6.7.1 1.5.2 2.2.4.9 4.8 1.7 9.7 2.6 14.5 2-1.8 2.4-4.5 3.2-4.6 2.8-.6 4.3-1.9 5-3.6.2.2.4.4.6.5 1 .9 2.1 1.7 3.2 2.4v.6c.3 0 .6 0 .8.1v-.2c.9.4 1.7.8 2.6 1 .5 3.8 3 7.2 4.2 10.9v-6.3c2.5.9 4.7 1.7 7.7 2.8V715c.7-.8 1.4-1.7 1.8-2.8 0 2.2 0 4.5.1 6.7.3 3.1.1 7.2 2 8.9 3.5 3.1 4.7 6.5 3.9 10.5Zm-78.3-64.2c2.2-4.7 2.1-5.2-1.2-7.2-1 2.5-3 5.1 1.2 7.2Zm22.8-180c-1.5 0-2.9-.2-4.8-.3-3 8.7 8.2 8.9 4.8.3Zm-12.6 5.4c5.5.5 5.5-7 .5-7.7-.2 2.6-.3 5-.5 7.7Zm-6.1 0c4.7.3 6.6-4.6 1.3-5.6-.9 1.6-1.8 3.1-1.3 5.6Zm-5.5-46.6c5-3.3-.3-5.8-2.1-8.7-.6 1.6-4.2 12.9 2.1 8.7Zm-120.9-91.8c2.5-2.1 6.5 0 7.4-.8 1.8-1.7 2.3-13.5.6-15.6-8.1-9.7-8.6 11.8-8 16.4ZM155.7 679.7s-6.7 5.2-.8 5.3c5.4-1.3.7-4.5.8-5.3Zm18 4.2c-3.2 1.4-7.7.2-9.7 4.6 2.9-.1 10.8 0 9.7-4.6Zm49 9c-5.3-1.6-11.7 3.8-6.5 8.7 2.5-2.8 2.1-7.6 6.5-8.7ZM344 575.5c-3.6.4-15.5 8.3-12.8 12.8 4.1 6.9 11.7-10.1 12.8-12.8Zm20.8-31.6c-1.5 3.6-5.3 4.9-5.6 8.8 5.8-.6 8.6-4.3 5.6-8.8Zm15.3 1.4c-7.8-1.2-10.2 6.7-15.9 9.1 6.7 1.1 10.6-5.9 15.9-9.1Zm-2.9-3.9c-2.1-.4-5.2-2-8.8-.1 3.5 2.7 6.7.4 8.8.1Zm6.1 11.5c-2 0-3.8-.2-5.5-.3-1 2 0 3.1 1.1 4.1q3.3-1 4.4-3.9Zm2-9.3c-2.2-.4-3.7.6-5.1 1.7-.2 7.2 7 3.3 5.1-1.7Zm-7-23.5c-1.7 3.4-10.4 10-7.8 13.7 2.4 3.4 18.3-7.4 21.2-8.8-4.1-2.5-9-2.4-13.4-4.8Zm6.8-73.3c-3 2-5.4 0-7.6-1.5-4.6 4.1 22.6 19 7.6 1.5Zm-11.9 56.5c4-1.1 4.9-6.8-.3-6.3-4.6.4-3.7 5.2.3 6.3Zm-17.5 13c-2.5-2-6.2-17.8-9.8-15.8 1.5 4.8.4 11.5.1 16.3-.2 3.7-.6 4.2-1.6 8.2-3.7 15.1 6.3-.6 11-4.1-1.7 6.2-10.8 17.8.2 8.2 3.5-3 18.8-11.1 16-16.2-4.8 3.8-10.5 7.7-16 3.4Zm-1.3-88c2 1.4 17.5 7.2 13.4.2-.3-.5-12.8-.8-13.4-.2Zm-2.5 61.7c1.4 4.8-3.5 11.2 4.4 15.6-2.4-4.3 1.5-4.5 3-7.2-4.7-1-6.1-4.5-7.4-8.4Zm-13.1-109.4c3.7 4.5 8 5.8 11.4 8.6 1.1-1.7 1.9-2.9 3-4.6-4.6-1.6-8.6-3.7-14.4-4Zm-1.9 178.2c-.7 1.1-3.7 9.8-3 10.8 3.1 4 6.1-.3 7.1-3.1-6.8 0 0-5.7-4.1-7.6Zm-5.1-27.3c-1.7 3.8-1.7 3.8 4 7.2 3.6 0-2.2-6.5-4-7.1Zm4 7.3c-6.2 4.4-6.8 6.2-2.9 8.9 1.3-2.9 3.2-5.5 2.9-8.9Zm-10-20.5c.2 1.5 2.1 7.2 3.8 7.2 6.2.2 1.6-12.2-1-14.3-2.7 4.4-3.4 1.6-2.8 7.1Zm-.5-90.6c-2 4.2-1.3 8.5-1 13.7 2.6-5.1 1.8-9.4 1-13.7Zm.2-26.4c1.2-4.7.4-9.1.6-14.1-4.8 7.2-4.9 8.3-.6 14.1Zm-20.2 60.2c1.7-.7 1.8-2.6 3.8-2.4.8 1.8 2.1 3.4 4.1 4.9 7.3-10.2 11.7-12 2.4-19.9.1-1.9 3.2-1.4 2.8-4.3-3.1-1-4.6-4.5-8.2-7.8.3 7.3-4.5 12.8-1.4 19.3-2.5.3-1.9-2.9-4.4-2.7-.9 4.4.8 8.5.9 13Zm-19.3-8.9c4.4-1.6 5.2-17.5 4.5-21.5-2.1 4.8-2.8 10.2-7.8 13.4.4-4 1.3-7.6 3.9-11.4-3.3-.8-1.4-6.5-6.1-6.2-1.3 1.7.7 5.3 0 7.2-1 2.8-4.4 1.6-5.2 6.2 1.9.7 3.4-1.4 5.3.1-1.9 3.9-.9 14.5 5.3 12.2Zm-33.1 76.9c6.7-3.1 9.7-8.3 7.8-13.9-2.1 1.3-4.1 2.5-6.2 3.8 7.3 4.9-2.2 6.2-1.6 10.1Zm-.5 13.4c4-1.6 6.4-3.8 9.8-6.7-5.2.3-7.9 2.1-9.8 6.7Zm-1.7 12.4c7-1.2 13.5-.4 10.7-9-3.5 3.5-8.2 4.5-10.7 9Zm-5.6-24.4c1.7 4.1 2.3 4.2 5.5 1.7-1.2-2.1-3.1-1.8-5.5-1.7Zm-3 11c0-3.2 3.9-2 4.8-4.6-2.4-1.5-4.9-2.7-7.9-3.5-1.7 4.8.3 9.1.2 13.9 3.5-1.6 2.9-3.8 2.9-5.8Zm-30.5-34c1.7 3 5.5 1.8 8.1 3.4 3.1 2 5.3 5 8.4 7 5.3 3.3 15.7 8.6 20.3 3-11.5-12.2-29.2-18.6-36.8-13.4Zm10.1 46c-.4 2.9-1.2 5.9 1.6 8.3 3.2-4 .5-6.1-1.6-8.3Zm4.1 41.4c-3.5-3-6.2-6.7-10.8-7.4-1.5.4-1.2 2.4-2.5 2.7-1.2.3-1.9-1.9-3.4-.9.9 6.3 4.8 3 7.8 5.9 2.8 2.8 3.6 7.2 4.9 10.9 2.9-3.1-.3-4.1.8-6.9.7-1.7 2.3-2.6 3.1-4.3Zm27.4 32c6.3 1.8 20.5 10.3 26.8 9.7 2.3-.2 12.8-5.4 15-7.7 4.6-4.8 1.3-13.9-3.3-17.9 7.7-4.7-6.4-11.5-9.1-13.9-6.8-6.1-5-12.3-8.5-20.2 4.8 3.2 1.6 6.6 4.5 10.3 2.6 3.3 6.2 3 9.8 5.1.3-3.6-2-6.1-2.9-10.2 5.5 3.6 8.6 8.6 14.1 10.3 5.4-11.9-3.8-12.4-11.5-21.1.5-1.8 1-3.5 1.5-5.1 3 0 3.8 5.5 7.2 3.5 4.4-2.6.5-4.5-1.6-7.1-6.1-7.8-11.2-8.4-4.3-17.7 2.6 5.1-.8 11.9 5.4 15.2 3.7-2.8 3.7-7.3 5.9-10.8-3.1-2.3-3.7-5.4-4.5-9.1 1.9 1.2 1.8 3.6 4 3.5 2-5.1-.2-14.3-3.7-18.4-6.7-7.8-9.7 3.5-16.3-2.5-11.1 11-9.8 25.6-12.1 39.3-4.5-1.1-4.9-4.6-5.5-8.1-7.7 7.1 3.2 4.5 2 11.8-4.5-.1-9.6-.6-13.8-.9-3.1-.2-5.5-1.8-8.3-2-3.6-.2-9.1 2.6-13.1 3.4-4.4.9-14-.7-17.1 3.6 13.6 1.6 30-7.1 42.6.3 3.8 2.2 8.9 4.2 9.6 7.3.8 3.7-9.6 13.3-2.4 15.5 1.6-1.1-.7-2.4.8-3.3 3.1 1.5 6 3.7 9.8 2.3 1 2.1 2.1 4.1 2.9 5.9-6.3 3.2-12.4 3.1-18.2.3-.9-1.9.6-3.6-.2-5.5-.2-.4-7.3-5.7-7.9-6.1-.5 3 2.2 4.2 2.1 6.6-3.7.8-7.2.9-9.4-3.8-1.8 2.2-4.1 2.7-6 3.4-1.2 1.9 1.8 3.6-.5 5.4-2.4-1.1-4.9-2.2-7.8-3.5 0 5.8 7.9 8.9 4.3 14.7-2.7 1.5-3-2.1-5.5-1.6 1.6 6.6-2.1 12.7-1.4 20.5 8.2-7 17-4.1 26.8-1.4Zm-29 44.6c1.9 2 3.6 3.9 4.8 6.3.1-6.2-.7-7.4-4.8-6.3Zm12.5 21.1c-7.6-1-8.3-.5-8.1 5.4 3.4-1.9 4.6.8 6.5 2.8-.3-3.1 1.1-5.6 1.6-8.3Zm5.1-28.4c-3.8-3.6-17 1.7-8.2 7.1 1.5-1.5-.7-3.6 1.8-5 3.9 3.8 10.5 1.8 6.4-2.1Zm56.9 50c.1 4.1.3 7.9-4.6 8.5 1.2 3 3.4 3.9 5.6 4.9 3.8-8.2 3.7-10.6-1-13.4Zm-14.6-55.5c-.4 1.4 1.1 2.5-.8 4.1-4.6-3.5-7.6 1.8-12.1 3.1 2.6-3.7.5-6.5-1-9.1 3.3-5.3 6.9-3.6 10.5-.8 2.7-4.5 2.7-5-.4-8.7-2.3-2.8-6.3-5.1-9.8-3-.2 2.4 2.8 1 3 3-2.6 2.8-5.5 4.4-9.8 2.8 1.7-3.8 3.2-7.3 4.8-10.8-3-2.3-8.5 8.8-9.8 10.7-1.6-3.3-6.4-2.3-8.5-6.4-5.2 4.1-5.1-3.8-8.8-3.6-4.5 4.9 1.9 13.3-6 16.7 2.6 4.7 9.7 2.5 11.5 8 1.2 3.7-3.8 7.1-1.9 10.6 2.4.8 2-2.4 4-1.8.9.8 2.3 1.3 2.4 2.8-1.5 3.8-7.6 4.5-5.8 10.9.5 1.6 9.3 9.6 11.3 9.9.5-2.5.9-4.7 1.4-7.3-5.2-1.2-5.7-9-2.6-12.7 2.1-2.6 15.6-6 18.7-5.6 4.2.5 7 2.6 4.7 8.1-3.3 7.8-3.4-1.7-9-.4-1.4 1.5-2.2 4.4-4.9 3.9-4.1-.7-.5-3.7-3.2-5.3-3.1 0-2.5 3.7-4.6 4.3 1.3 2.9 2.7 6.1 4.9 8.5 1.4 1.5 6.2 3.4 6.8 5.3 2.1 6.8-2.8 2.7-5.8 3-3.3 3.9-3 4.5-3.4 9.1 0 1.1-.9 10.9-.3 12.2 3 6 12.9 1 10.4 10.9 4.9-2 3-5.9 3.5-9.1-2.3-1-5.1-.8-5.9-3.9 2.4-2.1 4.8-8 7.9-8.4 3.6-.5 7.9 2.9 5.9 6.6-3 .5-4.3-2.4-5.4 2.1-.2.6 4.6 10.2 5 12.1 1.5-3.9 20.9-10.7 6.4-13.9-1.2-3.6-1.4-6.8-.6-10.1-2.4-.2-2.1 3.6-4.8 2.3-2-4.1 4.8-7.4 1-11.9 3 1.4 9.2 2.8 10.1-2 .6-3.1-3.2-3.1-4-5.7.4-2 3.2-3.1 1.7-5.5-5.1-1.6-6.4 4.9-11.5 5.6 6.7-6.7-1-21.8 9.7-25 2-.6 7.2.1 9.6.3 1.8-1.9 3.6-2.3 5.4-1.2.3 1.1 1 1.9 2.1 2.4 6.2-13.8-19.3-5-22.1-7.1Zm35.4-41.1c-7.3.8-5.4 9.5-1.5 12.1 1.9-3.9 0-7.8 1.5-12.1Zm-4.3-56.6c2.5-.4 9.5-1 8.4-5.5-1.2-5-3.6.5-5-.2-3.5-1.7-4.4.3-2.8-6 1.2-4.5 8.4-10.4 12.1-12.8-2.2-9.2-11.6.3-15.7 1.3-1.4-1-.6-3.8-3.6-4.1-2.2 8.9 6.5 25.2-.6 33.4 4.2 1.9 10.3 7.2 13.9 4.6 5.9-4.3-2.5-10.1-6.7-10.8Zm9-.2c3.1.9 5.8 0 8.4 1.9-.4-4.7.4-8.4 1.3-12.7-5.7 1.6-6.9 6.2-9.8 10.8Zm60 139.2c-.5-4.6-4.4-1.1-6.9-1.9-1.1-1.3.4-3.5-1.4-4.5-1.8-.4-1.3 2.3-3.1 2.2-2.3-1.4-4.6-3.5-7.8-3.1-3.2 5.7-1.9 12.7-7 19 5.4-1.3 7.4-1.7 10.7-5.1-1-1.9-.7-3.4.7-4.7 1.6-.4 3.1-.5 4.7-.1 0 0 10.6 1.1 10.2-1.6Zm42.4 34.2c-2.8-2.4-5.4-2.8-8.4-3.6q2.6 4.1 8.4 3.6Zm-291.5-8.2c-2 .3-3.9.8-4.3 3.3 2.9 3.4 7.8-.9 4.3-3.3Zm7.5-64.1c5.3 6 7.6-7.2 4.4-10.9-3.1 2.5-8.2 6.7-4.4 10.9ZM126.2 724c.6 0 3.3 5.1 4.4-.3 0-5.4-4.6.3-4.4.3Zm297.2-80.5v-.6c-.7 0-1.4 0-2.2.3.5 1.2 1.3 2.2 2.2 3.1.1-.9 0-1.9 0-2.7Zm189.4-125.6c-1 .1-.7-.2 0 0ZM957 342.1c-.1 0-.2.1-.3.2 0-.1.1-.2.2-.3h.1Zm50 105.9h-.1.1Zm0 0h-.1l.1-.1ZM792.1 600.4v-.3l.1.1-.1.1Zm0-.3.1-.1v.3l-.1-.1Zm198.8-118.9Zm-.1 0h.1-.1Zm-732 169.5v-.2h.1Zm-.1-.1v.2l-.1-.1ZM693 550.1v-.2h.1ZM244 369.9h.2l-.1.1Zm50 5.2v.1h-.1.1Zm-49.8-5.2v.1h-.2.1Zm713.1-28.1c0 .1-.2.2-.3.3l-.1-.1c.1 0 .3-.1.4-.2Zm-663.4 33.3h.1l-.1.1v-.1Zm-154.2 79.4s0-.1 0 0h.1ZM693 549.9v.2l-.1-.1s.1 0 .2-.1Zm-553.4-95.3h-.1v-.1Z" opacity=".2"/><path fill="#1c1517" d="M435.2 597.7c-.5-6.5.8-14.1-2.1-19.4-4.8-8.9-.1-16.6-.3-24.8-.1-7.5-.8-14.9-1.2-22.4v.2c.2-4.8.3-9.6.8-14.4.1-1.1 1.3-2 2.9-2.6.5-6.2 5.4-12.5 3.2-19 1.8-4 4-8.2 5.6-12.5 2.4-6.5-7-5.8-7.1-11.5 3.6 1.1 7 2.1 10.5 3.1.2-.5.3-1.1.5-1.6-1.9-1.4-3.9-2.8-5.9-4.3 4.1-3.3 4.7-2.8 6.9.6 1.7 2.6 4.8 4.3 7.6 6.7-.6.9-1.4 2.1-2.3 3.4 1.5.7 3 1.4 5.1 2.5-.5-2.3-.8-4.2-1.5-7.4 5 .3 9.4.6 13.8.9 2.8 9.5 2.2 19 0 25.8 1.9-6.9 3.1-16.4 0-25.9 1.7.4 3.4.8 4.3 1.1 3.2-3.3 6.3-6.5 9.3-9.6.4.3.7.7 1.1 1 1.9-6.8 4-13.5 5.8-20.3 1.7-6.6-2.1-12.1-9.2-13.8l-6.6-1.5c2.7-5.5 4.9-10.5 7.5-15.3.7-1.4 2.1-2.5 3.2-3.7.8-.8 2.4-1.6 2.4-2.3 0-6.8 4.8-12 6.3-18.2 1.1-4.6.2-9.7.2-13.6-7 4.2-14.4 8.7-22.4 13.5.8 4.5 2 9.3 2.4 14.1.2 2.4-1.2 4.9-1.9 7.3-2.9-1-7.3-1.2-8.3-3.2-2.7-5-4.1-10.7-5.5-16.3-.4-1.4 1.1-3.2 2.3-6.4-.5-2.3-8.7-5.8 0-11.1-1.8-.4-2.9-.7-5.8-1.4 3.9-2.3 6.7-3.9 10-5.9-2.7-1.2-4.7-2.1-7.2-3.1 3.4-2.9 6-5.2 9-7.8 1.5 3.3 4.3 4.9 7 1.5 1.2-1.5 1-5.1 0-7-1.8-3.5-1.7-11.1 1.1-14.5-1-.9-1.9-1.7-2.2-2 2.1-7.3 3.9-14 5.9-20.6.8-2.7 3.1-5.2 3.2-7.9 0-3.8-.9-7.7-2.2-11.3-.7-2-2.8-3.5-4.6-5.5-4.4 3-8.9 5.4-12.6 8.7-1.8 1.7-2.2 5.1-3 7.8-1.3 4.4 0 9.5-3.9 14-4.1-7.2-5.5-13.9-2.8-21.1 1.5-4 2.6-8.2 4.7-11.9 1.3-2.2 4.1-3.4 6.2-5.1 2.4-1.9 4.8-3.8 7.8-6.3-.7 2.1-1.3 3.7-1.8 5.3.1.2.3.3.4.5 2.4-4 4.8-7.9 7.2-11.9l2.7 1.8c-5.1.3-10.2.6-16.4.9 2-1.4 3.2-1.9 3.8-2.7 8.1-10.6 19.2-7 29.4-5.7 6 .8 8 6.2 5.5 12 3 1.1 6.9 1.4 8.7 3.5 1.4 1.6.3 5.5.3 9.6.7.5 2.7 1.9 4.7 3.5 7.8 6.2 8.5 14.2 2 21.7-4.4 5.1-8.7 10.3-12.9 15.6-2.9 3.7-3.3 7.3 1.3 10.3 1.9 1.3 3.3 3.3 5 4.8 2.1 1.8 4.4 3.4 7.1 5.5.1.9.5 3 .8 5.1 1.7-.6 3.3-1.4 5-1.7 3.3-.5 6.6-.7 10.9-1.1-3 4-5.1 6.7-7.9 10.4l7.9 7.9c5 4.9 10.3 9.4 14.8 14.6 9.8 11.2 19.2 22.8 28.8 34.3.6.7 1.2 1.5 1.8 2.3 11.2 14.5 11.2 17.8 1.7 33.3-9.8 15.9-22.5 29.1-36 41.7-2.6 2.4-6.1 4-8.3 5.4.8 7.9 1.2 15.4 2.4 22.8 1.1 6.3 2.4 12.8 4.9 18.7 7.6 18.3 11.4 37.5 15 56.8.4 2.2 0 4.5-.7 6.9-1.5-8.8-3-17.7-4.5-26.5-.5 0-1 .2-1.5.2 1.1 8 2.3 16 3.4 24-.4 0-.8.1-1.1.2-2-9.3-4-18.7-6-28-.7.1-1.3.3-2 .4 2.9 14.5 5.7 28.9 8.6 43.4h1c.2-1.3.4-2.5.7-3.8.3.2.8.4.8.5-1 11.8 2.2 22.9 4.9 34.1.9 3.9-.7 8.3-2.1 12.7-1.2-4.3-2.4-8.6-3.5-12.6-3.7 9.6-2.9 19.8-1.9 30.1.2 2.3-.9 4.9-1.9 7.2-.7 1.7-2.1 3-3.4 4.8-.2 0-1.3-.6-2.9-1.2l-1.6 8c-.3 0-.6 0-.9.1-.5-2-.9-3.9-1.4-5.9-.3 0-.6 0-.9.1v6.2c-.4.1-.8.2-1.1.3-.5-1.4-1.1-2.7-1.9-4.8-.5 2.4-.8 4.3-1.5 7.8-1.2-3.2-1.9-5-2.6-6.9-.5 1.7-1 3.3-1.7 5.4-1.8-3-3.3-5.4-4.9-8-.8 3.6-1.5 6.9-2.4 10.8-1.7-1.4-2.7-2.1-3.7-3-.6 1.9-1.1 3.6-1.6 5.3H522c-1.1-5.2-2.1-10.4-3.1-15.2-1.5 3.3-3.4 7.2-5.4 11.4-.9-.5-1.8-1-2.9-1.6-.5 1.8-1.1 3.5-1.4 5.1-2.1 11.6-4.1 23.1-6 34.7-.3 2 .3 4.1.5 6.2 0 .9.7 2.3.3 2.6-4.4 4.3-1.9 9-1.3 13.7.2 1.5.5 3.2 0 4.6-2.2 5.5-.3 8.7 3.9 12.9 4.3 4.4 6.7 11 8.9 17 1.3 3.7-5.3 8-10.4 7.8-2.2-6.5-4.3-12.6-6.4-18.8-.6.2-1.3.3-1.9.5 1.1 4.2 2.2 8.5 3.3 12.7.4 1.8 1.4 4 .8 5.4-.4 1.1-3 1.4-4.2 1.8-5.5-13.2-4.6-26-1.8-39.7-1.9.7-3 1.1-5.5 2 .9-6.6 1.5-12.7 2.6-18.6 1.8-8.9 1.5-17.4-.3-26.4-2.3-11.7-2.5-23.8-3.2-35.8-.5-8.7 0-17.5 0-25.3-1.2 16.6-2.4 34.2-3.8 53 1.1-3 1.7-4.7 1.9-5.4.8 2.6 2.4 6 2.8 9.5.3 2.1-.4 5.4-1.9 6.4-3.4 2.2-2.3 5-2.2 7.8.1 3.5.5 7 .5 10.5.2 8.4-1.3 10.5-9.1 13.3-5.4 2-10.8 4.3-16.3 6.1-2.2.7-4.6.6-7.9 1 .8-2.9 1.2-4.5 1.6-6.2.2-1.5 1-1 1.8-.5 8.6-5 14.9-11.8 18.2-21.4.6-1.7 3.8-2.6 4.1-4.2.8-4-.4-7.4-3.9-10.5-1.8-1.7-1.7-5.8-2-8.9-.3-3.5 0-7 0-10.6h-1.8v16.3c-3-1.1-5.2-1.9-7.7-2.8v6.3c-2-6-7.4-11.4-1.8-18.4h-1.9c-1.1 2.2-2.1 4.5-3.2 6.7-.3 0-.6 0-.8-.1v-35.8c.5 0 1.1 0 1.6-.1.7 6.3 1.4 12.6 1.9 16.7V671c-.3-.1-.6-.2-.8-.3-.5.9-1 1.9-1.8 3.4-.2-1.7-.3-2.9-.5-4.1-.1.3-.3.6-.3.8-.9 11.2-1.6 22.4-2.8 33.6-.5 4.2.6 9.7-6 11-.9.2-1.2 2.8-3.2 4.6-1.7-9.6-3.4-19.1-5.1-28.7.3 0 .6-.1.9-.2-.2 5.2-.5 10.4-.8 16.7-6.2-4.2-2.9-9.2-3.7-13.8-1.5 4.8-2.9 9.2-4.3 13.6l-2.5-.6 4.1-16.7c-.6-.2-1.1-.4-1.7-.7-2 3.2-3.9 6.3-5.9 9.5h-1c.9-4.6 1.8-9.2 2.7-13.9.3-3.2.7-6.3 2.4-9.3 1.8-3.3 2.4-7.3 2-10.1 1.6 6.4-4.9 12.2-4.4 19.5q-4.3 1.7-6.6 7.4c.8-8.2 1.6-16.5 2.4-24.7h-.3c-.2 1-.5 2-.9 3.8-.5-1.3-.9-1.7-.9-2.2.2-7.6-1.8-15.5 3.2-22.5.7-.9.5-2.6.4-4-.6-10-1.2-20-1.8-30.7-1.1 14.7-1.5 28.9-3.2 42.9-1.6 13.6 1 27.5-2.8 42.3-4.8-12.4-4.4-23.4-2.3-34.8 1.6-8.7.6-17.9 1.1-26.9.6-12.3 1-24.7 2.4-37 .7-6.4 3.2-12.6 5.6-19v24.3h1c.9-9.2 1.8-18.4 2.9-29.2 5.1 15.5 2.7 30 3.2 44.3.6-10.6 1.2-21.3 1.7-31.9.6 0 1.2 0 1.7-.1.8 3.3 1.6 6.6 2.4 10 5.1 16.3 1 33 1.4 49.4 0 3.3 1 6.4 1.3 9.5-2.2 4.7-1.2 9.9-2 14.9-.4 2.3-1 4.4-2.5 5.9 3.1-.9 1.7 1.8 2.2 2.6 0-7.3 0-15 2.3-22.4-3-9.5 1.2-18.6 1.2-27.9 0-18.6-.2-37.3 1.1-55.9.3-4.7 1.9-9.3 1.4-12.5-2.4 12.7-1 27.3-3.3 41.6 0 .6-.9 1.2-2 .9-1.6-1.7 0-4.1-1.2-5.9Zm-24.7 42.2c.6-2.4 1.4-4.8 1.6-7.3 1.3-14.6 2.2-29.3 3.7-43.9.7-7.3 2.8-14.4 3.5-21.7.5-5.1-.4-10.2-.7-15.4-1 0-2-.2-2.9-.2-2.3 9.1-4.7 18.3-7 27.4l1.5.3c1.4-3 2.8-6.1 4.2-9.1.6.3 1.3.6 1.9.9-2.2 9.4-4.7 18.7-6.5 28.2-.5 2.7 1.1 5.8 1.1 8.7 0 10.8-.2 21.5-.3 32.3h-.1Zm21-108.6c.1-8 .3-16 .3-24 0-.7-1-1.4-1.5-2.1-.6.4-.7.9-.4 1.5-2.6 3.8-2.4 9.7-7.1 11v12c1.5-1 2.5-1.7 4.5-3-3 12.1-5.6 23 .8 35 .6-3.6 1.2-6.1 1.5-8.7.7-7.3 1.3-14.6 2-21.9v.2Zm20.6-111.9c-.9-2.1-3.8-3.4-7.1-6.1 1.1 3.1 1.7 4.9 2.2 6.5-1.3.6-3.2.8-3.7 1.8-5.9 11.2-11 22.7-7.4 35.9 1.5 5.4 2.2 5.8 7.8 3.1-1.2-1.5-3.3-3-3.4-4.6-.2-5.6-.5-11.3.7-16.7 1.6-7.5 3.5-7.7 8.6-2.5.5-.2 1.1-.4 1.6-.6-1.5-3.9-3-7.8-3.9-10.2 2.1-2.9 5.1-5.5 4.6-6.6ZM410.6 640c-2 .2-4 .3-6 .5.4 2.4.9 4.7 1.5 7.7 1.1-1.9 1.8-3.1 2.5-4.2.5.2.9.3 1.4.5-.9 4.4-.7 9.8-3.1 13.1-3 4-3.8 7.7-4 12.2-.1 3.8-.7 7.6-1.1 11.4 5.8.5 7.4-3.1 7.3-8.4 0-1.5.4-3.1.5-4.6l.9-28.2.1.1Zm-3.4-47.5c-4.9 15.1-9.8 30.3-14.8 45.4l1.8.6c1.8-5.5 3.6-10.9 5.2-16.4 1.2-4.1.7-9.6 3.3-12.1 5.4-5.1 4.3-11.3 5.6-17-.6-.2-.9-.4-1.2-.5Zm69-285.5h-7c1.6 3.8 2.9 6.9 4.2 9.9 1.6-2.8 3.1-5.7 4.7-8.5-.6-.5-1.2-.9-1.9-1.4Zm-34.4 173.8c-2.3-1.8-5.2-2.8-7.8-4-.4 1.5-1.5 3.8-1 4.3 2 1.9 4.6 3.3 8.4 5.8.2-2.9 1.1-5.5.4-6.1ZM457 759.2c-2.8-.8-5-1.4-7.6-2.2-.6 3.5-1.1 6.6-1.6 9.7 2.2-1 4.3-1.9 6.4-2.9.6-.2 1.2-.3 1.8-.5l.9-4.2Zm-.9-392.9c-.9-2.5-1.8-5-3.1-8.7-2.3 2.4-3.6 3.8-4.9 5.2 2 1.5 4 3.1 6 4.6.6-.4 1.3-.7 1.9-1.1Zm-22.2 128c-.7-.3-1.4-.5-2.1-.8-1.5 3.9-3.1 7.8-4.5 11.8 0 .1 1.7.9 2.6 1.4.1-.5.3-1 .4-1.5l3.6-10.9Zm108.9-20.2c-2.2.5-4.6.7-6.6 1.6-2 .8-3.7 2.3-5.5 3.6 1.8 2.4 3.1 5.5 5.4 7 1.3.8 4.9-.2 6.3-1.6 5-5 9.6-10.5 14.3-15.9 1.2-1.4 2.2-3.2 3-4.8 2.4-4.6 4.5-9.4 7.2-13.8 2.8-4.5 2.6-8.1-1.2-11.9-6-6.1-11.5-12.5-17.4-18.7-1.8-1.9-3.8-3.4-6.1-5.4-1.6 3.1-2.7 5.4-3.9 7.7-.6-.1-1.2-.2-1.8-.4.2-3.8.5-7.5.7-11.3-1.7 1.2-2.6 2.7-3 4.4-.6 2.6-.8 5.4-1.3 8-2.7 13.2-3.1 26.9-9.8 39.2-.7 1.2 0 3.2.3 4.9.3 1.8.7 3.7 1.2 6.6h18.1v1Zm-103.4 44.3c3.8-7.4 4-16.6 11-22.3.6.1 1.2.3 1.8.4-.3 4.1-.5 8.1-.8 12.2h-1.7c-.1-2.4-.2-4.7-.3-7.1h-2.1c-.8 14.9-1.5 29.9-2.3 44.8.4 0 .8.1 1.3.2.6-1.2 1.3-2.5 2.1-4.2.5 1.7.8 2.7 1.1 3.7.4-5.2-1.2-10.4-.6-15.4.4-3.9 3.5-7.5 5.4-11.2.4.4.9.8 1.8 1.6.5-10.2 1-19.7 1.6-30.6-2.1 2.4-3.2 3.6-4.9 5.6-1.3-4.4-2.3-7.9-3.4-11.4-1.8 1.6-2.6 3.5-3 5.5-.8 3.4-1.3 6.8-2.1 10.1-1.5 6.1-3.1 12.2-4.7 18.2h-.1Zm-4.2 79.2c0 12.2-.2 24.3.2 36.5.2 8.1-2.1 16.4 1.8 24.3 1.2-7 3.1-13.9 3.5-20.9.5-10.8-.3-21.6 0-32.4.4-17.4 1.3-34.8 2-52.2h-.8c-1.6 16.2-3.3 32.5-5 50-.8-2.6-1.2-3.8-1.6-5.1Zm10.5 30.6c1-10.2 2.1-20.4 3.1-30.7h1.3c.2 1.7.4 3.5.7 5.2.8-11.8.4-23.6 1-35.4.4-9.5 2.1-18.9 3.2-28.4-8.5 29.2-7 59.3-9.2 89.1Zm20.1-142.1c-.6 1.7-1.3 3.4-1.6 5.2-1.6 8.5-3 17.1-4.6 25.6-.9 4.8-1.8 9.3-.7 14.6 1.4 6.4.6 13.4.2 20.1-.2 3.8-1.5 7.6-2.3 11.4.5.1 1.1.2 1.6.3 2.9-25.7 5.7-51.4 8.6-77-.4 0-.7-.2-1.1-.3Zm14.8 222v-21.5h.7c.3 1.4.6 2.8.9 4.1h-.4V637c-2.2 23.7-4.8 47.3-1.2 71.1Zm-8.8-233c-.1.8-.5 1.6-.4 2.3 1.2 7.7 1.1 15.1-1.6 22.7-1.1 3.1.7 7.1 1.2 10.7 2.1-5.4 2.8-10.7 4.1-16 .4-1.5 3-3.1 2.7-4.1-1.7-5.4-4-10.5-6.2-15.8h.1Zm22.7 110.8v77.9h1.2v-77.9h-1.2Zm-57.2 72.4c-1.2.3-2.4.5-3.3.7-.6 8.4-1.2 17-1.7 25.7h1.3c.3-1.8.6-3.5.9-5.6.3 1.7.6 3.1.9 4.4h1.8v-25.3Zm19-29v36.6h.9c1.2-12.7 2.4-25.5 3.6-38.2h-.6c-.5 3.4-.9 6.8-1.4 10.2-.4 0-.8 0-1.2-.1-.2-2.8-.5-5.5-.7-8.3h-.5Zm-16.8-110.8c-.7 1.8-2.1 3.7-2.1 5.5 0 9.2.2 18.4.4 27.6 0 1.5.4 3 .7 4.5.3 0 .6-.1.8-.2v-37.5h.1ZM502 344.4c2.1 4.4 7.7 5 10.5 8.6.6-.6 1.2-1.2 1.7-1.8l-9.6-9.3c-.9.8-1.8 1.7-2.7 2.5Zm-76 341.3c2.4-8.8 8.4-17 4-25.6-.6 4.2-1.2 9.6-2 14.9-.5 3.6-1.3 7.2-2 10.8v-.1Zm29-54.4v-23.6h-.7v23.4c.2 0 .5.2.7.2Zm97.2-57.1c-.8-4.9-1.6-9.7-2.3-14.6-.6 0-1.2.2-1.8.3l2.1 14.4c.7 0 1.3 0 2-.1Zm-88.8-10.7v11.7h1.2l1.2-11.4c-.8 0-1.5-.2-2.3-.3Zm-25.9 44.6v33.1c.3 0 .5 0 .8.1l1.8-33c-.9 0-1.7-.1-2.6-.2Z" opacity=".4"/></svg>