<svg xmlns="http://www.w3.org/2000/svg" data-name="Layer 1" viewBox="0 0 1024 747.5"><path fill="#1c1517" d="M244.1 370c.9 0 6.1-.8 6.4-2.6.4-2.4-3.2-1.2-3.6-2.5-1.5-4.7-4.2-11-2.7-16.7-2.8 1.5-4.2-.4-6-2.7-2.8 6.2-2.2 12.4-3.6 18 0-4.2 1.1-10.9-4.1-12.4-6.3-1.8-5.4 3.6-5.7 7.4-.5 6.9-.6 21.8 5.5 26.5 3.3 2.5 9.8 2.6 13.7 4 5.7 2.1 9.1 3.5 15 4.3 11.3 1.5 27.7 11 38.6 6.8 2.5.7 1.7 5.7 5.7 4.7.9-2.1-1.6-3-.9-5.4 4.2 1 8.5-2 12.6.6 5.1-2.6-3-20 6.7-20.9 5.3-.5 7.7 10.3 13.5 8.8 1.7-8.9-14.3-17.7-21.6-15.8-10.7 2.7-.2 12.7-2 21.6-1.7-1.9-3.1-3.5-4.4-5-6.5 2.9-15.6-5.6-13-13.8h-.1c4.1-.5 4 3.2 5.8 5.6 10-6.1.1-15.5 1.4-23 2.6-.7 4.2 1.4 6.6 1.8 1.3-3.3 3.5-3.2 6-1.2 0 1-1.9.9-1.1 2.7 5.8-1.4 12.4 7.9 18.8 9.1-6 1.9-2.6 7.7 2.3 6.5 4.4-1.1.8-3.9 2.8-6.5 2.8 1.6 3.1 5.4 5.7 7.2 3.9-7 2.9-16.6 11.8-20.3 8.9 10 0 25 5.8 36.3 3-1.2 2.5-3.6 2.6-6.2 4.6 1.8 2.9 5.9 4 9-.9-.3-1.7-.8-2.3-1.5-4-1.5 3.1 6.4 3.1 6.4 2.1-3.1 5.4-4.4 7.5-6.8 2.4 0 1.4 2.7 3.1 3.1 1.9-1.8 2.8-4.3 4.6-6.4-.3 1.7-.6 3.5-.9 5.5q4.7-5.1-4.7-35.7c4.9-2.2 9.2 16.8 10.5 20.7 2.6 7.6 2.3 12.8 7.8 17.4 1.1 2-1.3 3.1-.9 4.8 6.7 1.4 12.4-3.1 13.3-10.6-1.2-1.8-2.8.7-4.1-.4-1.6-5.5 5.8-7.7 4.7-13.3-3.2.6-3.4 5-6.7 5.3-5.4-2.2 2-19.3 2.9-22.9 1.5-5.8.1-13.6-.8-19.5-.7-4.6-4.9-13-3.4-17.3 3.4 5.9 6.5 12.3 7.5 19.1.8 5.8-1.9 13.4 3.2 17.8 1.8-5.9 3.6-11.4 5.4-17.2 1.5 1.4.3 4 2.4 4.9 2.3-.6 1-4 4.4-4.7-3.8 8.9-4.6 39.3 8.4 41.3-.3 2.4-2.6 4.2-2.3 7.2 2.3.2 4.2-4.4 6.9-.5-1.2.6-3.1 7.2-3.8 8.5-1.5 2.7-6.1-.4-4.4 5.3 2.3.3 3.7 3.7 7.4 2.9-3.5 5.3-.6 7.1 4.1 7.6.8 2.8-2.5 4.3-1.4 7.2 5-2.3 5-8.4 9.5-11 2.1-1.2 5.4.2 7.7-1 3.1-1.6 2.8-3.1 5.1-5.8 4.5-5.1 19.6-17.2 20.6-1.7 4.3-2.1 1-5.7 3.6-8.8-2.1 15.4.2 29.9-2 43.6-3.7 1.5-14.9-1.6-15.5-6.8-1-8.1 10.3-1 12.8-4.2 3.2-4.2-8-7.4-9.8-8.1-1.6-.6-7.2-1.5-8.3-2.9-2.7-3.5 5.2-3.8.8-7.4-4.2 3.1-3.8 7.6-3.6 12.2-4.8-.9-1.9-6.7-8.1-2.2-4.5 3.3-3.2 10.4 3 10.5-3.1 3.5-3.6 0-6.2.6-5.3 1-1.8-1.9-5.8 1.9-5.7 5.3-2.2 18.3-6 24.8 6.8-.2 2.4 4.1 6.2 6.8 4.4 3.1 8.7.2 12.8-1.9 9.9-5.2 19-12 28.4-18 .3 7.5-1.4 14-4.3 20.6-5 2.9-18.1 3.6-24 4.8-10.1 2-19-3.9-28.6-2.1-3.4.6-4.7 2.8-7.2 3.4-4.2 1.1-4.4.9-9-.4-7.7-2.2-16.6-6.4-22.3-.4 6.5.5 13.5-1.2 18.5 5.3-5.6 4-14.1 2.3-17.8 9.4 2.9 2.5 10.1-3.7 12.8-4.5 5.1-1.6 12 .8 14.4-5.1 6 9.5 18.6.9 26.6-1 9.4-2.2 24-5.9 33.5-4.1 10.1 1.9 6.6 12.8 6.8 21.4.1 6.9 3.8 30.3-3.4 34.1 5.5 9.1 2.6 18.3.5 28.1-.5.2-1.8.9-3.2 1.6.3 2.6.7 5.1.9 7.5 1.1 2.5 4.3-.6 4.5 2.9.1 2.4-4.4 2.8-5.7 3.4 1.2 4.7 7.5 6.6 6.5 12.4-.3 2.1-2.8 6.4-4 8.5.6-2.7-1.4-10.5-3.1-12.8-1.8-2.5-5.7-2-7.1-5-3.1 2.9-3.1 8.4-8.6 8.6-1.9-4 .5-8.9-2.1-13.8-1.3 3.8-.2 7.2-1.7 10.2-10 .8-8.2-9-12.5-14.3-1.8 4.5-7 2.4-9.1 7.2-1-11-7.4-7.5-14.3-12-2.6.3-2.4 4.7-5.7 3.3-1.6-1.7 1.2-2.1.9-3.6-2.6-.8-3.7.7-4.7 2.6 1.6 3.6 6.5 3.4 9.2 6.1 3.7 3.8 5.7 11.5 8.9 16 6.9 9.9 14.6 17.3 19.6 28.2-5.5-1.3-5.7-7.5-10.4-8.5-.9 1.3-1.9 2.8-3 4.5-3.6-2 0-10.7-7.9-8.4-.5-2.9-1.1-6-1.7-9.1-4.4.4-8.2-1.6-12.4-1.8-4.1 4.9-3.7 69.3 1 73.3 1.1-5.7 9.2-2 9.7-7.7 2.6-1.1 3.4 2.2 5.7 1.1.1-5.5-6.3-6.7-8.1-11.3 2.8-.9 4.8.6 7.1 1.6-1.1-11 15.5-9.8 21.7-6.4 1.9 1 8.1 3.3 3.9 6.2-2.5 1.8-5.9-3.1-9.2-2.7-1.5 7.1.2 6 5.1 8.4 2.8 1.4 8.2 3.7 10.8 1.8 5.3 8.5-5.9 4.9-8.3 4.8 1 5.4 1 10.7 0 15.9 5 .9 6.5-9.7 8.7-13.1 1.1-1.6 4.2-3.9 4.7-5.6 1.4-4.7-.7-2.1-.8-6.1 3.6-6.8 11.8 11.3 12.2 13.7 1.9 11.2-2.2 24-2.9 35.3 2.3 1.1 4.2 0 6.3-.2.4-2-2.5-1.1-2.2-2.9q3.3-1.3 12.3 4.5c-1.5 4.8-3.7 9.2-3.9 15.1 5.1-2.4 13 .7 13.7-7.5 2.7 4.8 2.6 9.5 5.6 12.7 4.3-1-1.8-23.8-2.3-27.4-1.1-9.6 3.2-19.5 2-28.5-.5-4-3.2-5.9-4.1-9.6-1-4.1-.2-9.2-.3-13.3-.2-9.2-1.7-19.6.9-28.6 1.8 4.9 2.4 9.2 7.4 10.7.7-.4-.9-2.5.9-3.6 2.1 1.3 5.7 1.8 7.2 3.4 1.5 1.7.7 4.1 2.4 5.9 4.7-2.5 6.8-.4 11.2.8 1.6.4 6.7 1.6 7.7 2 2 2.1-.7 4 .3 5.9 2.9-.8 2.6-3.5 2.9-5.7 8.5-.6 18.1 4.9 25.7 8.4 1.5.7 8.2 5.1 10.2 4.5 3.7-1.1 4.4-6.2.6-7.9-2.4.5-1.8 2.8-4 3.6-3.9-3.7 16.2-21.8-.5-21.6 1-1.6 3.2-.9 4.3-2.2-8.4-6.9-21.1 9.6-19.2-3.7 6.6 6.1 9.6-4.4 3.5-6.2.7-1.4 1.4-2.6 2-3.8q-7.3-6.6-2.6-10c-2.1-2-5.5-3.5-3-7.9 1.4 2.3 12.4 8.4 13.9 6.9-.4 2.7 14.6 9.4 17.3 7.6-2.9-6.5-7.7-9.3-13.2-8 3.6-2.7 2.5-8.3 6.3-11.9.2 3.2-.8 6.1.7 8.8 1.2 2 9.8 8.3 11.8 6.5 1.7-1.5-2.1-17-6.2-17.2-1.7-4.8 6-9.1-.5-14.2-1.1 4.5-2.1 8.3-3 12.2.1-6.7-6.5-13.2-2.5-19.7 3.9-6.3 10.7-4.5 7.9-13.6 2.5-2.1 6.9-.8 9.3-3.6 1.6-1.9-.2-4.9.9-6.2 2.4-3.1 8.9-9.1 13.2-10.1-1.4-6.8-7.1-.9 2.7-5.1 4.9-2.1 12.8-10.4 16.5-2.3 2.1-3.3-1.4-5.8 0-8.4 3.1 1.1 5.8-1.3 9.4-.9-.7-4.2-12.4-18-13-7.1 4.8-1.8 6-1.1 6.8 4.8-4.5-3.5-8.6-1.2-12.9-.4.9 3.6 4.8 1.5 6.1 4.2-2.7 2.1-5.5 2.8-8.4.7-5.7 6.8-9 7-12 1.1-2.6.4-.8 2.9-2 4.1-4 .9-2.7-4.6-5-6.3-2.4.2-1.7 1.8-1.8 3-1.7.5-2.1-1.5-3.9-1.7-2.1 1.9-4.6 4-7.6 6.7 3.1.5 12.7.2 14.3 3.5-9.9 0-15.7 7.5-23.9 11.2 1.5 2 4.8.8 4.4 4-3 3.2-8.1 3.9-11.6 7.3 7.2 3.3-5 8.4-7.6 10-.4 2.5 2.2 1.7 2.3 3.4-4.3 3.1-6 12.5-8.5 16.4-2.7 4.2-8.3 11.4-5.2 18.5-1 1.4-2.3.9-4 .8 1.8-4.2 2.1-8.2.6-12.7-2.5 2-1.8 9-4.6 9.7-5.1 1.2-1.9-7.2-3.3-9.3-4.6 4.3-5.2 2.1-9.8 3.7-7.1 2.5-6.3 6.8-9.2 13.5-1.8 4.1-3.1 9.2-10.7 5.4-7.9-4 1-9.9-6.8-14.4-1.5 1.7-2 3.9-1.9 6.3-1.9-2.4-3.6-5.5-3.8-8.6-.2-3.5 2.9-6.2 2.9-8.9 0-6.2-2.2-5.2.3-11.6 1.5-3.9 4.3-5 4.2-10.5-.2-5.7 0-7.7-7.2-7.7-1.6-7 1.3-14.3 1-21.4-.3-7.7-1-15.6-1.4-23.3-.8-15.3-.3-22.5 10.9-33.7 3.4-3.4 9.2-6.2 11-10.6 1.9-4.8-2.1-9-1.2-13.5 1.6-7.6 16.1-12.7 22.5-9.5 1.3-2.3.5-4.5 1-6.5 2.2-1.5 3.4.9 5.2 1.1 1.3-1.1-.8-1.4-.6-2.3 3.7-2.9 9.1 2 11.7-1.9 6.4-.3 11.5-2.1 16.4-5.5.7 2.3-2.2 3-1.9 5 2 1.7 19.7-5.8 23.2-6.5 3.5-.7 5.5 1.2 9 0 4.7-1.6 8-6.3 12.4-8.6-9 .2-18.2-1.7-25.6 5.5 1.8-2.7 5.5-3.4 6-7.3-4.9-1-8.6 3.8-13.5 2.5.8-3.3 6.7-7.3 6.1-10.7-1.2-6.8-3.6-.5-5.7-4.2 3.3-2.4 8.1-.5 11.2-3.4.6-2.4-1.8-3.3-2.8-5.3 2.1-2.8 5.8-5.2 4.4-9.7-4.8.3-9.4 4.2-14.6.4 4.6-3.4 10.4-1.2 15-3.6-.2-2.7-3.2-3.2-4.8-6 4.4.8 6.6 3.6 9.8 5.2.2-1.8 1.3-3.1 3.3-3.2-.3-4-4.2-4.2-6.3-6.6 1.3-2.2 3.1-4.5.9-8.4 3 1.8 2.1 5.7 5.6 5 0-1.8-3.7-4.1.9-5.4 2.5 4.9 4.8 3.3 9.1 5.9 3 1.8 4.8 4.7 7.4 6.8 2.3 1.8 5.2 2.7 7.2 4.2 1.5 1.2 2.4 3.6 4.1 4.4 3.6-4.6.4-7.8-2.3-11.5 2.6 1.5 3.3-2.6 5.8-1.3-.7-3.1-3.4-11.1 2.4-8.1-.2-5.6-3.1-10.3-3.6-15.2 1-1.6 2 .4 3-.8-.6-3.4-2.4-6.9.4-10.5 2.8 3.2 3.2 7.7 5.3 11.4 1.5-.3.8-3 3.2-2.1.6 2.3 1.5 4.5 2.9 6.5.7-.6 1.5-1 2.4-1.2.6 11.3 4.4 22.4.7 34.1 8.3-2.1 11-5.6 9-10.7 1.5-2.1 4.5-3 5.2-5.9-1.6-.7-2.6 1.3-4.3 1-1.3-11.4 13.8-18.9 20.5-25.3 4.9-4.8 6.7-15.7 15.9-14.9 9.2.8 16.1 18.2 20.9 24.8 3 4.2 17.3 12.5 21.4 4.7 1.1 1.6 1.9 2.8 3.2 4.6 1.3-4.5 4.4-2.5 7.3-2.6-.1-3.1 1.2-4.7 4.5-3.3 0-1.2-11.4-9-3.2-9.2 1 2.4 2.4 4.7 5.9 3.2.9-4.1-2.3-9.8-3.5-12.6-1.4-3.4-3.8-9.2-5.9-13.5-2.5-5.3-4.5-10-8.8-14.2-4.1-4-9.9-5.8-11.4-12.1 8.7 3.8 15.2 10.2 19.1 19.4 1.8-1.8 1.7-4.9 3.1-6.2.8.5 1.5 1 2.2 1.7 1.3-.8 2.2-1.8 2.6-3.3 1 1.1-.5 2.8 1.4 3.9.4-3 5-3.5 3.8-7.4 7-2.1 2.8-10.7 0-14.8-5.5-8.2-9.1-6.8-17.1-7.6 1.7-12.6-8.2-5-12.8-7.5.9-3.4 5-2.2 6.4-4.4-.3-2.5-2.9-.9-3.8-2.7-1-2 3.7-2.8.6-5 4.6-2.6 8.2.7 12.6 2-.6-2.6-3.2-2.3-4-4.7.3-1.3 1.9-3.1.8-5.7 3.5 1.3 6.4 2.3 9.1 5.1 6-13.4 5.8 2.8 10.9 6 2.3-2.1 0-4.3.8-6.4 6.4 4.8 5.6 13.1 11.5 18.1 4 3.4 8.4 8.4 13.9 6.5 2.5 9.2 8.7 16.1 12.9 25.3 2.7-4 1.9-8.5 6.5-8.5-.9-11.1-.6-25.9 6.2-35.2 2 7.6-1.8 35.7 8.4 34.9-7.3 4.7-7.6 16.5 0 21.6 4.8-7.3 2.6-19.1 3.6-27.4 1.1-9.6 1.7-21.3 5.1-30.4 3.1-8.3 5.5-5.6 7.5 1.6 1.4 4.7 2.3 6.8 1.3 12-.5 2.7-4.9 7.7-2 10.2 2.6-.6 1.6-3.8 3.3-4.9.3 6.2-.6 12.4-1.7 18.5-.9 4.7-5.3 14.1-3.1 18.5 5.7 11.6 10.5-12.1 11.5-16.2 1.6-6.6 2.8-17.4 6.4-22.9 2.1-3.2 4.9-5.2 7-8.9 5.5-9.7 11.5-19.4 16.9-29.1 2.6-4.6 3.7-6.8 7.1-9.4-.2.2 7.1-3.2 6.6-3.3 10.2 3.4-5.6 17.7-9.1 20.8-8.2 7.2-14 16.6-18.5 26.6s-12 24-11.8 35.2c1.1 2 2.8-.8 4.2.8-.9 2.5-1.8 5.2-3.1 9 7.6-3.8 14.9-5.9 21.6-9.9-.6 1.5-2.7 2-2.6 4.4 8.6 0 5 2.4 10.5 5.7 2.2 1.4 7.9 2 9.3 4-2.2 3.8-3.6 7.9.4 12.7-5.8-.4-6.6-8.2-12.6-9.3-5.9-1.1-12 2.9-6.5 8.3h-6.6c.8-.8 1.3-1.8 1.6-2.9-.5-3-18.3 1.3-19.9 1.9 3.8 2.8 7.3 1.3 11.3 1.2-4.6 3.7-12.5.6-15.3 8.2 7.7-1.8 14.3-4.9 21.6-2.3-1.9 5.6-10.2 5.7-15.1 6.1-9.2.9-7.1.3-9.1 8.8-1 4.3-4.8 8-1.1 11.2 3 2.6 12.7-3.4 12.3 3.8-2.9-.4-8.3 2-9.9 1.6-1.6-.4-2-3.2-3.8-3.4-3.2 3.7-2.9 4.4 3.4 8.3.3 2-1.6 3.1-2 5.1 2.7 1.1 5.1 2.7 3.1 6.6 3.2-.2 6 1 8.8-.9-5.4-5.1 3.3-7.2 8.7-8.9 10.8-3.3 5.7 3.9 13.2 6.9 12.4 5 23.2-21.3 31.3-26 .1 4.4 11.7 5.7 5.2 0 1.6-2.1 8 0 11.2-2 5.3-3.4 8.9-11 13.8-15.3-2.9 4.2-11.3 11.3-4.9 14.7 4.9 2.7 13.4-8.1 17.8-10.4h-.1c-9.4 15-25.7 17.1-39.8 22.2-2.4-1.1-.6-3-2.1-3.8-2.4-.4-15.5 19.2-18.4 22-7.9 7.8-15 15.5-22.3 23.9 5.4-6.6 13.3-13.1 20-18.3 2.8-2.2 6.3-5.2 9.9-5.5 2.7-.2 3.9 3.8 7.6 2.5-.4-3.1-4.1-2.1-5.2-5.1 6.7-6.4 14.7-11.3 22.9-15.5 7.7 7 17.3 10.4 24.5 17.1-2.2 1.5-5-.5-7.9.4 1.6 4.3 4.8 8.3 3.3 11.7-2.1 4.8-13.8 2.9-5.3 9.5-5.9 3.6-9.2-4.7-14.6-2.8.6-2.2 2.2 10.1.4 6.4 1.2 2.4 5.7 4.2 6.2 6.3-3.2 3-6.5-2.1-9.6 0 4.1 5.6-1.8 10-1.3 16-2.5-1.7-4.5-2.2-5.8.8.5-4.4-2.7-5.9-5-8.1-2.4 1.4-3.1 3.2-1.5 5.7q-6.2 0-16.5-6.9c-2.3 2.8-3.7 6-4 9.2 7.1 4 13.5 8.3 18.7 14.1q-6 5.6 4.2 18.3c1.5-.5.3-2.7 2.3-3.1 1.5 3.8 7.3 5.1 5.6 10.8 10.9 3.2 22.5-1 33.4 2 6.5 1.8 9.8 5.7 14.5 10.6 8-10.8 10.2-6.8 13.2 3.8-2.1 1.3-2.3-2.1-4.4-.9-1.3 5.8 4.5 8.9 5.8 14.1.3-3.6.5-6.8.7-10.2 4.1.8 4.6 5.4 8.1 6-.5 5.6.7 12.4 2.4 13.4 2-3.3-1.1-7.6 5.2-7.2 4.9.4 5.3 8.9 11.7 3.7-2.3-1.8-19.1-8.8-19.3-9.8-1.9-4.6-2.7-9.4-3.5-14.3 2.7 3 5.8 2.2 9.4 1-1.3-9.7-7.5-17.7-10.1-27.1 4 3.2 8.9 3.9 11.4 8.9 1 2-.2 5.4 1 7.9 1 2.2 4.2 5.2 5.7 7.3 5.1 7 8.3 19.3 15.8 23.9-7.3 1.5-7.4-11.4-17.6-8.7.9 5.9 13.2 13 17.6 16.7v10c-4.1 2.2-7.6 10.2-.2 9.1-1.4 2.6-7.2 2.5-5.2 7.5 2.2.4 3.6-2.1 5.5-.6v9c-1.2 2.6-3.4 4.4-5.8 6.4 3.6 2.8 1.4 8.3 5.8 10.6v181c-7.8 2.7-14.6 1.4-22.6 1.3-7.6 0-15 1.3-22.5 1.5-17.5.4-35.2-1.7-52.7-2.2-5-.1-17.7 2.9-21.2-.6-3.7-3.7-.5-19.5-.4-24.7.1-18.8-.1-37.5-2.3-56.2-8.3 10.1 4.2 45.5-7.3 47.4 6.5 10.6 5.8 22.2 6.8 33.9-11.4 10.9-8.7-11.5-9.4-13.7-1.9 1.6-3.5 2.8-5.3 4.3 1.7 2.7 1.8 5.6 0 9-11.3 1-22.9 3-35.1-1.6-2.6 4.2-8.2.2-11.8.1-5.4-.2-15.9 1.2-20.9 3.1-.7-2.6.9-4.1 1.9-6.4-1.4.5-2.5.8-3.9 1.3-1.1-4.2 3.7-3.4 4.7-6.4 1.2-3.3.6-7.2.8-10.7.4-7.8 2.4-16.1 3.1-23.3 0 .7-.5-5.4-.5-5.6 0-2.8 1-6.5 1.1-9.6.2-6.3-1.1-23.2 9.5-21.7.6 3.2-3 3.6-3.8 5.7 1.5 2.4 6.7-3.7 9.8-3.1 6 1.2 8.1 10.3 8.7 14.9 1.1 7.7-.1 15.7.2 23.5.4 9.4 2.4 16-1.6 24.4 9.9-2.3 7.6-14.1 16.9-15.4-2.2-.2-4.3-.5-7.4-.8 3.5-5.2-2.6-20.6 3.9-23-11.4-9.2.3-21.5 3.1-5.8 8.7-5.2-5.8-16.1-7.2-22.4-1.2-5.3-.4-5.6-3.5-9.5-2.5-3.2-8.8-6.1-7.6-12.9 2.4-13.4 6.4 9.1 10.7 5.9 4-3-1.8-7.2-2.3-10.1-.3-2 1.6-4.2 1.3-6.4-.3-2.3-2.1-4-2.1-6.5-3.9 2.8-6.5 8.7-11.4 2.5-4.3 5.3 0 9.6 1.5 14.7-4.1-.5-6.2-3.9-9.6-4.1h.2c-6.1-3.3-1.9-19.6-1.3-25.4.5-4.3-1.4-21.4 2.6-24 2.2-.2 4.7 2.6 6.5 3.3 4.3 1.7 3.9-1.8 7.3 3.7 1 1.3 1.8 2.7 2.5 4.1.5 2.1-.4 3.6-2.5 4.5.1 3.5 1.8 6.5 1.3 10.4 3 1.4 6.4 1.2 8.9 3.5 3.2-3.5-2.5-6.4.3-9.9 1.9 4.9 5.1 9.1 3.9 15.6 2.2-2.4.7-4.5 2.6-5.9 2.3 0 5.1 1 7.6-1-.4-4.5-5-7.6-7.2-11.3-2.6-4.3-6.3-11.6-8.1-16.3-1.6-4.3.3-6.3-3.5-10.4-2.6-2.9-7-3.4-8.7-7.2 3.4 1.9 6.3 3.5 10.5 4.4-2.8-3.8-6.1-5.2-9.6-6.7 2-.9 3.8.9 6.7-1.2-8.3-1.8-9.7-11.2-18-12.6 3.9-3.5 2.6-6 2.4-10.2-.2-5.5-.1-9.7.7-15.3.8-4.9 0-10.4.9-15.1.5-2.6 2.4-4.6 2.8-6.6-1.5-2.7-3.5-1-5.3-.4-4.7-6.3 8.2-8.7-4.4-11.8-1.7-1.9.3-3.4-.4-5.5-6.2.5-5.9-6.6-10.4-9.3-1.3 5 5.5 12.1-4.2 14.3.2 2.2.3 4.4.5 6.5 2.5 0 2.4-2.1 3.7-3.3 2.5 7.9 1.5 15.8 3.2 23.7 1.9 8.6 5.6 15.8 6.1 24.7-3 .2-1.7-2.3-3.1-3.3-.9 5.6 2 11.4-2 17.5-1.2-10.4.6-19.9-1-29.3-2.2 5.2-9.4 7.1-8.6 15 1.3-3.5 4.6-9.1 7.1-2.9 1.4 3.4-4.7 12-6.6 15 .1-9.6-12.2-15.9-.5-20.7 1.3-2-1.1-2.6-1.1-4.1 1.3-1.3 2.9.3 4.8-.8-3.2-1.8-5.4-4.7-8.9-6 1.7-1.1 16.3-17.2 8.5-17.8-2.8 2.9-3 8.1-7.7 9.7.7-2.3 3.6-4.6.3-7.5-2 2.7-3.5 5.3-3.3 8.4 1.7 1 2.3-.3 3.2-1 .4 6.3-6.6 7.5-8.8 12.2-1.2 2.6-2.2 7.4.3 9.9 1.9-2.4 3.8-4.8 6-7.5 2.8 9.6-10.6 10.3-14.8 13.3 3.6 2.3 6.7 4.5 11.2 3.6-.3 2.2 1 3.7 2.1 5-.4 2.1-2.7 1.5-3.4 3-1.3-.7-.5-3.2-2.7-3.1-2.1 5.1 1.3 10.5 7 9.7-3.8 4.4-3 8.7-.6 13 1.2.2 1.7-1.3 3.9-2-7 7.7 3.4 11.7 2.3 18.3-1 1.8-3.8-.5-5 1.5-.3 2.5 3.1 1.1 3.2 4.6-4.6-2.9-7.7-6-9.6-10.4-1.6.8-1.1 3.2-2.9 3.8-1.5-.2-1-2-2.4-2.8-1.8 4.3-5 7.7-7.8 11.3l.1.1c-1.1-8.5 1-14.1-7.1-19.9-.5 4.7-10.9 1.2-7.2 9.5-5.1 1.9-3.6-3-8.3-3.9-7.1-1.3-6.2 5.1-8.7 9-2 3.1-6.9 8.5-10.6 9.2-6.9 1.3-2.3-5.4 1.3-9.1-4.5.5-6.1 3.9-8.9 5.1.8-2.5.4-21.1-.6-24.1-3.8 2.5-5.3-1.3-8.2-2.8 5-2.4 3.1-6.5 3.8-10.1-2.1 0-.8 2.3-2.7 2.2.4-3.2-.6-6.1-1.1-8.7-1.2 0-13.9 2.6-14.6 3.7-2.7 4.2 2.9 6.1 5.1 9 3.5 4.6 6.4 10.4 9.3 15.5 2.1 3.7 3.9 14.9 9.1 15.1-3.2 16.3 7 3.2 9.7 9.9-1.3 3-7.3 1.4-6.5 7.2 3.3-1.9 13.4-7.6 17.3-7.7 4.7 0 6.3 3.5 11.5 2 1.7-2.9.3-7.1 3.5-10.8 3.6 13 .6 28.9.5 42.3 0 5.6 1 12.5-1 17.9-2 5.4-7 8.5-10.7 12.7-8.2 9.6-13.2 21.4-22 30.6-9.5 9.9-15.5 19.4-8.5 33.3-1.1-7.5-3.3-15.7.8-22.7 3.3-5.7 9.9-9 14.1-14.1 3.6-4.4 20.5-37.1 26.5-34.6 1.2 17.7-.1 35.4 1.4 53.2 10.7-11.1 9.6-19.4 9.6-34.4 0-2.3-1.5-11.8 1.2-12.9 4.4-1.9 3 3 4.4 5.4 2-1.3.5-3.5 1.4-5.2 1.7-1.4 3.6-.8 5.6-.2-.6 3.3-4.7 19.4 4.3 16.8-1.8-4.2 1.4-7.9 2-12.4 2.3-.7 4.6.9 7.1 2-.5 2.5 0 5.3-3.4 6.1.8 3 4.5 2.9 4.9 6.2-4.2-1.3-7.6 1.4-13.2 1.3 6.5 3.7 4 10.8 9.1 14.4-4.7 3 1.7 9.5-4 12.7.4 1.2 2.7 1.1 2.7 3.5-3 6.2-20.2 5.4-22.1-.7-2.1-6.6 9.7-19 3.8-25.1.6 7.4-3.2 14.3-4.8 21.4-2.3 10.4-2.8 8.6-13.1 14.1 12.6-3.8 25.1-7.6 38.5-1.9-1.6 1.8-3.5 3.3-4.3 5.7-.6 1.8.8 4 0 5.6-3 6.2-11.5 4.1-17.7 4.1-3.3 0-7.2.6-10.5 0-3-.5-4.7-2.1-6.6-2.6-4.9-1.4-10.6 0-16-1.2-5.3-11-4-22.6-4.7-34.2-8.7 4.7-2.9 26.4-2.3 34-12.7-1.2-23.2 4-35.6-1.6-11-5-19-9.9-31.5-10.7 11 1.3 20 7.2 29.3 12.7-7.3 3.1-11.9 1.4-19.3.9-7.1-.5-14.2.9-21.4.4-11.6-.8-22.4.4-34 .4 3.2-5.4 17-6 22.4-7.3 8.3-2 10.1-2.3 16.7 2.8 1.5-11-2.3-24.8-3-35.9-.8-12.5-1.4-24.9-1.7-37.4-.2-7-.3-14-.3-21 0-4.1-1.9-12.5-.1-15.8 3-5.8-.1-2.2 5.4-3.5 3.8-.9 7.1 3.8 7.9-3.4 7.9 1.6 6.9 8.9 9.6 13.8-2.2-1.1-3.1-5.1-6.7-2.6-.5 2.8 2.7 6.8 5.4 7.1 6.5.7 3.5-5.6 4-8.6.4-2.5-1.6-10.7 3.3-11.4 5.1-.7 3.9 3.8 3.7 7.7 3.8 1.2 7.4 4.3 10.9-.7q2.9 5.1 11.1 3.9c.5 3.1-6.6 3.9.5 4.8-.6 8.9-10.4 9.1-14.8 14.9 8.2.5 13.1-5.3 19.7-9.4-.7 3.9-8.5 6.9-6.8 11.6 1.9 1 4.1 0 6 .3 1.2 1.7-1.5 3.4.2 5.2 3.1-1.1 3.4-4.7 5.8-6.3 1.5.8 0 2.5 1.3 3.1q16.2-1.8 16.8-6.3c-5.5 0-17.4 7-12-4.7 2.6 1.7 10-3.5 11.7-6-3.6-3.9-5.7-1-7.8 1.4-4.8-1.8-.3-4.4-.9-6.8-3.6 0-5 1.8-4.9 5.8-4.1-3-11.4 1.8-14.5-2.8 3-3.5 8.1-.2 11.3-4-1.5-4.2 3.7-9.2-1.2-13.9-2.7 1.2-3.3 5.3-7 5.4-.3-5.5 5.3-9.4 3.7-15.1-1.3-4.8-5-5.1-9-7.1-1.2-6.8-4-9-10.2-6.1-1.9-8.3-4.9-16 2.2-23.6-3.5-1.1-3.4 1.7-4.6 3-4.8-4.1-6.7 4.4-10.1 2.5-3.9 11.1 4.4 23.8-6 32.3.1-5.4 3.2-9 4-14.1-3.4 2.6-3.1 6.8-6 8.6-5-1.6-1.6-6.6-3.5-9.4-5.8-.4-1.2 5-3.9 6.4-9.2-4.1-5-5.8-3.9-13.1.6-3.9.4-9.9-.5-14.3-4.5 1-3.1 3.3-5.4 6.1.1-.1-5.8 8.2-5.4 7.5-1.5 3.4-.2 14-3.7 15.9 1.9 1 3.4 1.7 4.7 2.4-4.5 2.7-6.1 7.9-10 11.6 3.6.3.6 5.8 4.9 5-.2 3.1-3.1 2.2-4.2 4.8-1.3 3.2.3 5-.2 8.3-.8 5.2-5.1 11.2 4.2 10.1-4.3 7.9-2.3 16.9-2.6 25.5-.2 6-2.2 10.7-2.7 16.3-.9 9.6-3.7 27.8 5.3 33.8 1.7 0 1.1-2.4 3-2.7 10.7 16.5-19.5 19.1-29.5 21.4-6.1 1.4-37.5 7.6-39.1-1.4-2.9 5.9-23.8 2.3-30.1 2.7-10.5.7-21.2.8-31.6.8-8.5 0-16.2-2.8-24.6-2.6-7.9.2-22.3-7.3-28.8-4.6.6 2.3 2.7 1 4.7 2.9-19.2 1-37.4 1-55.9.9.6-2.7.2-4.5-1.8-6.4-.2 9.6-22.5 2.7-27.2 2.9-5.2.1-9.7 2.7-15.4 2.4-7.7-.3-15-1.3-22.8-1-11.9.5-22.9-1-34-.3-8.3.5-19.5 2-17.6-8.3-5.6 13.7-35.9 6.6-47.2 6.2-8.5-.3-16.2.4-24.5-1.6-7.8-1.8-16.1-4.6-24.3-4.4-4.7.1-8.1 2.3-12 3-6.5 1.3-14-.4-20.7-1.1-7.3-.7-14.1 2-21.4 2.2-8.7.3-16-2.8-24.2-5.1 2.4-5.9-6-14 6.2-18.4-3.6-.5-5.6-.8-7.4-1-1.3-2.4-.1-10.1-.2-13.2-.3-6.1-.5-7.1-2.3-13.1-.5-1.8-3.1-12.6 2.1-11.7 3.3.5 1.7 9.7 3.4 12.3 2.5-2.6 3.5-5.5 5-8.7 3.4 5.7 4.5 0 7.9 2 1.5.9 3.2 4.6 5.3 5.2 1.8-3.1 4.6-4.7 8.7-4.3-.7-5.1-6.5-4.2-7.6-7.8-2.3 0-3.8 2.1-6.1 1.9-2.1-.1-5.9-3.7-8-4.3 1.9-6.3 9.8 2.8 11-4.4 3-.7 6 2.8 9.3-.3-.4-3.7-1.4-8.1 3.5-10.7-.9 10.9 1.9 21.7-.3 32.5-3.2 1.5-7.8.2-9.8 4.6 3-.1 11 0 9.6-4.7 6-4.2 9.7 1.5 9.7 6.4 0 1.5-2.9 4-3.3 5.7-.8 3.8.9 7.5-1.1 11.1 5.3-.9 9.6 5.9 13.7 3.2-4.5-5.4 2.4-4.9 3.9-8.5 2.3-5.2.7-14 .6-19.5-.3-11-5.3-28.5-1.9-38.6 2-5.9 0-5 6-2.9 1.9.6 5.7 2.6 6.7 4.3 1.5 2.7-.5 5.9.4 8.8 1 3.7 4 5.6 4.3 10.4 4.4-2.5 3.1-6.5 3.6-10.6 3.8 7.9 9.4 3.1 14 3.8 2.7-6.4-8.4-7.4-4.7-13.9-9.5-6.6-8.2 1.6-7.2 7.3-7.8-2.3-5.9-6.5-5.1-12.8.3-2.5.6-5.9 1-8.1.7-3.8.5-3.3 2.5-6.5 1.1-1.7 4.6-.1 5.3-2.8.9-3-3.2-3.9-4.1-6.3-2.1-6 1.1-13-8.9-11.8-1.4-10.6-19 2.1-16.5-11.2 1.4-1.4 3.3.8 5.2-1.4-6.1-4.7-11.5-10.1-1.5-16.1-1.4-2.3-3.1 0-4.9-1.4.5-6.5-1.8-13.5-2.4-20-.8-9.2-1.5-18.4-2.2-27.6-.5-7-2.8-16.3-.3-23 2-5.5 11.2-9.2 5.6-15.3 2.2 1.7 3.8 4.3 6.7 2.1-.7-2.9-2.4-6-5-7.6-.9-.6-8-1.2-8-1.3-6.6-7 6-6.9 8.3-10.5-3.5-2.7-6.5.9-9.8.3-1.2-3.2 1.4-6.7 4.5-7.6 5.3-1.5 6.1 2.8 8.9 6.5 2.2 3 5 5.9 7.9 8 1.5-.9 2.9-.9 4.3-.1.5 1.3 1.2 2.5 2.2 3.5 2.1-4.3 7.8-6.3 6.5-12.9 7.8 3.6 12.5 10.5 22.2 9.5 6.2-.7 17.5-7.3 20.4-13.3-8.2-.4-13.2-8.4-21.3-5.6-1-3 1.9-2.6 2-4.1-2.8-3.6-7.7.4-10.7-3.5 1.8-2 2.4-3.8 4.7-5.1 3.1-1.7 3.8 2.5 7.2-.8 3.6 1.6 11.5 13.1 14.8 6 8.8 4.6 11.7 16.3 22.1 9.6 2.9-8.6-7.1-11.3-7.4-18.9-2.8-.2-5.6-2.7-9.9-2.1 2.1-2.4 2.4-5.2 5.4-5.6 1.8 1 .2 3.9 3.4 4.6 1.1-3.7-1.4-6.4-2.4-9.8-3.7 2.2-7.9 0-10.9 3.1-1.9-2.1 1.2-3.1.4-5.1-3.8 2.4-3.8-4-8.8-1.9 5.3-6.7 5.6-11.3-2.3-13.5-2.4 1.6-1.7 5-3.9 7.6-.7-2.5 1.7-4.6 0-6.6-2.2-1-1.9 2.7-3.8 2.2-.9-6.7 9.4-3.7 4.5-10.7-1.8 1.7-7 3.1-9.2 3.7 2.3-13.9-9.7-2.2-13.8-.8-1-2.3 1.6-3.8.5-5.7 2.4-.7 2.4 2.5 4.8 1.9.9-5.6 1.8-13.6-4.5-14.3-1.9 2.8 1.9 5.7-1.2 8.7-1.3-4.7-2.6-9.1-3.8-13.4 2-1.4 3.1.5 4.6.4 1.6-4.8.8-5.7-4.7-4.6-2.9-3.3-2-10-8.5-10.9.5-2.1 13.4-7.4 2.4-9 11.8-8.5 24.4-14.8 37.5-20.7 1.6 3.4 0 7.1 2.1 11.1.6-3 1-12.3 3.5-14.4 3.5-2.9 17.7-1 21.8-1.1 14.5-.3 22.2 1.8 34.9 7.3-5.3.2-10.8-.8-15.3 3.6 3.2 2.2 7 2.1 11.7 3.3-7.6 3.1-11.4-2.9-15.9 3.6-4.1 5.9-2.8 17.3-5.9 24.1-2.7.5-4.8-1.5-7.3-.6-.2-1.5-.4-2.6-.6-3.5-5.8-.9-7.7 2.6-8.2 8.1-2.8-3.1-.5-5.3-.9-7.8-1.7 1.2-1.4 4.4-4.1 4.2-2.7-6.9-1-14.2-2-21.2.2 3.7-5.9 6.5-1.3 10.5-2.4 4.5-7.6 4.4-11.2 7.3-4.3 3.4-4 6.8-6 11.6-1.9-5 2.5-9.5.6-14.2h-.1Zm91.7 168.6c3.6 0-2.2-6.5-4-7.1q-1.7 3.8 4.1 7.2c-6.3 4.5-6.9 6.3-3 9 1.3-3 3.3-5.6 2.9-9.1Zm44.5 6.5c-.3 7.4 7 3.5 5-1.6-2.2-.4-3.7.6-5.1 1.7-8-1.3-10.3 6.7-16.1 9.1 6.8 1.1 10.8-6.1 16.2-9.2Zm312.7 5h-.1c.6 2.8-.8 6.1 1.8 9.2 1.7-3.8-1.3-8.8 3.5-10.7 2 .6 2.1 2.8 4.3 3.8.3-5.8 0-11.4 4-16.6-7-.4-4.1-6.3-8.8-8.4-1.8 1.7 1.3 4.1-.8 5.7-2.8-.4 0-3.9-3.2-4.1-1.8 1.8-1.6 5-3.8 6.5.7 1.8 2.6 2.1 2.7 4.3-3.2-.7-2.2 2.6-3.7 3.8-1.3-.6-.4-2.8-2.5-2.8-2.6 1.9 1.1 5.8-2.2 7.7-.9-2.6.3-6.4-5-7.2-2.3 14.1-10.1 26.9-7.3 41.9 5-1.1 10.6-12.9 9.8-20.3-1.1-.7-1.4 1.1-2.1.9-.9-4.7-.3-8.6 5.6-9.1 3.6 4.5-4.1 8.1-1.4 13.3 2.3-3.3 5.6-6 7-9.9.9-2.7-.7-6.3 2.2-8Zm-121.7-95.3c-4.2 2.6-8.3 16.6-13.6 12.7-3.2 5.6-9.7 9.1-10.5 16-.2 1.9-3.1 6.4 1.6 6.5 4.2.2 1.5-2.3 3.3-5 3.6-5.3 6.9-14.3 14.2-15.3 8.8-1.2 10.1 4.4 16.4-5-.6-.9-4.1-2.7-5.2-3.6-3.3-2.8-1.2-4.6-6.4-6.3-.3-.7-1-1.4-.2-2.7 7.8 3.1 21.4 12.4 30 11 6.4-1 18-9.4 21.5-14.6-1.8-1.2-3.6 0-4.7-1.5 3.4-5.1 10.2-4.4 14.8-8.3-2.2-.5-6.9 2.2-8.4 0-1.7-2.3 1.6-3.3.7-5.8-2.5-1.7-5.6 1.1-8.2-.5 1.4-2.2 4.9-.3 5.9-3.5-3.1-2.2-6.2.7-10.2.1 2.5-1.5 4.1-2.4 5.8-3.4-1.6-1.9-3.9-.9-5.9-1.4 1.9-1.9 4.7-.8 6-2.6 0-1.1-2.4-.5-1-2.4 2.8.2 5.4-.3 6.1-4.6-6.7 4.2-10.6 1.4-17.5 2.7-5.2 1-9.1 6.1-14.4 2.4 1.7 5.6-4.5 2.6-5 7.1 5.3-.9 9 2.2 13 5.1-9.4-1.8-19.1 3.6-29-1.3 4.2-1.9 7.9-3.7 11.7-5.4-.1-.5-.3-.9-.4-1.4-3.1 0-16.8 1.6-15.4 7.1 1.2 5 9.4 1.7 12.2 4.5-2.3 6.7-9.1 4.1-13.6 6.3 2 2.5 4.5 1.7 6.4 2.6-2.3 6.6 7 3 6.8 7.9-3.9-.9-7.5-3.5-12.5-2.4 1.8 2.5 3.2 4.4 5.9 4.8ZM258.7 650.6h.1c-1.5-3.4-6.4-2.3-8.6-6.4-5.2 4.1-5.1-3.8-8.8-3.6-4.5 4.9 1.9 13.3-6 16.7 2.6 4.7 9.7 2.5 11.5 8 1.2 3.7-3.8 7.1-1.9 10.6 2.4.8 2-2.4 4-1.8.9.8 2.3 1.3 2.4 2.8-1.5 3.8-7.6 4.5-5.8 10.9.5 1.6 9.3 9.6 11.3 9.9.5-2.5.9-4.7 1.4-7.3-5.2-1.2-5.7-9-2.6-12.7 2.1-2.6 15.6-6 18.7-5.6 4.2.5 7 2.6 4.7 8.1-3.3 7.8-3.4-1.7-9-.4-1.4 1.5-2.2 4.4-4.9 3.9-4.1-.7-.5-3.7-3.2-5.3-3.1 0-2.5 3.7-4.6 4.3 1.3 2.9 2.7 6.1 4.9 8.5 1.4 1.5 6.2 3.4 6.8 5.3 2.1 6.8-2.8 2.7-5.8 3-3.3 3.9-3 4.5-3.4 9.1 0 1.1-.9 10.9-.3 12.2 3 6 12.9 1 10.4 10.9 4.9-2 3-5.9 3.5-9.1-2.3-1-5.1-.8-5.9-3.9 2.4-2.1 4.8-8 7.9-8.4 3.6-.5 7.9 2.9 5.9 6.6-3 .5-4.3-2.4-5.4 2.1-.2.6 4.6 10.2 5 12.1 1.5-3.9 20.9-10.7 6.4-13.9-1.2-3.6-1.4-6.8-.6-10.1-2.4-.2-2.1 3.6-4.8 2.3-2-4.1 4.8-7.4 1-11.9 3 1.4 9.2 2.8 10.1-2 .6-3.1-3.2-3.1-4-5.7.4-2 3.2-3.1 1.7-5.5-5.1-1.6-6.4 4.9-11.5 5.6 6.7-6.7-1-21.8 9.7-25 2-.6 7.2.1 9.6.3 1.8-1.9 3.6-2.3 5.4-1.2.3 1.1 1 1.9 2.1 2.4 6.2-13.8-19.3-5-22.1-7.1-.4 1.4 1.1 2.5-.8 4.1-4.6-3.5-7.6 1.8-12.1 3.1 2.6-3.7.5-6.5-1-9.1 3.3-5.3 6.9-3.6 10.5-.8 2.7-4.5 2.7-5-.4-8.7-2.3-2.8-6.3-5.1-9.8-3-.2 2.4 2.8 1 3 3-2.6 2.8-5.5 4.4-9.8 2.8 1.7-3.8 3.2-7.3 4.8-10.8-3-2.4-8.6 8.9-9.8 10.8Zm136.7-71.2c.3-2.5 2.8-4.3 2.7-7.1-2.1-1.1-4.1-.8-5.8-.6.5-7.8-5.1-4.1-8.3-4.3-2.3-2.4 1.6-5.5-3.6-4-3.2.9-4.9 7.7-4.1 10.6q-3.3-1.7-3.3-6.6c-2.5 2-5.2 3-8.3 2.2-.3 2.9 2.6 5.7-.5 8.2-3.4-5.9-2.4-11.1 2.5-12.8-.6-1.8-1.3-3.6-1.9-5.3-2.5-.3-2.4 2.9-4.5 2.8-4.1-8.9-11.9-14-19.4-19.9 3.4 6.9 4 14.5 5.3 21.9.3 1.9 2.5 7.7 2 9.9-.6 2.7-2.5 2.9-3.7 5.1-5.8 11-14.2 14.8-15.2 28.4-1.3 17.1-.7 34.4-1.3 51.5-.6 15.8-2.6 34.9 4.1 49.7 3.7-3 7.3-3.1 9.5-7.8 2.1-4.4.4-12.3.2-17-.5-11.8-1.2-23.7-1.7-35.5-.6-13 1-26 .9-39 0-9.5-1.6-18.3 5.6-25.8-.4 2.4-.7 4.1-1 5.9 5.1 1.3 5.6 11 6.9 15 1.9 5.7 2.4 1.8 2.6 7.8.1 3.6-5.4 4-2.1 8.2-3.4 5-6.9 3.4-5.6 9.9.5 2.6 4.3 8 6.9 8.7 5.2 1.2 5.5-5.9 10.1-7 5-1.3 9.4 5.9 14.7 1.4 1.2-2.9-2.4-1.9-1.7-4.7 4.1 3 6.1-1.7 9.5-2.2 3.5 8.9 2.5 10.8-2.6 19.1 3.5 6.9 16.4.7 18.9-4.1 2-3.9 0-16.1-3.3-19.2 4.1-.4 4.3-2.6 3.1-5.5-5.2-2-11.5 8.7-16.1 9.9 3.8-6.3 7-13.3 16.2-12 1.4-12.9 2.2-25.2.3-37.3-3.4-.3-4.3 6.6-8 1.5Zm-169 49.3c8.2-7 17-4.1 26.8-1.4 6.3 1.8 20.5 10.3 26.8 9.7 2.3-.2 12.8-5.4 15-7.7 4.6-4.8 1.3-13.9-3.3-17.9 7.7-4.7-6.4-11.5-9.1-13.9-6.8-6.1-5-12.3-8.5-20.2 4.8 3.2 1.6 6.6 4.5 10.3 2.6 3.3 6.2 3 9.8 5.1.3-3.6-2-6.1-2.9-10.2 5.5 3.6 8.6 8.6 14.1 10.3 5.4-11.9-3.8-12.4-11.5-21.1.5-1.8 1-3.5 1.5-5.1 3 0 3.8 5.5 7.2 3.5 4.4-2.6.5-4.5-1.6-7.1-6.1-7.8-11.2-8.4-4.3-17.7 2.6 5.1-.8 11.9 5.4 15.2 3.7-2.8 3.7-7.3 5.9-10.8-3.1-2.3-3.7-5.4-4.5-9.1 1.9 1.2 1.8 3.6 4 3.5 2-5.1-.2-14.3-3.7-18.4-6.7-7.8-9.7 3.5-16.3-2.5-11.1 11-9.8 25.6-12.1 39.3-4.5-1.1-4.9-4.6-5.5-8.1-7.7 7.1 3.2 4.5 2 11.8-4.5-.1-9.6-.6-13.8-.9-3.1-.2-5.5-1.8-8.3-2-3.6-.2-9.1 2.6-13.1 3.4-4.4.9-14-.7-17.1 3.6 13.6 1.6 30-7.1 42.6.3 3.8 2.2 8.9 4.2 9.6 7.3.8 3.7-9.6 13.3-2.4 15.5 1.6-1.1-.7-2.4.8-3.3 3.1 1.5 6 3.7 9.8 2.3 1 2.1 2.1 4.1 2.9 5.9-6.3 3.2-12.4 3.1-18.2.3-.9-1.9.6-3.6-.2-5.5-.2-.4-7.3-5.7-7.9-6.1-.5 3 2.2 4.2 2.1 6.6-3.7.8-7.2.9-9.4-3.8-1.8 2.2-4.1 2.7-6 3.4-1.2 1.9 1.8 3.6-.5 5.4-2.4-1.1-4.9-2.2-7.8-3.5 0 5.8 7.9 8.9 4.3 14.7-2.7 1.5-3-2.1-5.5-1.6 1.6 6.6-2.1 12.7-1.4 20.5ZM631 578.9c-4.1 3.6-6.4 3.6-6.2 9.5.2 5.5 4.9 12.5 9.9 14.4-2.5 5.1 5.1 6.6 8.9 8.2-.9 10-8.7 5.9-16.8 4.7 0-2.8 3.8-3.4 2.9-6.3-2-1.1-3 2.1-5.3.9 3.9-4.9-2-9.4-.6-14.6-3.1 2.5-6.2 5-9.5 7.7 6.2 6.3-3.9 16.1-4.4 24.2 5.5-2.8 2.7-2.4 4.8-7.4.8-2 1.8-8 4.8-8.4 7.8-1.1-.6 6.9 0 9.7 2.4.9 4.6-1.4 7.1-1.3 2.8 0 7.7.8 10.6 1.2 8.1 1.1 4.2 7.2 9.7 8.8 6.1 1.7 13-9.4 13.6-14.1.6-5.5 1.1-18.2-6.3-18.3 8.8-5.5.6-9.8.8-14.7-5.4 2.7-4.5-4.2-7.6-4.8-1.8 1.1.9 3.8-1.7 4.7-2.2-1.8-1.6-5.6-5.3-6.7-.3 3-3.1 3.6-4.9 5.1-1.6-.9-3-1.8-4.4-2.6ZM968.3 541c-4.3-3.5-7.7-11-9.3-16-1.4-4.5-.9-1.2-1.2-5.7-.3-4.1 2.1-4.3.7-9.2-3 2.9-.1 7.3-3.5 10.1-.8-.8-12.2-6.1-12.9-5.9-2.1.8-1.9 6.8-1 8.8 2.1-1.4 6.1-3 8.7-1.4 1.6 1 6.3 15.9 6.8 18.8-2.6.7-15.3-11.4-10.4 1.2 2.1.8 1.4-1.9 3-1.4 1 3.6 1.4 6.7-4.1 6 .4 4.4 2 7.8 5.4 10.3 1.6-1.9-.8-4.7 2-5.9 2.2 2.5 1.7 7.8 7.1 7.4.8-3.1-2.7-5.7.2-9.9.4 12.6 11.6 18.1 14.6 28.3.7-1 0-2.8 2-3.2 7.9 4.6-1.3-1.5 4.6-5.5 3.5-2.4 2.5 12.2 7.6 13.2 2.4-4.4 1.7-38.4-9.3-35.2-1.4-4-3.8-7.1-7.1-9.3-2.2 1.3-1 4.2-4 4.6ZM548.6 644.3c-6.6-.2-6.4 7.1-11.2 9.1-.6-3.5-1.9-6.5-.8-9.1-6.2-4.6-10.7.4-15.4 2.7-1.8-2.3 0-8.2-3.6-8.8-9.7 10.6-7.3 27.2-7.5 40.2 0 3.5-.4 33.6 8.1 29.2 4.6-2.4 1.5-32.8 1.5-38.5 0-4.7-.9-10.5 1.7-14.1 2.1-2.9 6.4-1.7 8.6-7.1.8 9.1 4.9 4.9 8.9 9.5 5.6 6.3-3.2 5.7-2.5 9.8 8 1.4 11.5-17.9 12.2-22.8Zm209.6-164.7c2.9-2.9 5.6-5.1 9.6-4.5-.1-2.2-1.1-3.4-2.4-4.8-3.9 4.7-3.6-3-6.6-1.6 2-2.6 1.2-4.8.7-7.3-4 1.6-5.7 4.8-7.3 8.2-3-2.2-1.8-5.7-3.8-9.7-.7 7.7-6.4 9-10.8 11.8.6-3.8-1.9-2.4-3.3-1.3-2.5 1.9-.5 5.3-.6 7.8-5.1 0-2.9-7.5-8.1-7.1.8 6.6-8 5.5-9.8 11.1-3.3-2.4-6 .6-8.4 9 5.8-1 28.4-9.4 30.2-2.1 2.1-2.1 1.7-5.8 4.5-7.2 3.5-1.7 7.6 2.3 10.6-.9 0 1.7.5 3.2 1.5 4.6 1-.4 1.9-1 2.7-1.8 1.1 1.4 2.3 2.9 3.5 4.4 7.6-3.8-.3-7.2-2.2-8.6ZM412.4 688.8c-6.6-1.2-21.2-14.8-27.9-6.5-2.5 3.1 0 15.6 2.6 18.1 1.8 1.7 6.4 2.2 9.2 3.6.1-6.2-7.9-11.9-.8-16.7.6 2.1 3.1 1.5 4.3 3.5-6 4.1-1.8 4.7-.2 8.5.2.4 2.2 6.1 1.5 5.6 6.2 4.2 7-2 9.2-6.3 3-5.8 5-10.5 11.6-11.6 1-.2 13.9.9 8.3-5.3-2.2-.9-2.3 2-4.3 1.5-4.8-4-5.1-11.8-9.5-14.9-4.2-3-6.6-.4-11.4 1.5-.2 4.3 3.7 1.7 5.3 3.9-.6 4.7-.9 10 2 15.2Zm205.2-106.7c1.4 1.6-.6 4.4 1.5 6.4 3.7-4.1 1.6-8.5.9-12.7 2.4 0 1.6 2.5 3.6 2.6 2.7-3.6 8-4.9 9.9-9.8.7 1.6-.6 3.7 1.9 5.3 1.8-9.5 2.3-21.4 6.6-30.1-.1 10-7.5 21.8.1 30.3.7-6.3 4.8-11.2 6.6-17.1 2.2-7.1.7-14.3 1.8-21.5-3.3 3.8-1.9 8.6-3.7 12.7-.2-3.8-2.9-7-2.2-10.9q-2.6 1.4-4.2-1.4c-1.8 1.4-5.6 10.3-5.7 12.4-.1 2 2.3 3 2.2 5.2 0 2.6-1.7 4.5-2.5 6.9v-6.6c-1.2 3.6-2 5.9-3.1 9.2.7-8.4-3.9-14.4-4.5-21.4-5.6 1-3.6 17.8-5 22.7-3.2 11.3-8.9 17.6-8.5 30 4.4-3.2 1.8-8.4 4.2-12Zm272.6 124.8c4.1-1.6 4.1 1.3 2.7-3.7-.7-2.6-5.8-7.8-7.7-10.6-3.5-5.2-3.8-6.9-5.2-13.3-.5-2.5-2.8-12.3-5.4-13.3-7.2-2.7-4.3 24-3.8 28.4.8 6.5-.5 13 0 19 .5 5.8 3.8 8.1 9 11.3 2.9-5-4.5-8.8-2.1-14.5 2.5-.6 4.5 1.1 6.9.7-3.7-2.2-4.8-6.1-6.4-9.5 13.2-5 3.6 15.3 9.9 17.1-.3-2.5-2.4-4.9 1.6-7.1-1.1 4.4 2.7 5.3 4.5 7.8-1-4.2-4.6-7.4-4.2-12.4Zm-27.8-285.3c10.6-10.9-10-12.6-11.6-6.2-10.5-3.8.7-6.7 3.4-7.4 5.3-1.3 15.8-1.8 19.7-6 2.4-2.5 4.3-12.8-2.2-11.6-3.4.6-3.9 8.7-6.8 11.4-1.2-5.2-2.7-9.8-8.6-9.6-.9 1.8 2.5 1.4 1.3 3.4-1.5 0-3.1.2-4.6.3-1.4 2.2-1 4.6-1.6 7.1-3.9-2.8-5.8 1.8-9 1.6.9 10.7 10.8 13.8 14.6 22.9 5.1-2.6 1.4-4.8 0-6.7 2.4-2.8 3.6-.2 5.4.9Zm-171.7 52c6.1 3.5 11.5-2.5 15-7.5 4.4-6.4 4.8-9.9 10.6-15.2 6.9-6.2 12.4-14.2 20-19.6 4.2-3 21.1-6.1 18.7-9.3-17.6 5-28.5 10.4-40.6 24.7-7.6 9.1-29.7 12.1-23.6 27Zm-375.5 87.8c2.5-.4 9.5-1 8.4-5.5-1.2-5-3.6.5-5-.2-3.5-1.7-4.4.3-2.8-6 1.2-4.5 8.4-10.4 12.1-12.8-2.2-9.2-11.6.3-15.7 1.3-1.4-1-.6-3.8-3.6-4.1-2.2 8.9 6.5 25.2-.6 33.4 4.2 1.9 10.3 7.2 13.9 4.6 5.9-4.3-2.5-10.1-6.7-10.8Zm352.1-40.6c-2.3 11.2.5 22.5-3.5 33.9-.9-2.5 0-4.7-1.3-6.4-2.3 1.7-1.1 4.7-3.2 6.6-1.1-1-2.6.3-3.8-.3-2.4-3.1 0-7.1-3-10.7-2.4 8-1.1 15.3-1.7 23 4.8-1.7 1.9-6 3.9-8.3 2 1.9-.8 4.7 2.1 6.2 1.3-2.8 4.1-2 6.5-2.6 3.5-.9 2.6-4.6 4.1-6.9 3 1.5 1.8 5.4 4.6 8.2-.3-8.5 3-15.7 3.5-24.6-3.4 2.8-1.6 6.2-4.5 7.7-1.3-8.4.6-16.7.3-25.6-1.9 1.7-1.3 3.2-1.9 4.8-.3-1.9 0-3.6-2.1-5ZM371.7 513c-4.8 3.8-10.5 7.7-16 3.4-2.5-2-6.2-17.8-9.8-15.8 1.5 4.8.4 11.5.1 16.3-.2 3.7-.6 4.2-1.6 8.2-3.7 15.1 6.3-.6 11-4.1-1.7 6.2-10.8 17.8.2 8.2 3.5-3 18.8-11.1 16-16.2Zm429.9-5.4c-2.5 2.7 1.5 2.9-.2 5-2.7-1.1-5.1-2.4-5.6-6.6-1.9 2.9-3 5-3 7.5 9.6 5.6-3.2 9.6 1.8 12.8 2.9 0 1.7-3.3 3.4-4.5 3.8-2.5 2.7 0 5.3-1 .9-.3 3.6 3.1 4.4-.2.4-1.9-2.8-2.7-2.5-4.9 5.3 0 8.5-11 9.4-15.7.7-3.5-.5-7.3 0-11 .6-4.1 4.6-8 1.5-12.2-4.9 6.5-6.2 15-13.6 19.5 3.1.2 4.3-2.7 6.7-3.1-2 3.2 2.3 6.1.8 9.7-1.6 3.8-5.2 3.6-8.5 4.5Zm-194.3 30.2c-2.2 7.3-4.2 14.2-6.3 21.3-2.8-2.3.8-5.3-1.1-7.5-4.3 1.7-7.2 19.6-4.2 26 2.1-3.5.7-7.8 2.7-11.8 1 3.8-.4 7.4 1.2 11.3 3.3-4.3 2.4-9.1 3.9-13 .9 3.9-1.4 8.5 2 13 1.1-4.1 2.1-9.8 1.8-14.2 0-1.2-2.6-8.2-2.3-8.8 1.6-3.3 3.8-.7 5.7-3.2 1.6-2 2.3-7.6 2.5-10-1.6-.9-3-1.6-5.9-3.3ZM313.2 464c7.3-10.2 11.7-12 2.4-19.9.1-1.9 3.2-1.4 2.8-4.3-3.1-1-4.6-4.5-8.2-7.8.3 7.3-4.5 12.8-1.4 19.3-2.5.3-1.9-2.9-4.4-2.7-.9 4.4.8 8.5.9 13 1.7-.7 1.8-2.6 3.8-2.4.8 1.8 2.1 3.4 4.1 4.9Zm480.9 14.1c-1.4-4.3-5.4-8.5 1.5-11.5-.3 4.8 1 5.5 7.4 4-1.4 2.3-3.6 4.1-2.1 6.9 3.6 1.3 5.1-2.6 8.8-2.4-1.8-1.6-2.9-2.5-3.9-3.5 1.3-1.6 3.5-1.8 4.2-4.3-8-10.4-16.9-20.2-27.2-28.9 8 7.5 12.9 16.8 16.7 27.3-9.8-.9-11.1 4.4-14.4 12.9 3.5-.2 6.1-1.3 9.1-.6Zm-30.9 84.8c.7 1.9-1.1 4 .5 5.7 7.2-.1 5.7-22.1-.6-29.4-1.5 1.2 0 2.9-.8 4.2l-6.6 1.8c-.3 2.8-6.3 12.9 0 11.8-.5 3.4-3 6.1-2 10.2 4.2-4.7 4.3-10.8 7.6-15.3-.5 5.3-3.9 11.9-2 17.2 2-1.8 1.1-4.7 3.8-6.2Zm-551.6-55c1.7 3 5.5 1.8 8.1 3.4 3.1 2 5.3 5 8.4 7 5.3 3.3 15.7 8.6 20.3 3-11.5-12.2-29.2-18.6-36.8-13.4Zm345 5.3c5.9-3 17.1 2.5 23.9 1.6 2.8-.4 8.9.9 8.5-4.3-.2-3.4-2.2-1.9-4-4-1.5.7-1 2.9-2.6 2.9-1.7-1-.1-3.2-.7-3.4-6.2-.5-13.1-7.7-19-5.8.1 2.8 6.7 2.8 4.7 5.9-1.5 2.3-9.4 1.6-11.3-.4.1 1.3-.4 6.2.4 7.6ZM434.8 505c7.4.3 11.6 4.4 18.9 5 9-10.5-19.6-19.6-20.4-18.4-.9 1.4 1.4 3.2-.6 4.2-1.6-.6-1-3-3-3.3-6.3 5.8 5.5 8.8 5.2 12.6Zm351.9-222.8c7.7 11.9 14.4 24.4 19.4 37.9 2.3-6.5-4.6-25.7-8.6-31.3-1.7-2.4-16.2-18.7-17.9-18.3-.3 5.6 3 10.1 4.3 15.2 2.2-.6.7-2.7 2.9-3.5ZM658 408.5c-6.6 7-8 4.9-12.1-2.4-4.2-7.5-7.9-14.2-14.8-19.5 3.2 8.1 9.4 14.7 13 22.6 3.8 8.5 7.7 19.1 9.1 28.4 1.2-4.2 3.9-7.6 4.5-12.2-1.6 0-2.6 2-4.8.8-3-6.7 4.5-11.2 5.1-17.6Zm113.5 217.7c.5 6-1.9 3.1-4.8 3.9-1.2.4-10.8.1-12-1.5.3-2.7 3.3-1.8 4.2-3.9-1.9-1.2-.4-3.5-1.4-5.3-2.8 1-2.2 4.6-5 5.7-.4-4.1-2.9-5-6.7-4.3 3.2 3.9-.6 10.4 5.8 14 4.7 2.6 29.2.7 19.8-8.6Zm241.4-83.2c-1.3 1.6-2.7 3.2-5 6 .5-5.7 5-10.7-1.8-14-2.2 5 0 9.8-.7 14.6-.5 3.8-4.2 10.6.3 13.8 2.3-2.6.8-6 2.5-9 1 3.7 2.4 2.7 3.6-.2.5 5 .9 9.3 4 14.1 2.2-5.8-1.3-8.9-1.2-14.3.2-5.8 4.3-6.9-1.8-11.1Zm-655 169c5.4-1.3 7.4-1.7 10.7-5.1-1-1.9-.7-3.4.7-4.7 1.6-.4 3.1-.5 4.7-.1 0 0 10.6 1.1 10.2-1.6-.5-4.6-4.4-1.1-6.9-1.9-1.1-1.3.4-3.5-1.4-4.5-1.8-.4-1.3 2.3-3.1 2.2-2.3-1.4-4.6-3.5-7.8-3.1-3.2 5.7-1.9 12.7-7 19Zm-75.3-267.5c.4-4 1.3-7.6 3.9-11.4-3.3-.8-1.4-6.5-6.1-6.2-1.3 1.7.7 5.3 0 7.2-1 2.8-4.4 1.6-5.2 6.2 1.9.7 3.4-1.4 5.3.1-1.9 3.9-.9 14.5 5.3 12.2 4.4-1.6 5.2-17.5 4.5-21.5-2.1 4.8-2.8 10.2-7.8 13.4Zm623.2 16.4c.8-2.5-5.1-8.4-6.4-11-2.9-5.6-2.4-10.5-10.5-11.1.2 1.8 2.9 5 1.3 6.7-2 2.2-1.3-.2-3.1.5-.6 2.6.9 8 4 9 3.7 1.1 2.6-1.3 5.6-2.1 3 2.1 1.1 6 3.2 8.2 2.2.3 1-1.7 2.4-2 1.3-.2 2.1 2 3.6 1.8Zm-179.7-80.2c18.9 6.7 32.5 21.3 47.7 33.5-8-11.1-18.9-17.4-28.3-26.7-3.2-3.1-4.6-8.6-9.3-9.7-5.9-1.4 2.4 5.2 3.7 5.8-4.9-.2-9-2.8-13.8-2.9ZM694 347.6c4.4 3.1 9.8.2 14.6 2.2 4.8 2 7.3 7.5 12.2 9.7-.4-2.9-.7-5.2-2.5-6.9.8-1.2 2.7 0 2.9-2.5-4.7-1.4-10-1.4-14.5-4-.4-11.8-10-3.3-12.7 1.5Zm-416.1 13c2.5-2.1 6.5 0 7.4-.8 1.8-1.7 2.3-13.5.6-15.6-8.1-9.7-8.6 11.8-8 16.4Zm113.8 164.3c-4.1-2.5-9-2.4-13.4-4.8-1.7 3.4-10.4 10-7.8 13.7 2.4 3.4 18.3-7.4 21.2-8.8Zm223.9 22.7c-3 6-10.7 23-3.7 28.5 3.3-2.1 1-5.9 2.6-8.5.7.3 1.4.5 2.1.8 3.4-1.9-.4-18.4-1-20.8Zm221.1-182.8c9.4 1 10.4-23.8 10.4-30.5-1.6 4.4-3.6 11.4-5.8 15.3-3.5 6.2-7.1 3.9-2 11.1-.8 1.2-1.5 2.3-2.6 4ZM473 657c-3.9 1-2.2 6.8-4.4 9-2.2 2.1-5 .4-6.1 1.4-4.7 4 1.1 11.7 8.2 8.2-1.1-3.3.5-14.7 2.3-18.5Zm74-220.9c-3.7 1.5-3.3 4.7-4.1 7.3-6.6.9-13.9-.1-17.5 7.7 8.4 3.9 22.7-5.8 21.6-14.9ZM225.8 595.3c-3.5-3-6.2-6.7-10.8-7.4-1.5.4-1.2 2.4-2.5 2.7-1.2.3-1.9-1.9-3.4-.9.9 6.3 4.8 3 7.8 5.9 2.8 2.8 3.6 7.2 4.9 10.9 2.9-3.1-.3-4.1.8-6.9.7-1.7 2.3-2.6 3.1-4.3ZM432 670.1c-1.2-4.7-11.3-18.8-11.1-6.7 0 4 11.7 13.3 11.1 6.7Zm270.6-250.6c-3.5-.6-1.7 3.6-4 4.2-3.2-2.4-10.5 4.4-10.7-5-4.6 1.1-7.1 4.3-5.7 9.5l1.6-4.8c1.1 2.2-.5 4.5 2.2 4.9 1.3-.9-.2-2.8 1.7-3.7 4.3 5 21.4 3.3 14.9-5.2ZM344 575.5c-3.6.4-15.5 8.3-12.8 12.8 4.1 6.9 11.7-10.1 12.8-12.8Zm442.6-54.3c-1.9 3.5 1.4 7.2-3.7 8.2 3.8 1.8 1 12.9 8.4 10.7-.6-6.4-1.4-12.4-4.8-18.9Zm44.7-64.1c.3-8.5.6-17 1.9-26-6.6 2.3-4.8 6.6-4.6 10.7.1 3.4 0 12.3 2.7 15.3Zm-221 14c7.3 2.1 5.5 4.4 11-1.5.9-1 8.8-8.2 7.2-10.2-4 2.1-15.5 8.2-18.1 11.8Zm37.1 6.7c-3 1-9.5 7.5-8.4 10 3.1 7.5 12.6-2.7 8.4-10Zm25.5-82.1c-10.5 9.2-15.4 18.7-12.7 24.2 3-6.5 11.7-17.3 12.7-24.2Zm187.2 106.2c-2.1 3-3 7.8-6.3 6.2-6.3-3.1-6.4 2.3-9.7 4.7 9 2.2 16.7-3.2 16-10.9ZM415.8 704.2c2.5 1.5 8.6 5.9 11.2 1.9 2.1-3.1-3.4-6.6-6-8.9-.9 3.1-3.3 4.6-5.2 7Zm-87.2-193c-2.7 4.4-3.4 1.6-2.8 7.1.2 1.5 2.1 7.2 3.8 7.2 6.2.2 1.6-12.2-1-14.3Zm125.3 171c-2.8 1.4-5.1 1.5-7.1-.2-5.6 5.7 7.8 10.2 11.9 9-1.4-3.2-8.5-2.9-4.9-8.9Zm489.9-200.7c-9 1.9-3 12.6.8 15.9 2.5-5.3-2.3-10.1-.8-15.9Zm-619.6 79.7c3.1.9 5.8 0 8.4 1.9-.4-4.7.4-8.4 1.3-12.7-5.7 1.6-6.9 6.2-9.8 10.8Zm385.9-31.6c-2 8.8-2.5 18.2-3.7 27.7 6.3-1 6.1-23.1 3.7-27.7Zm-95.2 112.6c-2.5 5.6 3.9 11-.8 16 1 1 1.7 2.4 3.3 2.7 3.1-3.6 1.9-13.3-2.5-18.7Zm-375.7-94.5c3.5-1.6 2.9-3.8 2.9-5.8 0-3.2 3.9-2 4.8-4.6-2.4-1.5-4.9-2.7-7.9-3.5-1.7 4.8.3 9.1.2 13.9Zm533-66.2c5.6 1.6 13.5-3.5 10.9-9.2-2.8 4.2-10.6 1.8-10.9 9.2Zm-394.7-36.3c-4.6 4.1 22.6 19 7.6 1.5-3 2-5.4 0-7.6-1.5Zm-78.8 269.4c.1 4.1.3 7.9-4.6 8.5 1.2 3 3.4 3.9 5.6 4.9 3.8-8.2 3.7-10.6-1-13.4Zm-63.2-47.9c3.9 3.8 10.5 1.8 6.4-2.1-3.8-3.6-17 1.7-8.2 7.1 1.5-1.5-.7-3.6 1.8-5Zm516.2-22c.7 0 19.6 2.9 12.8-4-3.8-3.8-9.7 3.2-12.8 4Zm-516.6 56.6c-.3-3.1 1.1-5.6 1.6-8.3-7.6-1-8.3-.5-8.1 5.4 3.4-1.9 4.6.8 6.5 2.8Zm643.8-308.2c5.1-7.2 4.9-7.9-3.7-12.4 2.3 3.2 1.3 5.6-.9 7.5 1.6 1.8 3 3.2 4.6 4.9ZM643.4 657c6.6-5.8-1.5-7.3-5.6-13.5-3 7.4 4.1 8.7 5.6 13.5Zm351.3-97c1.5.5 2.8.9 4.5 1.4.3-4.3 6.1-7.8.5-12.9-1 2.4-1.8 4.5-2.6 6.4-1.2 0-.5-1.7-1.9-1.4-.2 2.1-.3 4.2-.5 6.5Zm-642.8-70c1.4 4.8-3.5 11.2 4.4 15.6-2.4-4.3 1.5-4.5 3-7.2-4.7-1-6.1-4.5-7.4-8.4Zm1.3-105.4c-4.6-1.6-8.6-3.7-14.4-4 3.7 4.5 8 5.8 11.4 8.6 1.1-1.7 1.9-2.9 3-4.6ZM252.9 529.5c6.7-3.1 9.7-8.3 7.8-13.9-2.1 1.3-4.1 2.5-6.2 3.8 7.3 4.9-2.2 6.2-1.6 10.1Zm84 29.3c-.7 1.1-3.7 9.8-3 10.8 3.1 4 6.1-.3 7.1-3.1-6.8 0 0-5.7-4.1-7.6ZM319.5 618c-7.3.8-5.4 9.5-1.5 12.1 1.9-3.9 0-7.8 1.5-12.1Zm-58.1-71.7c-3.5 3.5-8.2 4.5-10.7 9 7-1.2 13.5-.4 10.7-9Zm345.6-168c3.7 4.6 9.4 1.9 13.6 4.5-3.1-6.2-8.4-5.4-13.6-4.5Zm309 192.6c-2 2.4-4.4-.8-6.9.7.4 2.2.8 4.3 1.2 6.5 6.9-1.2 7.6-2.1 5.7-7.1Zm-290.3-36.6c-6.1-9-13 2.6-9.5 9.3 4.5-3 .3-14.5 9.5-9.3Zm-19.8 150.6c-4 5.2-1.9 11.3-3.7 17.9 6.6-5.9 3.8-12.1 3.7-17.9Zm88.2-244.5c-5.7-2.1-8.8.2-10.5 6.8 2.4.9 2-3 4.1-2.4 1.5.8-1.2 2.6 1.2 3.4 2.1-2.1 2-5.7 5.2-7.9Zm151.1 43.2c-5.5.7-9.8 5-8.1 7.6 1.3.3 2.6.6 4 .9 1.3-2.9 3.5-5 4.1-8.5Zm162.4 156.3c-2.2-4.1 0-9.2-3.1-13.9q-3.4 9.4 3.1 13.9Zm-131-136.6c-4.1 4.6-2.4 9.5-1.3 14.4-.2-4.8 5.9-8.9 1.3-14.4Zm-522.2-75c2 1.4 17.5 7.2 13.4.2-.3-.5-12.8-.8-13.4-.2Zm89.7 238.9c1.4-1.1 10.8-4.3 2.4-5.4-3.7-.5-9.3 4.8-2.4 5.4Zm508.7-180.8c-3.6.6-5 2.7-4.9 5.9 0 4 3.9 2.2 5.6 4 1.2-3.7.2-6.7-.7-9.8Zm-261.5-56.5c2.3 6.7 6.2 6.6 9.8.3-3.2-3.1-6.2-.5-9.8-.3Zm-64.6 52.2c.4 0 .9-.2 1.3-.3-.6-3.5-4-6.7-1.4-10.9-4 .6-5.3 3.1-7.6 4.8 2.8 2.3 5.2 4.3 7.7 6.4Zm-404 210.8c-5.3-1.6-11.7 3.8-6.5 8.7 2.5-2.8 2.1-7.6 6.5-8.7Zm366.1-92.7c-2.2 3-5 2.7-7.6 3.1-1.7 6.8 11.1 5.8 7.6-3.1Zm-192-156.5c-.6 1.6-4.2 12.9 2.1 8.7 5-3.3-.3-5.8-2.1-8.7Zm-71.3-42.4c1.2-4.7.4-9.1.6-14.1-4.8 7.2-4.9 8.3-.6 14.1ZM938 521.8c-.6-3.7 1.4-8.2-3.3-12-.8 5.2-.5 9.1 3.3 12Zm-211.6 7.6c-2.7 4.2.8 7.8-1.5 11.4 2.5-.8 3.7 0 4.8 2.1.2-5-1.1-9-3.3-13.5ZM932 377.8c5.3-.8 7.3 5.7 12.4 3.5-2.6-5.3-8.6-7.5-12.4-3.5Zm-378.6 286c3.8-6.2 4.1.3 6.5 0 2.1-3.6-5.5-12.6-6.5 0Zm40.2 20.5c3.3-3.7 2.9-7.4 0-11.8-2.3 4.5.1 8.1 0 11.8Zm-175.4-191c-3 8.7 8.2 8.9 4.8.3-1.5 0-2.9-.2-4.8-.3Zm-45 10c4-1.1 4.9-6.8-.3-6.3-4.6.4-3.7 5.2.3 6.3Zm563.4-105.4c-1.7-3-13.8-8-11.6-1.3 4.2-2.4 7.2 2.9 11.6 1.3Zm-67.8 65.3c-2.2 3.6-5.4 7-1.9 11.6 1.1-3.8 2.6-7.5 1.9-11.6Zm-184.2-.9c-4.7 3.8-9.7 2.5-9.4 9.6 3.1-3.2 10.2-4 9.4-9.6ZM440.2 654.6c1.9 0 6.6 5.5 6.9.3.3-4.8-5.9-4.6-6.9-.3ZM546 679.4c4-4 1.9-6.5-.4-9.3-1.8 1.5-1.7 3.5-2.6 5.1 1 1.2 2.8 1.7 3 4.2ZM768.9 620c-1.3 2.8-4.5 4-3.9 8.2 2.9-2 11.2-1.4 3.9-8.2Zm-404.1-76.1c-1.5 3.6-5.3 4.9-5.6 8.8 5.8-.6 8.6-4.3 5.6-8.8ZM904.1 412c-2.8 4.1-2 5.8 3.6 8.4 1.4-4-.7-6.3-3.6-8.4Zm58.9 86.6c3.5-3.2 4.7-6.9 3.2-12.1-3.3 3.9-2.6 8.2-3.2 12.1ZM605.8 705.1c-1.9 1.1-4.2 9.1-.5 9.3 3.9.2 2-7.5.5-9.3ZM1008.6 524c-1.1 1.6-3.3 2.1-3.6 4.3 1.5 1.4 2 3.8 4.4 5.1 1.3-3.5.2-6.4-.8-9.5Zm-157.3 23.9c3.7-1.1.6-6-1.6-6.8-5.2-2-1.8 5.8 1.6 6.8Zm139.3 10.9c2.2-4.5 3-7.9.4-12.3-2.1 4.1-2.6 7.5-.4 12.3Zm-143.5 40.6c-.6 0-1.2-.1-1.8-.2v13.6c1.7-4.4 2.3-8.9 1.8-13.5Zm-98.7-8.8c3-4.1 2.7-7.6-.9-10.5-.5 3.5-1.3 6.8.9 10.5Zm98.1-88.1c3.3-.6 5.6-4.8 1.1-5.7-3.9-.8-5.3 4.7-1.1 5.7ZM507.6 525c.5-.1 1-.3 1.5-.4-1.4-3.7-2.8-7.4-4.6-12.2-3.6 6.7 1.9 8.9 3.1 12.6Zm408.5 62.4c-1.1-4.5-3.5-6.3-8.1-6.9 1.8 4 3.8 6.3 8.1 6.9Zm12.8-32.8c1-2.1 5.7-1.4 4.1-4.8-1.2-2.6-5.6-.2-6.7 1.3.2 1.5.8 2.6 2.6 3.5Zm-43.2-76.1c.9-7.1 0-8.6-5.3-10.1-.1 1.4 4.3 9.9 5.3 10.1ZM410.4 499c5.5.5 5.5-7 .5-7.7-.2 2.6-.3 5-.5 7.7Zm-10.2 174.6c2.2-4.7 2.1-5.2-1.2-7.2-1 2.5-3 5.1 1.2 7.2Zm461.1-202.5c-.3 3.6-3.2 5.8-3.1 9.3 5.2-1.5 6.1-4 3.1-9.3Zm-638 91.1c3.2-4 .5-6.1-1.6-8.3-.4 2.9-1.2 5.9 1.6 8.3ZM872 381.7c-2.2-3-4.1-4.9-7.6-2.6 1.5 3.6 3.7 4.5 7.6 2.6Zm89.8 110.9c-3.4-5.2-3 7.3-2.5 8.9 1.1-3.8 1.8-6.4 2.5-8.9Zm-434.1-16.4c2.2-3.7 3.3-6.7 2.2-10.9-3.7 3.3-3.7 6.5-2.2 10.9Zm269.1 21.3c-4.8 0-5.5 3.8-8.3 5.7 5.2 1.8 6.5-1.3 8.3-5.7Zm-80-86.2c-2.7-3.1-2.7-3.1-7.3-.7q3.9 2.9 7.3.7ZM262.2 536.2c-5.2.3-7.9 2.1-9.8 6.7 4-1.6 6.4-3.8 9.8-6.7Zm739.6 8.3c1.9-3.1 2.1-6-.3-9.6-2.1 3.7-.8 6.6.3 9.6Zm-127.1-99c-3.4 3.8-3.6 7.9-4.7 11.6 3.1-2.9 5.3-6.2 4.7-11.6Zm-550.4-4.1c2.6-5.1 1.8-9.4 1-13.7-2 4.2-1.3 8.5-1 13.7Zm407.8 83.7c-2.2 2.4-4.4 4.5-1.6 7.6 4.6-1.8 3.5-4.4 1.6-7.6Zm-353.9 16.4c-2 .2-5.6-2.5-9.9-.2 4.1 3.2 8-.6 9.9.2Zm244.1 135.9c-.4-5.9-6.9 1.2-5 4.2 1.9 2.9 4.8-3.8 5-4.2Zm15.5-42.5q-3.4-3.3-6.5-1.7c2.1 4.7 2.6 4.8 6.5 1.7ZM483 728c3.7-3.1 6.9-6.4 3.3-11.5.2 4.2-1 8-3.3 11.5Zm-99.7-175.1c-2 0-3.8-.2-5.5-.3-1 2 0 3.1 1.1 4.1q3.3-1 4.4-3.9Zm310.5-195.1c-8.3-2.9-2.8 9.3 1.5 3.8-1.8-.7-.3-2.7-1.5-3.8ZM229 678.2c.1-6.2-.7-7.4-4.8-6.3 1.9 2 3.6 3.9 4.8 6.3Zm-74.1 6.8c5.4-1.3.7-4.5.8-5.3 0 0-6.7 5.2-.8 5.3Zm368.4-139.4c-4.1-1.9-5.9-1.6-8.2 1.3 2.4-1.5 5.2 1.4 8.2-1.3ZM919.5 497c-5.8 6.4-5.9 6.7-2.2 9.9-2-4.5 3.1-5.6 2.2-9.9Zm-674.4 33.9c1.7 4.1 2.3 4.2 5.5 1.7-1.2-2.1-3.1-1.8-5.5-1.7ZM404.3 499c4.7.3 6.6-4.6 1.3-5.6-.9 1.6-1.8 3.1-1.3 5.6Zm48.1-6.2c2.2 3.2 5.8 4.4 9.1 6-2.3-3-5.1-5.4-9.1-6Zm-25.8 241.8c-2.8-2.4-5.4-2.8-8.4-3.6q2.6 4.1 8.4 3.6Zm207.1-563.4c5.8-4 14.3-3.3 21.2-4-1.7 3.4-6.9.9-7.2 5.3 5.5-.7 20.5 3.6 18.2 11.6-1.3 1.5-2.9-.7-3.9 0-1.8 1.2.1 1.7-.9 3.7-.7-.5-1.3-.9-2-1.4-1.2.9.3 2.8-1.7 3.7-6.1-1.7-7.7-8.6-13.1-12.9.4 4.7 4.3 7.1 4.4 11.5-4.1-1.4-3.6-6.2-7.4-9 1.4 7.3 7.5 12.2 5.3 20.4-2-3-6.1-8.2-8.4-10.6-3-3.2-2.6-5.7-8.4-3.9 2.6 3 .4 7.2 1.4 10.7 1.2 4.3 5.6 8.3 8.9 10.9 6.9 5.6 12.9 8.5 18.9 15.5-7.3.4-10.4-5.8-15.5-9.7-5.4-4.2-12-6.6-18.5-8.5v4.8c-.6 1.8-1.8 2.7-3.9 2.6-.8 4.1 1.9 5.8 4.2 9.8-4.2-1.8-6.1-6.7-10.6-8.1-1.6 1.7.6 2.5.4 3.9-2.4-.2-3.1-3.5-6.1-3.3-.2 5.9 6.9 6.7 8.4 12.8-3.9-3.4-14.1-14.3-19-14.7-6.4-.5-4 2.4-2 7.1-6.5 3.5-11.2-1.3-16-3.1-1.9 1-1 2.5-1.6 3.4-4-.2-8.4.5-10.9-4.7-1.7 3.6 1.4 5.7 0 8.4-2.2-1.1-1.8-4.3-4-5.2-1.7 1.3-3.7 1.9-5.5 1.6-1.7 2.3 0 4.7-.1 6.8-5.1.8-2.7-7.1-8-6.4.2 1.5.3 2.9.5 4.3-2.9 2.8-4.3 1.1-5.3-1.5-2.7.2-.9 3.3-3.2 3.7 0-4.7-5.3-6.1-6.4-10.1-4.5-.9-.9 4.5-5.2-.8-1.3.8-2.6 1.7-3.9 2.5.3 3.2 3.3 4.7 4.3 8.8-5-2.7-9.6-3.5-14.8-3.5-1.5 3.2-2.8 7.5-7 9.3-.4 2.4 1.6 2.8 2.6 3.8-.3 1.5-2.5.8-2.2 2.6 1 1.6 2.5-.5 3.9.8-2.9 7.9 5.8 5.7 8.4.3 2.2-.5 1.7 2.2 3.1 2.6 4.7-2.3 10-1.8 16-4-2.1 3.2-5 1.8-6.2 3.9.4 4.1 15.3 9.1 18.5 11.1 6 3.7 12 11.6 19.3 11.3 1.4 5.4 7.7 9.8 10.9 14.5 4.7 7.1 8.1 8.7 8.7 17.7-4.3-5.2-10.3-8-15.4-12.3-4.1-3.4-6.3-7.4-9.9-11.2-5.6-5.9-11.7-14.6-17.6-6.6-1.2-1.8 1.6-2.9.5-4.7-1.1-.2-2.1 0-3.1.4-1.4-1.6-.1-3.7-.4-5.5-.8-.6-8.7-4.5-9.3-4.5-4.4 0-6.3 6.3-10.4 2.1.7-1.8 1.4-3.8 2.2-5.8-4.1-6-8.7-5.2-15.1 2.6-2.6 0-2.5-2.9-4.6-4.1-.8 4.9-4.2 9-5.1 13.6-.5 2.8.9 6.6.1 9-4.6-.8-1.4-6.2-4.8-7.7-3 1-3.2 4.4-5.6 6.9-2.2-4.4-7.2-3.1-11-5.4-4.5 3.8-5.6 9.9-9 14.6-1-6.5 5.2-11.4 3.9-18.4 6.7 0 13.4-16.1 8.8-20.7.7 6.7-9.7 7.8-6.7 15.6-4.2-2.1-5-5.6-8.4-7.9-3.7-2.4-9.3-3.3-13.6-4.1-8.1-1.5-21.4-1.6-26.7 6.3-.6-1 .3-2.7-.9-3.8-3.3.3-3.7 3.2-4.6 5.9-5.9-1.5-11.8-4.5-16.4 1.5-3.5.6-1.7-2.1-6.1 0-2 1-4.6 4.9-5.3 6.8-2 5.1-2.9 11.7-3.4 17.4-.8-6-2.4-11.9-1.3-18.7-4.5 2.1-1.4 6.3-4.5 8.4-1.8 0-3.5-.6-4.9-1.9-1.3.1-2.4.6-3.3 1.6-6.4 1.7-11.2 8.5-16.7 12.2 1.4-4.1 5.7-6.5 7.1-12.2-12.1 9.4-20.4 21.4-33.8 27.6.3-3.8 4.2-6 3.7-10.1-6.2 6.6-11.2 14.4-18.6 19.7-5.8-9.1 26.8-29.3 33.3-32.9 8.2-4.5 16.3-9 24.9-12.8 4.4-1.9 8.9-3.3 13.3-5.2 2.8-1.2 7.3-5.8 9.7-6.4 1.5 3.3 5.8 2.7 9.6-1.5 4.4 6.2 15.1-6.4 12.8-12.5-1.9.8-2 3.1-3.1 4.4-2-.8-.4-3.7-3.3-3.8-3.1 3.4-1.3 9.7-6.5 12 .2-2.8 3.9-5.6-.2-8.6-2.7 1.6-4 5.2-8 5.8 4.4-5.5-.6-11.3 2.3-16.6-3.1 4.3-9.6 1-10.8 6-3-.1-1.5-2.8-3.2-3.4-2.6.5-2.2 2.8-2.9 5.1-4.4-3.5-4.8 3.4-8.3 3.3-.8-4 5.5-3.6 4.2-8.4-3.7 3.2-6.9 6.6-11.8 7.8 0-3.5 3.4-5.1 4.3-8.1-5.6 0-8.5 3.9-12.1 8.4.8-5.2 5.9-6.7 6.5-10.9-1.8-1.6-2.7 1-4.5.6 0-4.4 9.7-4.2 12.6-6.7.4.1 1.6 2.1 2.2 2.4 1.6.8 7.9.1 9.8 0 5.5-.3 8.2.7 5.7-5.8-4.7-.1-9.3-1.6-14-.3-.5-2.5 4.6-6.4 4.3-10.9-6.8 7.9-15.4 1.3-23.5 4.3-2.1-1.1-1.5-3.2-2.8-5.1-7.5 4.9-12.9 4.7-18.1 11.6-6.7-.8-3.8-4.8-2.4-8-3.4-3-5.6-1.6-7.4 1.4-3.2-4.6-6.9-7.4-13.5-6 3.2-2.5 6.6.3 8.8-2.3 0-3.5-4.3-1.8-5.5-4.7 8.7-1.2 17.1-1 26.2 1.4-4.6 2.7-9.1.3-13.7 2.3 6.1 3 17.5 0 24 0 9.6 0 19.2.2 28.7 1.1 7.7.7 15.7 1.5 23.3 3.1 6.3 1.3 12.3 5.9 14.3-2.7-1.8-.3-6 .6-6.9-1.9-.6-1.8 2.8-2.5 1.7-4.6-2.1-1.2-2.6 1.7-4.3 1.6-.5-1.8 2.2-3 1-5.1-3.5-.9-2.1 3.6-4.6 4.1-1.7-.9.9-2.3-.4-3.4s-2.6 1.3-4 .7c-1.4-1.2 1.3-2.2.4-3.4-1.8-.7-2.7 1-4 1.4-1.3-.5-1-2-1.8-3.4-2.1 5.3-7.4 5.9-11.6 9.3 2.3-4.5 8.6-6.7 5.1-13-3.4 4.6-9.1 1-13.3 3.9 3-2.2 3.7-4.7 2-8.2-7.4-.4-12.6 5.3-19.9 8.8 2.6-3.3 6-4 7.2-7.1-3.5-1.8-5.4 1.3-8.6 2 1.7-1.1 3-2 4.3-2.8-7.2-7.8-20.3 5.6-27.5 9.6 5.3-10 14.9-19.7 26.7-19.8-8.1-7.1-52.5-7.6-61.8-.5-.2-3.8-3.2-1.4-5.9-3.2 4.7-.6 8.4-4 12.6-4.8 4.1-.8 8.9 1.6 12.8-.2-3.2-3.2-7.8-2.6-11.8-6.1 5.5.2 10.5 2.9 15.7 3.2 1.2.7 2.5 1.1 3.8 1.3.4-1.5 1.4-2.3 2.7-2.4 5.2.3 10.3 4.1 15.5 4.4 3.1.2 6.4-1.2 9.2-.5 7.8 2 52.8 28.8 57 17.4-3.9-3.4-7.2-7.2-10.8-11.9 9-1.2 15.4 5.4 23.9 5.5 3.9 0 6.2-.5 9-3.3 2.2-2.2.4-6.5 3.7-7.8-1.1-1.8-3.3-.4-4.1-2.2 0-3.4 3.6 0 2.4-5.7.6-1.7 2.7-1.3 3.8-3-1 0-4.1-4.3-5.5-5.1-4.7-2.7-11.4-3.8-16.7-4.5 0-1.8 2.5-1.9 2.3-4.6-.2-.6-3.9-.5-2-3.1-1.8-.9-2.4 1.1-3.8 1.1.2-2.5 2.7-3 3.7-5.3-3.6-.1-1.4-4.9-4.8-5.4 2.2-2.1 5.6-.7 7.9-3.1-2.9-3.5-6.4-3.2-9.9-2.3-1.6-2.7 1.6-3.6 1.5-5.6q-8.1-7.5-16-1.9c-4.6-3 4-10.8-7.1-9.4-7.3.9-11.5 8-19 8.1-2.3-9.1 4.3-14.5 9-20-1.5-2.7-3.3-.9-4.9-1.8 2-3 4.5-5.2 5.6-8.6 3.2 1.4 2.2 6.7 6.8 6.3.5-14-15.9-11.1-18.8-21.6 4.3 1 7.9 2.4 10.9 4.6 1.8-1.6.4-3.2.9-4.6 4.2 0 4.1 4.1 6.1 6.6 2.2-.4 4.3-1.6 6.4-1 2-1.1.3-3.6 2.3-4.5 2 0 10.7 15.7 12.3 17.9 3.4 4.7 5.4 13.6 10.1 5.9 10.7 5.6 20 17.1 27.1 26.6.2-4.7-12.2-21.8-19.8-27.6 2.9-.1 5.1-1.3 8.2-2.7-8-2.6-5.1-9.4-8-14.1 3.5-.4 3.7 2.6 5.2 3.6 1.3-.1 1.1-2.1 2.6-1.5 2 2.9 1.5 6.7 3.4 10.2 1.9-2.1.3-4.5 1.8-7 2.2 5.1 1.5 10.4 3.6 14.9 4.4-2.3 4.7-1.8 8.1 11.7 1.5.2.9-1.5 1.9-2 4.5 2.9 7-2.7 7.2-7.5.4-7.3-6-14.3-9.8-20-4.3-6.6-8.5-13.6-14.2-19.1-5.2-5-15.4-7.6-19.1-13.4 6.5-2.5 14.9 4.3 21 5.8-3.9-4.5-9.8-6.7-12.9-12.1 1 0 1.9 0 3.4.2-2.8-4.5-8-5.9-10.7-10.2 1.1-1.5 4.1-2.7 1.9-5.8 7 4.1 14 8.1 20.7 12 2.3-.1 2.1-2.5 3.8-2.9 6.6 6.9 10.9 15 11.5 24.6 3.5-.4 2.2-3.6 4.7-4.1 6.6 8.6 3.4 29 5.6 39.5.7 3.2 1.8 12.7 4.6 14.6 5.4 3.5.5-9.9.5-9.6-2.6-11.9.6-24.4-1-36.4-.8-6.2-2.3-12.2-4.7-17.9-1.7-4.2-7.4-11.1-7-15.6 5.4 1.8 4.9 9.6 11.6 11.5.2.3-1.3 1.8.2 3.2 2.3-1.3 4.6-.9 6.1 1.8 2.3-1.9 1.7-4.7 3.4-6.4 4.8.1 8 4.2 13.2 6-3.6-5.4-7.7-9.2-6.4-16.1 1.4-7.2 3.7-5.9 10.8-4.4V0h3c-1.6 6 1.2 11.5 1.8 17.4 3.8-5.3 4.3-11.9 7.2-17.4h2c-2.7 7.2-5.6 14.3-7.7 23.2 5.7-7.9 8.7-15.6 11.7-23.2h2c3.7 5.1-1.1 9.4-1.4 14.1 2 1.4 2-2.1 3.7-1.3 0 2.2-2.5 3.7-1.3 6.6 6.4-.8 1.4-9.9 9.2-9.8 9.4 3.6-7.3 24.2-9.5 31.1-2 6.2-3.1 12.7-3.9 19.2-.5 3.8-4.5 13.2-3.4 16.1 2.9.4 2.9-4 5.9-3.6.4 6.3-1.1 12.3-2.3 18.6 5.6-5.1 9.4-3.9 16.2-3.2 4.1.4 10.5-1.6 14.2-.2.3.9-1 3 .7 4.9 5.1-8.9 7.9-19 15.5-26.6 1.4 6.7-12.9 15.1-2.4 18.3 3.4-8 9.5-14.5 13.4-22.4-.6 4.1-10 16.5-2.6 17.6-6 5.4-11.5 10.2-16.9 15.1.2.4.3.9.5 1.3 11.9-5.8 22.6.4 34.2 1.8-1.1 1.7-4.2.9-5.6.8-.9.9.6 6.3.7 7.3-9.4-1-18.6-2-27.9-2.9-.1.5-.2 1-.4 1.5 5.9 1.2 11.9 2.4 16.6 7.3-3.9 1.7-7.9-1.3-12 1.7 4.4.4 7.9.8 11.7 3.2-4.9 1.3-9-1-14-.2 4.7 2.9 9.6 2.8 14 5-1.5.9-5.7-.8-2.5 3.4-4.8-.5-9-1-14.3-1.5 1.5 1 2.2 1.5 3.6 2.5-5.4-.4-9.6-.9-14.1-.3-.9 1.7 2.1 1.5.9 4-1.1.8-4.8 1-3.8 5.1-2.8.4-5.8-.2-6.9 3 2.2 3.4 5.7-1.2 8.1 1.1-.2 2.4-3.5 0-3.4 3 3.8 1.2 6.6 4.4 9.6 7.3 9.5-3.6 42.5-41.6 51.9-33 0 1.9-2.2 2.4-2.5 4.6 4.6-1 8.7 2.8 13.4-.1.1.6.3 1.2.4 1.8-4.1 1.8-8.2 3.7-12.3 5.5v1.4c5.2-3.1 9.6-.5 14.8 1.4-6.4 2.3-12.7 2-18.5 4.3 5.3 1.7 10.9-.2 16.8 1-4.2 4.9-13.5-.9-15.1 7.6-10.6-1.5-3.8 8.9-8.2 11.7-1.7-1.8.3-4.8-1.5-7.6-.7 4.3-1.3 8.1-1.9 12.3-4-4.8-.3-9.2-.3-13.5-9.1-.1-6.1 7.2-7 11.9-4.7-1.8-2.6-6.7-5.4-9-2.5 8.4-6.2 12-11.3 10.8-1.4 6.8-1 15.5-6.9 19.8-2.2-3 .1-7.4-3-10-2.5 1.5-4.6 17.9-6.5 5-2.5-.7-2.1 1.1-2.5 2.4-1.4-.5.2-2.9-2.1-2.8-4.7 4.1.3 6.4 3.8 9.3-3.6.5-5.7-1.5-7.9 0 .3.7.6 1.6 1.2 2.9-4.2 0-3.9 2.8-3.7 5.6-1.7 1.1-1.4-2.2-3.5-.6-2.2 1.7 2.5 4 2.7 5.1-1.6 1.1-15.5 9.5-11.6 12.2 4 2.8 6-2.7 7-5 3.1 2 17.2-5.9 20.7-7.3 9.2-3.7 18.2-8 27.4-11.7 15.7-6.5 36.2-11.8 53.2-13.5 1.9 3 4.5 3.1 8 2.2-2.2-4.3-5.7-1.3-8.2-2.1Zm-190.2 57.1c-6.2-.6-5.1 1.1-6.7 5.2.2-.4-.7 7.4-1.7 5.9 1.8 2.9 7.6 1.1 12.5 1.6 3.1.3 19.3 4.5 18.9-.5-.5-5.6-19.1-10.9-23-12.2Zm-3.8-13.5c-6.2 8.4-.6 10.4 6.1 12.3 7.3 2.1 19.8 12.9 26.7 12.3 2.8-9.5-26.9-21.5-32.7-24.5Zm67-35c-2 4.9-7.1 2.7-10.1 5.7-3.5 3.5-2.2 11.7-3.8 16.3 6.1-3.6 3.3-11.5 9.3-16.6-1.7 7.7-3.2 14.1-4.7 20.9 6.9-2.5 8.6-7.2 5.5-13.3 4.2-2.4 6.3 3.5 10.5 2.4-4.8-1.4-3.7-8.4-9.5-9 .9-2.2 1.9-4.3 2.8-6.4Zm-48.4 33.9c-6.1 8.1 8.6 15.2 13.6 19.2 1.5-5.2-7.6-18.8-13.6-19.2Zm85.3-66.9c.2 2.2 4.3 3.2 1.3 5.6-2 1.6-4-2.4-6.3-.5-.7 1.2 1.1 1.6.8 2.6-.9.9-2.8-.8-3.6 1.8 2.6 1.1 3.6 6.4 7.7 3.2 2.8-2.2 5.6-5.1 6.6-8.8-1.6-2.6-4-3.2-6.7-3.8ZM426.8 96.7c-9 3.6 4.8 17.5 9.3 15.8-2.9-5.4-7.4-9.7-9.3-15.8ZM527 173.2c7.4 2.9 14.9-13.6-2-10.2 1.2 3.2 4.6 3.2 5.8 5.8-.8 1.5-3 1.5-3.7 4.3Zm105.2 28.2c-4.9-4-9-7.4-13.4-11.1 0 8.8 4.6 12.8 13.4 11.1Zm-155.7-3.2q-5.7 4.8-1.3 11.5c5.1-5.7 5.3-7.6 1.3-11.5Zm-22.2-24.8c-4.8-1.8-8.6-.6-12.2 2.5 1.5 1.5 3.1-.8 4.2.5 5.3 5.8 5.6-1.1 7.9-3Zm-16.4 28.2c-6.7.4-8.6 1.7-10.1 6.8 2.2 0 4 1.9 7.1 1.5-1.4-3.6 1.5-5.5 2.9-8.3Zm-31.7 20.9c5.1.7 8.8-6.2 4-8.4-3.8-1.7-4.7 6.6-4 8.4Zm25.6 12.8c-3.6-.3-8.1 6.1-3.8 7.4 5.2 1.5 4.4-4.8 3.8-7.4Zm33.7-108c6.3.5 5.8-8.3 1.6-10.8-.8 3.7-2.3 6.9-1.6 10.8Zm-14.9 87.4c0-3.7 3.6-6.8-.7-10 1.8 5.2-4.8 5.5-5.3 9.8 2.3 0 4-3.3 6 .2Zm71.7-81.6c-2.5.4-4.8-.4-6.8.6.5 4 5.8 2.6 5.9 6.9 2.5-2.6 1.1-4.8.9-7.5Zm-24.2-78.7c-1.5-3.8-4-6.4-8.8-7.7 1 5.8 5.2 6.5 8.8 7.7Zm-9.6 145.9c3-2.9 2.5-5.3.4-8.3-1.7 2.9-4.1 5.1-.4 8.3Zm-83.8 13.5c-4.9 1.9-4.9 2.2-1.9 8.7 2.2-.5 2.7-6.5 1.9-8.7ZM139.5 454.5c-1.2 7.9-4.4 16.6-5.2 24.4-.6 6.4 3.2 9.4-1.7 15.7 2.5.9 4.9-.6 7.5.3-1-.3 6.1 4.5 6.2 4.7 12.2-2.5 14.5-15.5 22.8-22.3 8.5 10.8-6.2 9.9-6.8 19.7 3.2.6 3.4-5.3 6.8-3.5 4.5 2.4-2.3 3.1-2.6 4.1 1.7 3.9 3.9 6.9 4.8 11 1.6 7.4.4 16.9.6 24.5.3 11.7 4.7 31 .6 42-3.2-11.2-6.5-1.4-11.1-2.3-7.9-1.6 0-11.2-4.7-16.1l-1.2 8.7c-.6 2.2-2 3.3-4.2 3.2-2.8 3.7-3.2-.4-4.8 5.7-1 3.6-2 28.8 6.4 19.2 1.7 0 .6 2.3 2.5 2.5.3-3.2 1.5-6.2 3.1-9 1.7 5.2-1.6 10.4 0 15.7-4.6-.8-5 4-7.9 6-7.8-2.9-3.6-8.5-8.4-12.9-7-6.5-10 8.5-7.8 13.4 2.5 1 2.9-1.7 4.8-2 2.8 4.6-1.5 6.8-1.7 11.7-.2 3.9 2.1 6.9 2.5 10.6-6 3.8-11.2 1.9-15.2-5.6-3.4 3.7-.7 15.5-1.4 21.2-1.2 9.2-1.6 16.4-.9 25.5.9 10.8-1.1 23.3-3.1 34-1.2 6.4-2.2 18.3-6.2 23.5-4.1 5.3-12.1 2.3-18.3 1.7-11.3-1.2-22.5-2.1-33.8-2.5-11.2-.4-22.4-1.3-33.6-1.3-4.9 0-10.6 1.3-15.5.7-5.4-.7-7.5-3.3-12.2-5.5v-13c3.5 3.4 6.9 4.5 10.1-1.4 1.6 5.3 8.6 1.6 7.5-2.8-1.5-6.2-14.1-5-17.6-1.8v-19c2.3-3.7 8.5-25.1 4-28.3C1.2 660 1.9 665.8 0 671v-27c2.5-.9 2.7 2 4.2 2.6 4.2-2.1 6.8-3.6 9.2-7.4 1.7-2.7 2.5-12.2 7.4-10.7 0 3.8.4 7.7 2.6 11.1 1.7-.5.4-2.7 2-3.1 1.5.2 2.6 1.7 4.4 1.1 2.2-2.1 1.7-7.9 5.6-7.5 3.2.4 3.3 7.8 2.9 10-1.8.6-3.7 1.1-5.6 1.4-1.8 1.2-3.1 2.7-4.1 4.6-4.2 2.1-6.2 3.1-11 1.4-3.3 5.4-1.5 11.8-.9 17.7l.1-.1c-6.1 7.8-5.1 12.9 1.8 20.9 5.2 6.1 14.9 5.5 8.8-3.5 2.8-.7 2.6-3.3 3.7-5 5.1 3.5 19.2 30.5 24 15.8 3.8-1.7 6 .6 8.3 3.1.5-2.7 1-4.8 1.5-7.5 3.3 2.7 6.4.7 9.3 0 1.8 4.6 4 9.2-3.1 11.4 4.1 5.6-10.1 15.9-12.2 21.6 10-4.2 16.5-12.7 24.6-21.4.5 7-1.2 12.8 3.3 17.4-1.6-4-.1-7 2.3-9.6 1.7-.4 1.6 2.6 3.6 1.2.8-2.1.4-5.4 5-4.5-2.6-4-.9-8.7-4.7-11.4-1.6.9.2 3.1-1.7 3.8-7.7-8.6 9.7-25.1 19.1-21.5-.4 1.9-3.3.8-3.7 3.1 6.9 4.3 9.4 11.3 10.1 19.2 2.1-18 .2-35.6 1.7-53.5 5.9-3.2 1.7-4.5 1-8.2-.5-2.4-1.2-4.6-1.5-7.7-.7-7.2-2.1-16.9 3-22.7 3.7 3.7 11.4-2.4 9.3-6.9-1.7-1.1-2.8 1.5-4.3.5-2.5-3.5 5.2-15.3-1.9-15.8 3.6-5.2 8.2-7.4 14-7.4 1 1.2-1.6 2.3 0 3.8 2.9-1 3-3.2 2.8-5.6-6-2.5-4.2 1.9-8.5-4.9-2.8-4.5-3-10.4-3.9-15.6-2.1 9.6 3.7 20.9-7.6 28-2.6-.5-2.2-4.7-5.6-4.8.9 2.2 4.4 8 2.5 10.4-5.4 3.3-9.7 8.6-15.6 11.1-7.8 3.3-14.9.9-22.7-.8-1.4 8-13.6 2.4-20.5 2.8-.8 1.9 0 3.8.3 5.8-4-.9-5.3-4.8-10-5.4-4.9-.6-11.4 2.1-16.6 2.2 1.6 7.9-5.3 9.6-10.4 13.4-2 1.5-4.7 2.9-6.2 5.1-1.2 1.9 1.2 5.6-1.7 6.6-5.8-3.3.4-8.3-1.5-12.3-.5-1.1-5-2.7-6.5-4.5-3.9-4.9-1-22 5.5-15.8-6.3-15.9 21.6-24.4 31.2-28.5-2.9-1.9-26.6-13.6-23.8-3.4q-3.8.4-7.7-3.5c-3.3 4.1-7.5 4.2-12.1 2.5.5-22.4.5-44.8.5-67.1 4.2-.6 3.6 3.7 6.2 5.2 3.7 2.1 8.1 3.1 12.1 5.3 3.3 1.8 8 6.9 11.4.9 2.6-4.5-4.5-8.7 2.4-14 2.5 3.3-1.9 7.4 2.4 9.9 2.7 1.5 8.1-1.3 10.1-2.7 5.8-3.7 12.3-11.6 3.7-15.4-6.9-3-10.5 2-15.7 4.1-7.9 3.2-6.4.2-8.5 9.4-10.6-2.9-1.9-13.8 1-18.3 1.1-1.6 1.3-5.7 3.8-6.2 2.8-.6 7.8 4.1 11.5 4 7.8-.1 40.9-18.9 36.3-28.5-2.2.5-2.3 3.2-3.4 3.7-3-7.3-9.7-4.1-15-5.5 6-7.9 16.8-.5 22.6-8.2 1.4-.6 1 2.5 3.1 1.7 2.8-4.9.9-12.8 6.7-14.8 2.4 7.4-2.8 6.9-3.8 13.5-.6 4.1 3.9 12.3 7.4 14.6 1.4-3.2-1.7-5.7-1-9.2 10.9 5 12.7 19.4 25.5 22.2 10.6-5.2 3.4-17 10.1-24.8-.5 3.5-2.5 6.7-.8 11.1 3.6-4.8 2.7-11.1 7.1-16.3-3.8 11.4-1.6 23-9.4 32.5 12 3 7.6-16.3 13.7-15.6ZM55 508.2c-7.4 8.2 5.6 14.4 11.4 17.4 5.9 3.1 22.3 15.7 29.3 10.7 0 .1-1-7.1-.7-6.7-1.9-2.7-1.6-3.1-6-1.8-.8-4.3 2.3-8.5 1.5-12.4-.9-4.1-4.1-5-6.5-8.4-3.4-4.6-7.7-8.9-10.1-13.3-2-3.6.7-6.1-4.6-7.1-2.8-.5-6.5 3.5-8 5.2-3.8 4.2-12.1 11.7-6.3 16.5Zm31.6-43.7c8.2-3.7-4.3-13.8-8.8-10.7-.2.2-3.2 6.1-3.3 6.5-.5 5.4.2 5.6 6.8 5.6 2.2 4.3 7.6 11.3 10.8 3.4-1.6-1.4-3.2-2.8-5.5-4.7Zm5.6 109.2c-8.2-1.8-16.1-4.5-24.7-3.1 4.9-.2 6.7 3.2 8.1 6.8 1.7 0 .5-2.6 2.4-2.1 3.9 4.4 11.7 12.8 14.3 3.9 2.7-.6 5.1 2.1 8.4.7-2.5-3.2-6-5-7-9.5-.7 1.7-1.1 2.5-1.5 3.3Zm-29 15.2c-.6-2.1.5-5.2-2.8-6-2.9 1.4-.6 4-1.6 5.8-2.9-1-8.4-2.3-4.7 3.9 5.9-1.3 9.8 5.4 16.3 3.2 5.3-8.1 5.5-8.5 4.6-10.1-2.8 4.7-7.3 3.4-11.9 3.1Zm49.2-26.7c3.4-2.6 10-4.2 11.5-8 1.4-3.6-.6-8.2-4.4-7.7-5.1.8-9.9 11.8-7.1 15.6ZM31.2 709.3c4.5-6.5 6.7 3 11.2 1 4.6-2.1-.4-4.5-2.5-5.9-2.9-2-13.9-7.1-15.8-.9-1.7 5.5 3.4 1.8 5 2 1.3.8 0 2.7 2.2 3.8Zm17-168.4c2.2 3.5 2.5 6.3 6.8 7.3 1.5.4 12.9-2.5 13.3-4 1.1-4.6-16.5-4-20.1-3.3Zm-13.9 39.6c-1.2-4.7-5.4-2.6-6.8.8-1.2 2.9 6.3 3.1 6.8-.8Zm31.8-43c3 1.5 4.6 4.9 7.1 2.1 1.5-1.7 1.9-4.6-1.2-6.2-2.1 1-2.5 3.6-5.9 4Zm35.6 149.9c-5.1.3-1.7 5.1.5 6.2 2.6 1.3 3.8-5.6-.5-6.2Zm-79.6-89.6c6.1-3.6-.9-7.4 1.7-10.5-2.3 2.9-2.4 6.2-1.7 10.5Zm58.6-14.6c0 4.8.7 7.8 4.7 9.7.8-4.3-1.5-6.4-4.7-9.7ZM7.6 606.5q4.3-3.6 5.1-7.3c-3.2 2-4.4 4.5-5.1 7.3ZM0 350c13.8-4.7 34.2-17.9 49.6-15.1 8.1 1.5 1.3.4 4.7 6.1 3.8 6.4 4.7 2.2 4.8-5 .1-18.4-17.8-3.6-27.6-2.7-5.4.5-11.1-1.1-15.9 1.1 1.7-.8-3.2 5.1-3 4.9-2.9 2.3-9.1 4-12.6 4.7v6Zm1006.9 98.1c2.6-.6 5.6 1.5 7.8-1.3 1.5 2.1-1.3 3.5-.4 5.7 7.3.2 4.9 8.5 9.6 11.6v18c-3.9-8.8-11.3-14.8-17.6-21.3-.1-2.4 2.5-1.3 2.6-3.2-.7-2.6-3.7-2-5.4-3.4-.3-2.9 3.9-3.3 3.4-6.2h-.1Zm14.9 17.8c-.4-1.5-5.6-12.7-7.9-10.7-5.6 4.8 4.6 10.1 7.9 10.7ZM0 577c3.9-.6 2.7 2.7 3.2 4.7 9.3-2-.3-8.7 3.3-12.7 1.4-1.6-4.2-1.9-6.5-3.1v11Zm0 63c1.9.4 4.1 1.2 4.6-1.8.6-3.6-2-4-4.6-4.2v6Zm66.1-233.3c.8.6.9 1.3.4 2.3-.8-1.5-1.9-2.8-3.1-3.9-.7.6-1.3 1.2-1.8 1.9-2.7-1.6-1.7-6.1-5.3-6.8-3.1-.7-6.3 3.6-8.3 5.3-7.7 6.6-11.2.7-20 4.1q-3.6-3.5.9-11c-6 1.3-9 8.6-15.7 7.2-5.3-1.1-6.4-3.8-2.1-7.5 3.6-3.1 11.4.6 15-1 3.4-1.6 4.7-9.8 6.8-9.9 1.6 2.1.7 6.7 5 5.6 3-.8 3.4-6.9 1.3-8.7-.7-.6-9.5-1.3-10.5-1.4-3.5-.2-7.3.2-10.2-1.7l.1.2c5.2-1.2 7.2-6 10.9-9-3.3-5.8-8.7.9-13.3-3.8 10.1-1.1 19.6-.4 29.7-2.6 1 1.5 12.8 4.1 14 3.5 3.6-1.8 1-6.2 4.7-7.9 4.6-2.1 9.6 4.8 12.8 5.9 3.4 1.1 8.3-2.2 7.3 4.5 2.7-1.8 1.3-5.1 3.5-6.7 1.4 1.5-.9 2.9.5 4.7 9.9-.6 2.3-11.1-.9-13.3-1.3-.9.4-4.4-2.8-3.3-3.3 1.1-2.6 7.2-4.4 9.8-3-3.8 3.8-6.6.3-10-1.8-.7-2.5 1.8-4.3 2-1.6-1-.5-2.6-.6-3.9 5.7-2.8 8.3-8.7 6.6-14.8-1 .6-6.5 13.6-6.4 14.9-3.7-.4-5.2 3.1-7.8 4.6-3.7-4.3-2.6-10.3 3-17.8 1 1.6-1.1 3.7 1 5.2 4.1 1 2.3-4.3 3.7-5.8 2.8-2.8 4.1-2.9 7.3-5 4.7-3.1 10.2-8.1 14.5-1.6 5.8-11.1 19.1.9 26.6 4.6 2.8 1.4 5.7 2.3 8.5 3.6-1.9-.9 10.9 3.9 6.8 4.5 5.7-.8 8.3-11.6 7.1-16.1-1.3-.7-1.8 1.3-3.3 1.1.4-2.5 1.2-5.5-3.2-5.2 1-3.2 3.6-1.2 5.4-2.3.7-3.3-12.2-5.7-14.6-5.3 0-2.6 1.8-4.2 3-6.3-3.5-1.8-4.1 3.1-6.7 2.6-2-1.6 1.1-3.6-.9-5 2.1-1.4 5.6.8 4.8-3.4-1-5.5-5-.7-7.4-1.1-8.8-1.6-16.6-2.7-26.3-2.7 1.6-2.6 5.2-2 6.2-4.6-2.4-2.2-5.7-.3-8.2-2.1 7.4-8.2 21.2-5.7 25.7-14.6-3.5-1.5-7.7-2-9.5-5.6.5-2.5 4.4-1.3 4.2-3.9-.3-4.1-3.8.7-5.6-.4-.4-3 7-3.2 7-8.2 0-4.3-5-6.5-7.8-9.5-4.3 5.1-20.6 1.1-22.3-5.4 5.4 2.7 13.2 2.5 19 3.2 7 .9 6.4 1.7 9.7-3.5 2.6 4 .6 14.9 6.5 10.5 1.1 1.2 1.4 2.6 1 4.1-3.7 3.9-6 2.6-3.1 10.5 2.1 5.7 4.7 7.7 9.3 3.4-2.8 7.4-2 12.5 4.9 14.4 4.3-.5 4-9.4 11-5.4-2.5 4.1-5.9 7.2-6.9 12.5 4.9-.9 11.1-10.8 11-15.7 0-3.8-3.6-7.6-6.4-12-2.3-3.6-6.9-6.9-8.5-10.9-1.7-4.2.4-5.3-3.1-9.3-6.7-7.6-18-1.6-17.3-13 9.2-1.1 14.2 1.9 17.4 10 4.7-2.5 11 6.1 15.3 7.5-4.3-14.2-15.6-18.1-24.8-28 7.2-7 12.6 12.8 19.6 8.7 1.7 1.6 1.1 4.1 2.9 5.4 3.6 0 2.5-3.3 3.8-5.4 4.7-.3 9.6-.7 14.1 2.9-2.5 3.5.4 8.4.5 12.5 0 5.2-1.1 10.4-1.2 15.6 0 7.6-4.8 20.2 5.9 18.2 1.1-2.9-.4-10.9-.1-15.1.6-8.8-1.8-17.1-1.2-25.9.2-2.6.2-6.9.9-9.3.6-2.2 3.2-4.4 3.3-6.1.4-5-5.3-13.6-9.1-16.3 7.9-3 5.6 9.1 13.8-.3 2-2.4 7.6-18.3 13.1-14.2 5.4 4.1-19.2 33.8-7.1 40.3-4.9 11.1-7 16.6-4.2 29.1-1.8-11.3 4-20.3 7.8-30.1 4.8 6.2-.6 10.8-2 17.8 5.1-1.6 4.2-7.3 7.8-9.7 4.3 5.2-.9 11.8-2.6 17.2-1 3-6.5 12.4-5.4 14.9 6.8-1.1 8.9-6.5 10.6-11.9 3.8.4 1.1 6.9 6.4 5.5-1.1 2-3.9 2.5-3.4 5-6.4-1.8-5.5 5.6 1.1 6.4-.5-2.3-.9-4-1.2-5.7 9.8 3.2 17.5-13.9 2.1-12.4 2.4-6.4 13-3.6 11.5-13.4 3.6 4 6.5 4 9.5 1.9.8 3.4 1 5.9-.1 8.5-4.7-.6.3-2.7-6-1.1-.2 1.3 1.7 1.2 2 2.4.5 1.7-2 8.8-2.8 10.4-2.7 5.6-6.8 11.9-10.1 17.3 8.1-4.9 11.5-18.9 20.7-23 8.2-3.6 20 7.5 27 11.3-3.1-1.1-27.2-10.3-26.5-5.2.3 2.9 8.2 5.6 10.3 7.2 1.9 1.5 6 7.7 8 8.5-2.4 4.3-9 .6-.2 5.8 7.9 4.7 8.2 8.5 12.7 16.4-5.5-.5-5.3-7.5-9.7-9.5-1.1-.5-11.5-1.3-12.1-.3 11.3 9.3-12.1 15.4-4.8 22.5-3.8 5.2-4.4-11.6-9.4-11.9-1.5 7.3 4.6 15.9-3.7 22.3-2 0-2.7-4.1-5.2-1.7-1.9 1.7 1.7 3.8 1.9 5.5-1.9-.7-4.8-2.8-4.3-5.3 1.1-5.2 4.9.2 6.7-2.7-.3.5-1.3-11.8-2-12.5-6.1 6.6-5 15.7-8 23.2 1.2 2.2 2.5-.3 3.8-.2-2.2 11.5-4.5-.3-11.3 2.7 0 2.8 7.5 7.5-2.2 7.9 1.1 2.5 1.1 5.1 1.4 7.6-7.1 2.3-6 9.8-10.1 14.6 3.9 1.7 4.6 4.4 3.7 7.7-6.5-1.4-9.8.9-8.7 6.8 2.8-2.5 9.4-2.5 8.5-7 4 1.3 8.5-6 10.6-8.5 0 4.4-3.3 6.2-5.2 8.9 4.5 5.8 5.8 6.2 13.3 4 .4 1.7-2.1 1.5-1.8 3.1q6.1 3.5 8.4 3.1c2.4 5.8 5.2 8.3 3.3 14.6-1.2 3.9-2.5 7.9-7.6 6-1.6 3 2.2 2.7 2.1 4.6-5.4 1.6-4.2-11.3-7.1-14.6 0 5.9 1.2 13.3-.5 19.1-2.1 7-7.2 14.1-10.2 20.9q-1.3-3.4.9-7.4c-11.3.1.4-17.7-3.5-22.7-2.5 3.2-1.5 7.4-3.4 10.6-3.1-1.5-.9-5.4-5.2-1.9-1.5 1.2-4.5 12.7-4.4 14.9-1.6 1.3-2.6-1.1-4.6.2 1.5 1.8 2.2 11 1.6 13-1 3-4.9 3-5.5 5.2-1.6 5.9 2.9 11.4 6.5 15.1-6.8 6.9-6.2-5.3-7.2-7.8-.8-2-4.1-2.9-4.6-4.8-1.2-4.3 2.3-3.8 2.9-7.9 1.1-6.9-2.3-13.3-2.9-20.2-.6-6.7 2-9.8 2.1-16.8-4.3 3.4-4.9 8-7.4 12.1-2.5-6.1 4.7-9.4 2.3-13.6-.8-1.5-4.3-.3-5.7-1.5-1.8-1.6-1.2-4.6-3-6.1.3-2.8 3-1.1 3.6-3.1-2.6-6-8.6 0-12.1-3.6-.3 2.7 2.2 3.7 2.3 5.7-2.3.8-3-2.5-5.8-1.8 1 3.5 4.7 6.6 2.1 10.5-10.6-14.4-10.7-17.2-.9-27.2-3-1.5-2.6-4.9-4.9-8.2.5 4.6-1.9 6.1-5.2 7.2-1.5-4.4 6.3-6.7 1.8-11.4-3.2.4-6.4-.5-9.5-3.1.4 2.4.5 4.8.2 7.2-.4 2.5-1.6 4.5-3.6 6.1 0 4.5 2.6 3.3 5.1 5.8 3.9 3.9 5.7 1.4 1.6 8-2.4 3.8-6.8 6.9-11.3 7.5.2-1.6 2.4-1.9 2.1-3.5-2.5-2.8-6.1-1.5-8.5-5.9-2.3-4.1.7-8.9-2.9-12.7-2.2.3-.7 2.8-2.5 3.5q-8.1-1.3-9.6-7.8c-2.1 3.2-4 5.9-6.5 9.7 3.6-.6 7.2 2.8 9.3 5.2 3.1 3.5 6.6 5-1.5 7.7-2.3-1.7 1.9-4.4-1.5-5.8-3.2 1.1.2 4.6-2 5.7-1.8.9-1.9-.9-3.4-.5-.5 2.5-2.9 2.6-6.5 2.4 5.8 6.5-.8 13.6 3.1 19.8-7.3 4.5-4.6-10.2-4.6-12.5 0-6 .7-6.9-6.7-7.9-.1 2.3-.2 4.4-.4 6.5-2.5.8-1-2.8-3.5-2.2-1.3 2-1.2 5.7-4.9 6.3 1.8-2.7 2.1-5.5.8-8.4-11.2-1.1-.6 4.6-.8 8.4ZM177 351c-5.3-8 9.7-18 8.7-27.1-2.1-.4-3 2-4.9 1.3-.7-1.6 2-2.4.9-4.2-7.2-1 .5-6.3-2.2-8.7-11.1 3-8.8 36-9.7 45.1 1.4 0 2.7 1.9 4.7.8q-1-3.9 2.5-7.1Zm-15.1 20.8c8.6-1.5-6.9-11.6 4.5-14.9-4.8-2.1-7.8-4.9-8.7-10.1-1.8 2.1-5.4 7.8-4.5 10.9.6 2.2 4.8-.5 5.9 1.5-.4 1.1-1 2-1.9 2.7 2 2.9 3.4 6.2 4.7 10Zm-17.4-69.1c-3.3 3-6.4 2.6-9.7-.6-.3 9.7 6.2 7.3 11.4 10.9 3.5 2.4 3 7.8 8 7.4-3.7-2.5-.6-15.8-5.9-15.3-1 2.9-3.4 4.3-6.6 5.2-1.1-3.3 2.1-4.6 2.8-7.6Zm44.9 48.4c-3.4 1.8-11.6 13-9.3 17.8 3.3 7 13.9-15.7 9.3-17.8Zm-75.8 35.6c5.2-2 7.6-15.3 3.6-19.6-2.3 3 0 6.6-1.9 9.3-.3-1.4.4-3.2-2.4-3.7-2.5 4.8.3 9 .7 14Zm-60.9-9.4c-5.4 3-7 6.2-5.6 10.8 13.3 3.8 4.4-6.7 5.6-10.8Zm85-27.3c-.8-3.3-1.3-7.2-4.2-1-1.3 2.8 0 5.9 2.1 8.6 4 .2 10.6-8.5 2.1-7.6Zm19.4 17.8c.4.3-9.5-5.1-6.7-5.5-5.1.6-1.9 8.2-2.4 12.1 4.7-6.3 5.5-.9 7.8 2.6.5-3.9.9-6.6 1.3-9.2Zm10.8-84.1c-2.5.8-4.6 1.4-6.8 2.1.6 4.1.2 7.9 1.9 11.8 5.1-3.7 4.7-8.5 4.9-13.9Zm-59.5 54.6c-8.2 3.1 5.3 8.8 6.9 11.2 4-8.8-7.1-5.7-6.9-11.2Zm88.7-48.5c-2.9 3.9-6.7 7-9.4 11.7 6.7 1.3 5.5-8.4 11.9-6.6-.4-2.2-.4-3.8-2.6-5.1Zm-94.4 70.5c-1.8-1.8-3.5-3.4-6.5-2.7-.8 3.3-2 6.4-.7 11.3.4-3.6 5-6.2 7.2-8.6ZM62.9 379c-2.2 1.3-6.5 8.3-1.7 9.4 4.6 1.1 3.6-7.7 1.7-9.4Zm60.5-28.9c4.4-.3 3.3 4.4 6.5 5.8 2-4.5-1.3-7.4-2.4-11-2 1.3-2.8 2.8-4.1 5.3Zm45.3 49.7c-1.2-7.1-1.2-7.2-8.9-3.6.9 6.3 7.1-1 8.9 3.6ZM154 285.5c-2.8 3.8-3.3 7.5-5.4 11.8 3.7-1.8 4.8-5 7.8-5.8-.8-1.9-1.4-3.5-2.4-6ZM110.6 362c1.5 1.2.1 3.2 2.4 4.2-.7-2.8.8-6.3-3.4-6.7-2.3-.2-3 1.5-2.2 3.5 1.6.9 2.3-.3 3.2-1Zm-67.8 8.2c-4 .5-6.3 1.6-7.6 5.7 3.6-.9 6.2-1.6 7.6-5.7Zm145.7 37.4c-2.2.5-4 .9-5.9 1.3.5 5.2 7 3.6 5.9-1.3Zm433.9-142.2c4.5-3.7-.5-.8 4.5 1.1 9.5-1.7 6.1 7.2 8.8 11.4 3.7-7.5-4.1-11.7-4.3-18.9 9.7 7 17.9 13.4 18.9 25.1.2-1.8.4-3.5.7-5.9 2.8 4 1.7 8.6 3.9 12.5 4.6-6.6 8.8 5.8 10.7 7.4-1.1-9.8.2-18.8-4.8-27.1-2.4 1.7.2 4.4-2.8 5.2-8-19.5-29.9-24-48.5-29-18.3-4.9-45.2-13.3-63.9-7.7 3.3.4 6.7-.8 10 .7-.3 2.6-2.4 4.5-1.5 7.3 1.6-2.5 3.7 1 5.6.3 3.2-1 3-5.4 7.2-6.3-2.4 3.2-1.9 5.7.2 8.4 3.6-1.5 5.3-4.8 7.5-7.5 4.5 4.6-5.7 6.6-1.6 10.8 4.1-.8 5.9-3.4 6-7.2 6.8-.8 14.1-4.7 17 5.7 1-1.2.7-2.6 2.2-2.8 3.6 3.2 2.3 10.3 8.8 12.3-1-3.9 0-6.4 4-7.2 1.8 3.4 5.3 2.9 8.8 3.1 0 2.9 1.4 5.3 2.5 8Zm181.1 382c4.8-7.4 6.6-10.7 8.1-19.8.7-4.7 5.6-16.8 2.4-21.3-5.9-8.5-21.5 11.5-22-6.3l.1.1c-1.3 0-6 53.9-1.4 56.4 4.1.1 7.7-1.1 9.8-5.1 1-1.4 2-2.8 2.9-4.1Zm187.4-166.2c-5 0-7.2-16.5-8.8-20.5-1.1-2.6-3.4-5.6-4-8.3-1-4.7.7-6.5.8-10.8.2-5.9-.9-7.8-5.5-10.9-8.6-5.8-8.6-1-11.3 8.3 2.8 2.1 6.3 2.2 8.6 4.9-5.6-1.9-10.9-2.9-13.6 3.8-2.8-1.4.3-6.8-3.8-6.1-4.5.7.2 4.9-1.5 7.1-1.8 1.4-3.7.4-5.7 0 .8 4.3 5 7.2 4.2 13.3-4.2-3.9-3.9-10.2-10.4-12.4 4 6.2.4 15 3.8 17.4 3.4 2.4 25.7-5.2 30.4-6.5 0-4.6-4.2-7.3-4-12.6 2.3 3 6.3 9.8 6.8 13.7.3 3-4.2 5.1-1.7 8.2 1.7 1.2 2.6-1.1 4.1-.9 3.3 5.8 3.3 15 11.7 12.1Zm-471.4-53.9c1.5-6.1 1.6-10.2 4-16 2.5-6.1 5.4-32-.2-36.5-3.3 3.7-7.9 2.1-9.5 6.6-.8 2.2 1.3 6.7 1.2 9.4-.1 8.9-4 17.3-4.2 26.3-.2 9.4-1.7 13.7-7.5 20.5-1.7 2-5.6 1.7-3.9 5.8 1.1 2.7 4.1 2.6 6.5 1.9.6-1.5-1.3-1-1-2.3 3.6-.3 12.5.8 13.7-3.9-7.1-1.1 0-7.8 1-11.9Zm-22.1-99c-5.4.7-8.2-1.4-12.9 2.5-9 7.5-10.3 24.7-14.9 34.9 5.7 1.7 10.2 4.3 15.7 2.7.2-7.5-1.3-15.9 1.1-23.2 2.3-7.1 3.2-5.9 9.3-7.4 2.2-.5 9.6-.9 11.4-2.6 2.1-2 3-9.1 4.7-12-4.1 1.9-10.2 4.4-14.5 5Zm492.2 28.1c3 1.4 13.1 10.3 16.2 7.5.1-2.7-3.7-2.1-3.1-5.4 5.3 1 9.9-1.2 14.8-2.9-2-3.3-20.4-6-24.7-7.3-4.1-1.2-8.2-3-12.6-2.3-3.9.7-6.5 4.4-10.6 4.6 6.9 1 13.8 2.7 20.1 5.7ZM835.7 634.9c-15.8 5 4 28.3 13.2 28.3 12 0-10.4-24.9-13.4-28.4l.2.1ZM91.5 268.2c3.9-.4 13.2.1 16.1-2.7 8-7.8-6.7-8.9-12.2-6.6-3.8 1.6-4.7 4.2-8.9 4-1.7 0-10.1-4.9-11.4-6.3 5.9 9.5 5.1 12.8 16.3 11.6ZM475 621.8c-3.3 1.3-3.9 7.6-5 10.4-.3.9-3.6 6.7-3.7 6.9-.5 2.5-3 .4-1 3.9-.3-.6 8 2.1 7.1 2.1 6.3-.1 10.9-8.4 2.5-11.9 4.7-2.5 7.5-14.3.1-11.4Zm531.9-173.7c-.5-2.2 1.8-2.5 3.6-4.2-6.9-.2-12.5-7.5-18.7-.3-3.7-1.3-5.3-5.9-10.1-6.1 1.2 7.1 5.9 7.5 11.5 10.5 6.8 3.7 6.2 4.8 10.3-2.3.9 1.5 1.9 2.6 3.5 2.2l-.1.1ZM686.3 287.9c1.6-.6 4 .1 4.9-2.6-3.2-1.6-5.6.3-8.4 2.2-2.6-7.3-8.2-9.1-15.3-9 1.4 5.5-.2 11.4 3.2 17.2 2.3-4.1-1.1-7.5.9-11.1 2.7 3 1.6 7 4 10.3.4-3.2-1.5-5.8-.2-8.5 5.2 0 7.2 4.6 10.6 7.3.7-1.9-1.3-3.9.3-5.8ZM417.7 71.2c1.7 2.6 6.7-.6 7.2 2.3.5 3.2-4.1 4.5-6.4 3.7-2.3-.7-5-7.3-7-9 1.1 3.4 1.2 5.5-1.6 6.8 6 3.4 20.2 14.8 18.7 1.5-.5-4.9-4-5.7-5.8-8.5-1.1-1.7-2.1-7.2-4-8.6-.4.7-1.3 11.4-1.1 11.8Zm382.5 586.7c-13-1.8-11.7 16.8-4.2 7.4-1.7 12.1 21.8-4.9 4.2-7.4Zm-212-564.8c-.9-1.7-2.7-1.3-2.3-3.1 4.7.7 9.4 1.3 14.1 2-10.2-6.4-24.3-10.4-33.4-1.1 7 .7 14 1.5 21.6 2.3Zm9-19.2c1.7-2.4 1.1-8.8-.8-10.2-4.5 6.4-12.4 8.1-19.6 13.1 4.4.5 7.3.8 10.6 1.1-1.1-7 18.3 0 21.4.7-3.8-3.5-8-3.3-11.7-4.6ZM199.8 627c-3.7-.8-7.3 1.1-5 6 3.5 7.6 16.1 6.3 16.3-2.5-6.9 1.6-5.6-2.3-11.3-3.6Zm-39.3-26.6c.9 2 10.2 1.3 11.1.7 5-3.3 3.5-19.4-1.4-24 1.1 5.8 1.6 10.3 1 16.3-2 .9-2-1.4-3.3-1.3-1.5 1.6-8.5 5.5-7.3 8.3Zm301.9-210.7c-.2-3.5-6.8-7.3-9.1-8.9.7.5-6.9-6.2-7.6-2.6-.6 3.1 6.6 5.7 8.4 7.8-2.6.2-5 .7-3.3 4.1 2.5-.1 4.7-2.3 7.4-1.5 1 3.6-2.7 3.8-3.9 6.4 3.5 3.1 8.4-1.2 8.2-5.1ZM155.5 428c-13.7 4-9.3 14.8 2.9 15.2-6.9-4.6 1.8-10.4-2.9-15.2ZM985 451.2c-7.9-4 3.7 20.1 4.5 22 3.9-.4-1-20.2-4.5-22ZM693.6 288.3c6.9 6 13.8 12.1 20.7 18.1.3-.4.7-.7 1-1.1-6.5-6.4-10-16.2-20.3-18.5-.5.5-.9 1-1.4 1.5ZM605.3 89c-8.8-4.6-18.5-6.1-28.1-7.8 8.8 4.7 18.1 7.4 28.1 7.8ZM1005 385.2c-4.5-6.9-6.8-14-12.4-20-.9 8.6 3.4 15.6 12.4 20ZM142.6 662.3c5.3 6 7.6-7.2 4.4-10.9-3.1 2.5-8.2 6.7-4.4 10.9ZM67.5 319.7c3.4 2 16.6 3.1 19.8.5 4.3-3.5-2-4.4-4.8-6.2-3.6 6.2-9.1 6.4-15 5.8Zm742.6 333.2c-5.3-2 .8-6-2-8.8-2 .4-3.3 1.8-4.6 3.3-1 1.4-1.9 2.7-2.9 4.1-3.4 5.2 7.3 3.6 9.5 1.3Zm140.8-300.1c5.2-1.6 11-.2 16.7-3.5-2.4-.9-4 .7-5.2-.9-.1-2.7 3.4-2.9 4-7-6.1 3.6-10.5 7.9-15.5 11.4Zm-344.8-34.4c0-4.8-5-16-8.3-18.6-1.3 4.6 3.6 15.5 8.3 18.6Zm-491.4-38.8c-2.6-1.6-4.3-2.7-6.7-4.1-1.9 7.9-11.1 5.1-15.8 11.3 8.1-2.6 14.9-4.8 22.5-7.2ZM625.4 79.3c-6.7-5.7-15-7-22.8-9.6 7.3 4.2 14.7 7.7 22.8 9.6ZM244 370c-2.2-5-3.4-10.2-3.5-15.8 0 9.1-2.5 18-1.8 27.1 1.6-2.9 1.6-10.6 5.3-11.5l-.1.1Zm572.1 295c-2.2-2.1-1.7-4.3 1-6.2-2.6-1.3-4.9-1.4-7.1-1.5-2.9 3.3-1.3 5.7 1.3 7.5.2 1.6-2 .7-1.5 2.4 2.2.1 4.5.3 6.3-2.3Zm24.8-94.1c-1.6-1.4-3.1-7.8-5.4-7.6.4 7.4 10.4 15 17.8 14.5-3.8-3.1-9.1-4-12.5-6.8ZM101.5 435.6c0-2.2 3.1-10.5-1.3-10.8-3-.2-5.5 5.2-4.7 7.5 1.6.4 1.8-1.9 3.2-1.1 1.2 1.2-.6 3.8 2.7 4.4Zm-.9-157c-.8-1.8-.4-3.8-2.2-5.9-3.2 3-6.3 5.8-9.3 8.6 4.4.5 7.9-.6 11.5-2.7Zm832.7 182.1c-1.5-5.8-10.6-8.5-6.8-16.6-10.5-1.7 5.7 15.6 6.8 16.6ZM6.4 386.4c3.4-3.5 8.8-2 12.2-5.3l.1.2c-1.3-7.3-11 2.7-12.3 5.1Zm446.8 12.7c-8 1.7-7.5 9.1-11 13.6 4.6-3.6 7.7-8.3 11-13.6Zm226.4-62.3c5.6-3.8 7.9-9.7 13.3-14.6-4.4.5-12.5 10.1-13.3 14.6Zm-315.3-113c-6.1-1.4-12 .9-18 1.3 6.3 3.5 12-.3 18-1.3Zm-247.2 4.4c-5-2-10-3.3-15.4-.5 2.8 1.5 11.6 1.7 15.4.5ZM331 168.5c-6.1.7-10.3 3.9-12.4 9.7 4.1-3.2 8.2-6.5 12.4-9.7Zm652.1 172.6c-4.1-5.8-8.1-1.2-12-.6 3.9 1.4 7.8 1.5 12 .6ZM82 281.2c-3.4 1-6 2.3-8.1 5.8 3.8.8 6.1-1.2 8.7-2.2-.2-1.2-.4-2.3-.7-3.6Zm432.7 166.1c-2 0-3.5.4-4.6 1.5.3 3.9 2.8 5.1 6.6 6.1-1.3-2.8-1.9-5.1-1.9-7.6ZM13.8 417.8c2.1 5 .6 10.8 4.2 15.4-2-5-1.5-10.6-4.2-15.4Zm90.3 20.1q2.9-.9 2.7-12.5c-3 4.6-1.9 8.7-2.7 12.5ZM956.9 342c6.4-3.1 11.6-7.9 16.9-12.4-5.8 4-12.3 7-16.8 12.5l-.1-.1Zm-261.7-38.8c.7-4.5-1.4-8.2-3-12.1-.9 4.5 2.2 8 3 12.1ZM139.6 454.5c4.1 2.6 5.3-7.2 7.5-9.1-5.3-1.7-5.1 6.6-7.4 9.2 0 0 0-.1 0 0Zm90.6-80.6c.7-4 1.8-8.1.6-12.1-.5 4-2.8 8-.6 12.1Zm83.2-22.8c-5.2-1.7-9.5 0-13.4 3.5 4.6-.6 8.5-4.2 12.9-2.6 1-.5 1-.7.5-.9Zm-167 75.5c3.5-1.2 5.9-2.5 8-4.7-4.6-2.3-6 .8-8 4.7Zm80.7-10.1c-2.7-.6-5.4-1.3-7 2.4 3.8 2.7 4.9-1 7-2.4Zm-92 309.9c-2 .3-3.9.8-4.3 3.3 2.9 3.4 7.8-.9 4.3-3.3Zm233.7-384.3c1.5 3 4.4 4.5 7.2 6.2-1.5-3-3-6.1-7.2-6.2ZM126.2 724c.6 0 3.3 5.1 4.4-.3 0-5.4-4.6.3-4.4.3Zm167.7-348.8c0-1.9 1.3-3.8 0-6.2-1.3.5-3-.9-4.3 1.3 1.1 1.9 1.2 4.7 4.5 4.7l-.1.1ZM624.6 61.3c3.5.6 6.3.4 9.2-.7-2.9-.6-5.9-2.9-9.2.7Zm-80.7 539.4c3.5-2.2 6.2-3.8 7.8-4.8-.6 2.4-6.9-1.3-7.8 4.8Zm444.4-226.2c-2.6-3.1-4.9-6.7-8.9-8.4 2.1 3.8 5.3 6.3 8.9 8.4ZM26 665.8c-2.4 3.5-2.3 6.3.7 9.3 2.8-3.5 2.6-6.2-.7-9.3Zm-9.2-.6c1.2 1.3 1.4 3.4 3.8 4 1.7-2.3 2.6-5 2.3-8.3-1.4 2.6-3.8 3.7-6.2 4.5l.1-.1Zm378.7-85.7c-8.6-6.2-16.6 16.2-15.8 22.1 0-.6 4.3-8.5 4.8-8.9 4.9-4 1.3-.9 5.7.5-2.3-6.5-.4-11 5.3-13.8Zm-136.7 71.2c-15.5 8.2 6.3 22.4 6.2 6.9-3.9-.7-5.9-3.2-6.3-7.1l.1.1Zm16.9 53.1c2.8-3.7 1-6.5-.4-9.3-1.3 3-.3 5.8.4 9.3ZM692.8 550c5.2-2.6 6.3-5.6 3.1-9.9-.3 3.8-1.8 6.9-2.9 10l-.1-.1Z" opacity=".15"/></svg>
