<svg xmlns="http://www.w3.org/2000/svg" viewBox="0 0 2000 2000" width="20px" height="20px"><path fill="oklch(10% 0.012 0.012)" d="M1976.62 476.51c-186.974-161.555-586.195 317.353-726.066 186.167C1115.827 536.315 1228.265 105.983 829.437.001c-229.414 3.213 105.094 583.235-33.583 705.251S288.58 618.103 28.958 817.621c-187.45 226.817 593.668 163.56 666.888 333.121 73.221 169.561-319.154 588.261-143.114 833.381 140.51 130.11 352.252-581.613 536.004-600.628 190.731-19.736 450.525 497.677 743.692 353.363 104.382-101.575-441.084-419.092-370.492-679.804 48.27-178.271 664.361-326.253 514.683-580.544ZM280.519 905.758c-17.841 0-32.304-14.459-32.304-32.296s14.463-32.296 32.304-32.296 32.304 14.459 32.304 32.296-14.463 32.296-32.304 32.296Zm172.23 3.492c-17.841 0-32.304-14.459-32.304-32.296s14.463-32.296 32.304-32.296 32.304 14.459 32.304 32.296-14.463 32.296-32.304 32.296Zm165.038 31.807c-17.841 0-32.304-14.459-32.304-32.296s14.463-32.296 32.304-32.296 32.304 14.459 32.304 32.296-14.463 32.296-32.304 32.296Zm1169.377-349.354c17.841 0 32.304 14.459 32.304 32.296s-14.463 32.296-32.304 32.296-32.304-14.459-32.304-32.296 14.463-32.296 32.304-32.296Zm-145.011 103.02c17.841 0 32.305 14.459 32.305 32.296s-14.463 32.296-32.305 32.296-32.304-14.459-32.304-32.296 14.463-32.296 32.304-32.296Zm-539.082 41.363c0 35.673-28.926 64.592-64.609 64.592s-64.609-28.919-64.609-64.592 28.926-64.592 64.609-64.592 64.609 28.919 64.609 64.592Zm-57.008-192.207c0 17.837-14.463 32.296-32.304 32.296s-32.304-14.459-32.304-32.296 14.463-32.296 32.304-32.296 32.304 14.459 32.304 32.296Zm-84.329-191.285c17.841 0 32.304 14.459 32.304 32.296s-14.463 32.296-32.304 32.296-32.304-14.459-32.304-32.296 14.463-32.296 32.304-32.296Zm-56.131-165.405c17.841 0 32.304 14.459 32.304 32.296s-14.463 32.296-32.304 32.296-32.304-14.459-32.304-32.296 14.463-32.296 32.304-32.296ZM791.428 859.572c35.682 0 64.609 28.919 64.609 64.592s-28.926 64.592-64.609 64.592-64.609-28.919-64.609-64.592 28.926-64.592 64.609-64.592Zm-105.027 850.165c-17.841 0-32.304-14.46-32.304-32.296s14.463-32.296 32.304-32.296 32.304 14.459 32.304 32.296-14.463 32.296-32.304 32.296Zm60.706-165.121c-17.841 0-32.304-14.459-32.304-32.296s14.463-32.296 32.304-32.296 32.304 14.46 32.304 32.296-14.463 32.296-32.304 32.296Zm76.625-153.107c-17.841 0-32.304-14.46-32.304-32.296s14.463-32.296 32.304-32.296 32.304 14.459 32.304 32.296-14.463 32.296-32.304 32.296Zm81.711-129.185c-35.682 0-64.609-28.919-64.609-64.592s28.926-64.592 64.609-64.592 64.609 28.919 64.609 64.592-28.926 64.592-64.609 64.592Zm135.869-161.481c-65.593 0-118.766-53.16-118.766-118.736s53.173-118.736 118.766-118.736 118.766 53.16 118.766 118.736-53.173 118.736-118.766 118.736Zm183.375 119.686c-35.682 0-64.609-28.919-64.609-64.592s28.927-64.592 64.609-64.592 64.609 28.919 64.609 64.592-28.927 64.592-64.609 64.592Zm7.601-330.561c0-35.673 28.926-64.592 64.609-64.592s64.609 28.919 64.609 64.592-28.926 64.592-64.609 64.592-64.609-28.919-64.609-64.592Zm114.016 436.948c-17.841 0-32.304-14.459-32.304-32.296s14.463-32.296 32.304-32.296 32.305 14.459 32.305 32.296-14.463 32.296-32.305 32.296Zm224.276 185.404c17.841 0 32.305 14.459 32.305 32.296s-14.463 32.296-32.305 32.296-32.304-14.46-32.304-32.296 14.463-32.296 32.304-32.296Zm-101.146-82.896c0 17.837-14.463 32.296-32.304 32.296s-32.304-14.46-32.304-32.296 14.463-32.296 32.304-32.296 32.304 14.459 32.304 32.296Zm-18.616-628.416c0-17.837 14.463-32.296 32.304-32.296s32.305 14.459 32.305 32.296-14.463 32.296-32.305 32.296-32.304-14.459-32.304-32.296Z"/></svg>
