<svg xmlns="http://www.w3.org/2000/svg" data-name="Layer 1" viewBox="60.49 .5 392.35 512" id="tiki-mask-icon" width="30px"><path fill="#ced7da" d="M383.055 367.598c4.369 2.588 13.51 5.531 15.405 10.552 1.689 4.474-2.796 16.549-4.261 20.812-4.545 13.228-13.492 24.745-26.946 29.661v-9.234c1.063-1.221 2.323-2.321 3.159-3.681 9.075-14.75 11.614-31.235 12.642-48.11Zm-.264-19.819 18.009 9.749c0-11.58 2.498-26.226-.338-37.491-2.828-11.235-12.391-10.88-22.388-13.171 7.837 10.573 8.181 28.636 4.717 40.913Z"/><path fill="#f3f3f3" d="M349.766 433.669h-33.268v-41.518c15.969-.261 25.248-10.638 33.268-24.708v66.226Zm-186.8-.14h33.46V392.06c-16.332-.089-25.344-10.791-33.46-24.52v65.988Zm-.23-97.647c.521 6.813 2.643 8.702 7.164 13.769 9.211 10.325 14.26 19.988 26.753 26.266 0-15.865 1.371-32.459-.059-48.26-.783-8.656-2.329-7.93-11.029-10.457-7.608-2.21-15.241-4.33-22.863-6.489 0 8.324-.601 16.867.034 25.171Zm154.686 39.824c11.819-6.9 18.278-17.462 27.225-27.729 8.814-10.113 5.429-24.288 5.429-37.253-9.856 2.792-31.229 4.383-33.872 14.789-3.597 14.162-.076 34.055-.076 48.743l1.294 1.449Zm-18.615-1.213v-48.355l-33.508 8.371v39.983h33.508Zm-84.81.14h33.778c0-12.9.055-25.617-.117-38.331-.012-.902-1.567-2.319-2.633-2.588-10.212-2.578-20.474-4.961-31.027-7.472v48.391Zm-94.434-.868c-7.481 5.932-4.929 8.474-2.413 18.312 4.283 16.745 11.628 29.883 28.308 36.667v-69.812c-8.288 4.732-18.427 8.913-25.895 14.834Zm-6.158-57.905c-4.829 9.913-.854 29.793-.854 40.716l32.954-15.278v-33.322c-9.375-2.49-27.068-2.443-32.099 7.885Zm100.71 113.826 33.389-4.063v-33.205h-33.389v37.267Zm51.132-37.184v33.141l33.552 4.017v-37.158h-33.552Zm102.007-32.863v59.749c1.063-1.221 2.323-2.321 3.159-3.681 9.075-14.75 11.614-31.235 12.642-48.11l-15.801-7.959Zm.043-52.127v34.584l15.494 5.683c3.464-12.277 3.12-30.34-4.717-40.913l-10.777.646Z"/><path fill="#5d6569" d="M317.884 213.82c-10.103-1.965-26.474-1.502-30.231-13.267-3.662-11.466-2.14-26.433 5.151-35.84 16.069-20.732 41.731-29.59 67.467-27.46 9.905.82 26 3.642 30.823 13.767 4.13 8.671-1.195 21.643-5.748 29.169-13.617 22.51-42.602 32.048-67.462 33.63Zm-195.189-64.577c-5.497 8.121-.617 21.891 3.746 29.561 12.551 22.066 40.245 32.833 64.455 34.151 10.361.564 29.353-.024 33.726-11.267 1.727-4.439 1.81-13.982 1.923-19.002.145-6.429-2.084-11.489-5.701-16.726-13.844-20.044-37.521-28.523-61.045-28.977-11.267-.035-30.039 1.821-37.104 12.26Z"/><path fill="#f6bc17" d="M363.128 254.907c14.502-10.807 28.772-21.418 37.692-37.602 9.533-17.295 9.344-35.003 8.371-54.18l.033-13.058c2.26-15.502 4.95-40.15-6.216-52.707 7.133 2.513 19.209 3.773 22.742 11.326 3.029 6.475.873 18.949.969 26.162.254 19.297 1.448 39.545-1.257 58.709-4.851 34.369-33.572 49.148-62.334 61.351Z"/><path fill="#fbd902" d="M222.751 225.625c1.952 6.925-11.777 8.298-16.309 11.415-2.725 1.874-5.163 4.138-7.164 6.774-2.685 3.537-3.265 9.938-5.881 12.871-7.48 8.387-33.605 1.403-43.263-1.298-35.969-10.061-63.797-38.344-64.069-76.952-.084-11.97.105-23.946.088-35.917-.013-8.893-3.353-26.264 1.029-34.067 8.134-14.483 39.495-14.752 53.809-14.313 20.358.625 41.387 4.297 59.585 13.782 8.334 4.343 18.81 11.135 24.96 18.376 5.788 6.815 3.853 12.882 3.309 21.555-20.67-17.014-43.506-29.782-71.183-28.509-22.331 1.027-53.79 9.507-54.483 36.493-1.446 56.243 73.213 87.046 119.573 69.79ZM403.008 97.36c-24.345-7.335-54.171-3.207-77.808 5.085-19.164 6.723-48.04 20.45-40.572 45.077 19.151-16.808 40.727-27.802 66.797-28.201 21.093-.323 52.093 6.927 57.799 30.746 2.26-15.502 4.95-40.15-6.216-52.707Zm-2.188 119.946c9.533-17.295 9.344-35.003 8.371-54.18-9.316 26.824-19.918 45.689-47.097 57.735-23.817 10.556-47.654 10.828-72.562 4.994l.543 4.628c13.446 3.24 21.232 8.808 27.335 21.061 4.175 8.382 5.403 8.068 15.344 8.009 10.287-.061 20.58-1.427 30.373-4.645 14.502-10.807 28.772-21.418 37.692-37.602Z"/><path fill="#559341" d="M265.368 112.206c7.04-4.68 16.086-9.037 22.415-14.461 5.317-4.557 3.742-5.634-.094-12.192-7.947-13.586-19.137-22.452-30.327-33.068 22.297 4.656 35.859 19.589 48.44 37.322l-34.375 25.946-6.059-3.546Z"/><path fill="#60a945" d="M265.368 112.206c-8.926-1.985-17.461-1.485-24.066 3.524l-34.386-25.983c12.971-17.396 27.269-34.764 50.447-37.263 11.19 10.616 22.381 19.482 30.327 33.068 3.836 6.558 5.411 7.636.094 12.192-6.329 5.424-15.376 9.782-22.415 14.461Z"/><path fill="#e77b23" d="m392.967 77.92.005-26.2h16.232v29.02l-16.236-2.819ZM188.895 84.7l26.741-33.03h-10.127c-2.083 1.755-4.174 3.5-6.246 5.267-8.35 7.122-16.55 14.379-21.698 24.354l11.33 3.409Zm220.027 403.481c2.652-6.183.476-17.064.476-23.732l-16.388 9.846-2.025 19.722c7.265.127 14.698 1.711 17.936-5.837Z"/><path fill="#f5961e" d="M289.625 281.702c.71-7.824-3.323-26.117-14.287-14.188-3.254 3.54-2.125 9.93-4.666 14.092-3.024 4.954-7.876 7.908-13.713 8.126-5.101.19-10.096-2.054-13.424-5.95-4.066-4.76-2.481-11.518-6.076-16.03-3.042-3.819-8.658-4.493-12.417-1.141-4.062 3.622-2.359 10.646-1.683 15.246-11.94-5.039-20.524-20.437-7.517-30.579 12.1-9.435 22.372 1.074 23.997-18.657 1.582-19.206 2.73-38.458 4.098-57.681.728-10.23-2.9-44.035 10.885-46.491 16.082-2.866 12.802 29.237 13.437 38.157 1.434 20.142 2.865 40.285 4.289 60.427.407 5.759-.758 14.186 4.041 18.441 5.435 4.819 15.092 1.251 20.998 6.247 11.647 9.853 4.171 25.812-7.963 29.979Zm103.386 192.594c-22.777 9.603-47.522 12.447-72.037 10.562-23.906-1.838-46.935-8.576-71.11-7.252-25.015 1.37-49.521 8.127-74.639 8.091-26.704-.038-48.068-9.171-71.903-20.153-2.188 4.292-1.682 22.129 2.395 26.177 6.204 6.159 24.473 2.481 32.208 2.481h82.53c56.752 0 113.816 1.724 170.531-.184l2.025-19.722ZM199.263 56.938c2.072-1.767 4.163-3.512 6.246-5.267H103.602v28.595c25.462-2.964 48.606-3.701 73.964 1.026 5.148-9.975 13.348-17.232 21.698-24.354Zm98.038-3.701 27.047 31.329c21.418-6.75 44.82-8.762 68.619-6.647l.005-26.2-95.684-.052.013 1.569ZM103.517 250.524v10.561l10.422-3.024-10.422-7.537Zm295.599 7.56 10.209 2.918v-10.655l-10.209 7.736Zm-103.075-206.3 1.26 1.453-.013-1.569-1.247.116Z"/><path fill="#d64527" d="M372.048 463.128c13.841-12.416 35.417-30.229 35.589-50.883l.116.09.491-1.806c8.89-32.551 12.247-67.357 7-100.863-.163-15.05-12.522-24.277-21.243-34.751 48.597 4.352 42.975 67.38 39.228 101.465-3.857 35.083-20.897 80.104-61.18 86.748Zm54.252-436.6c.619-10.625-12.404-8.973-19.304-8.909 4.282 5.316 2.792 10.97.973 16.643 6.533.114 17.774 1.828 18.331-7.733Z"/><path fill="#f15a2d" d="M372.048 463.128c-23.608 7.551-47.54 6.589-71.314 1.64-29.701-6.182-59.142-6.145-88.821.063-23.806 4.98-47.739 5.541-71.387-1.483-29.92-8.888-47.39-29.591-55.709-58.922-5.019-17.694-6.544-35.866-6.88-54.125-.213-11.596-.519-23.336.955-34.788 2.993-23.251 20.713-38.987 43.98-41.882 15.438-1.92 30.384.572 45.521 2.376 7.381.88 14.913.692 22.373.612 2.793-.03 3.959.776 5.076 3.341 5.753 13.21 17.917 19.793 32.124 18.151 2.32-.268 5.275.475 7.179 1.822 13.186 9.322 29.72 9.286 42.74-.172 1.663-1.208 4.22-1.974 6.245-1.77 15.529 1.561 26.752-4.444 32.911-18.324 1.084-2.444 2.31-2.887 4.776-3.052 13.37-.896 26.704-2.607 40.082-3.013 10.677-.324 21.399.82 32.101 1.312 8.721 10.473 21.08 19.701 21.243 34.751-13.693-27.712-48.973-20.151-72.928-13.875-30.475 7.984-62.284 22.99-94.335 20.447-28.34-2.249-55.965-16.169-83.635-22.579-21.82-5.055-55.363-9.414-66.928 15.725-5.129 11.149-2.921 26.751-2.726 38.698.24 14.673 1.149 29.516 4.132 43.916 3.84 18.537 12.484 35.775 28.552 46.542 19.454 13.036 44.462 14.277 67.033 11.823 29.269-3.183 56.537-9.645 86.257-5.898 44.8 5.648 102.852 18.784 126.97-32.221-.171 20.655-21.747 38.467-35.588 50.884Zm34.947-445.51c-55.307-3.381-111.836-.151-167.266-.152H113.396c-7.517 0-25.381-3.714-26.893 7.447-2.241 16.533 56.837 9.516 67.588 9.516h82.802c56.947 0 114.162 1.601 171.077-.17 1.819-5.673 3.308-11.327-.973-16.643Z"/><path fill="#090603" d="M89.813.495h334.152c2.067 3.706 11.68 5.662 15.02 10.275 3.43 4.739 4.997 11.056 4.717 16.858-.671 13.931-14.678 16.627-16.798 27.799-1.361 7.172-1.315 19.036.004 26.174 1.384 7.487 6.077 7.754 10.749 13.385 9.094 10.962 6.165 27.353 6.152 40.48-.017 18.24 1.023 36.791-.219 54.993-1.193 17.494-12.537 28.812-15.895 45.189-2.94 14.34-3.219 30.826 6.312 41.843 10.711 12.381 14.284 25.407 17.884 41.189 2.108 21.32 1.108 71.32-7.085 88.895-4.3 15.828-17.712 31.233-18.02 47.2-.311 16.138 5.069 38.561-9.026 50.39-13.732 11.524-39.181 6.015-55.841 6.018-80.484.013-160.969.01-241.453-.004-15.714-.003-30.699-3.441-34.097-21.251-2.804-14.696 3.404-31.566-1.912-45.617-3.133-8.283-9.199-15.73-12.405-24.249-2.933-7.794-5.052-15.874-6.707-24.027-3.557-17.528-4.541-35.392-4.748-53.237-.196-16.861-.911-33.85 6.902-49.305 3.282-6.492 7.754-11.803 12.426-17.285 6.32-7.415 6.043-12.245 6.092-22.043.057-11.262.333-19.431-5.159-29.302-3.721-6.688-7.15-13.3-9.213-20.729-4.41-15.882-2.792-33.158-2.791-49.47 0-15.621-4.249-39.997 2.785-54.403 3.151-6.454 10.66-8.201 13.785-13.708 2.869-5.056.453-16.667.477-22.115.047-10.631.912-11.876-6.965-18.329-4.76-3.9-8.13-8.796-9.345-14.88C66.651 16.512 76.29 4.732 89.813.497ZM392.967 77.92l16.236 2.819v-29.02h-16.232l-95.684-.052-1.247.116 1.26 1.453 27.048 31.329c21.418-6.75 44.82-8.762 68.619-6.647ZM205.51 51.671H103.602v28.595c25.462-2.964 48.606-3.701 73.964 1.026l11.33 3.409 26.741-33.03H205.51Zm157.618 203.236c28.761-12.203 57.482-26.982 62.334-61.351 2.705-19.164 1.511-39.412 1.257-58.709-.095-7.213 2.06-19.687-.969-26.162-3.533-7.552-15.609-8.813-22.742-11.326-24.345-7.335-54.171-3.207-77.807 5.085-19.164 6.723-48.04 20.45-40.572 45.077 19.151-16.808 40.727-27.802 66.797-28.201 21.093-.323 63.575 8.679 57.766 43.804-7.191 25.875-19.918 45.689-47.097 57.735-23.817 10.556-47.654 10.828-72.562 4.994l.543 4.628c13.446 3.24 21.232 8.808 27.335 21.061 4.175 8.382 5.403 8.068 15.344 8.009 10.287-.061 20.58-1.427 30.373-4.645ZM257.362 52.485c-23.178 2.498-37.476 19.867-50.447 37.263l34.386 25.983c6.606-5.01 15.141-5.509 24.066-3.524l6.059 3.546 34.375-25.946c-12.581-17.733-26.143-32.666-48.44-37.322Zm133.624 441.533c7.265.127 14.698 1.711 17.936-5.837 2.652-6.183.476-17.064.476-23.732l-16.388 9.847c-22.777 9.603-47.522 12.447-72.036 10.562-23.906-1.838-46.935-8.576-71.11-7.252-25.015 1.37-49.521 8.127-74.639 8.091-26.704-.038-48.068-9.171-71.903-20.153-2.188 4.292-1.682 22.129 2.395 26.177 6.204 6.159 24.473 2.481 32.208 2.481h82.53c56.752 0 113.816 1.724 170.531-.184Zm16.009-476.4c-55.306-3.381-111.836-.151-167.266-.152H113.396c-7.517 0-25.381-3.714-26.893 7.447-2.241 16.533 56.837 9.516 67.588 9.516h82.802c56.947 0 114.162 1.601 171.077-.17 6.533.114 17.774 1.828 18.331-7.733.619-10.625-12.404-8.973-19.305-8.91ZM394 274.915c-10.702-.492-21.423-1.636-32.1-1.312-13.378.405-26.712 2.117-40.082 3.013-2.466.165-3.691.608-4.776 3.052-6.159 13.88-17.383 19.885-32.911 18.324-2.025-.204-4.582.562-6.245 1.77-13.02 9.457-29.554 9.494-42.74.172-1.905-1.346-4.86-2.09-7.179-1.822-14.207 1.642-26.371-4.941-32.124-18.151-1.117-2.565-2.283-3.371-5.076-3.341-7.46.081-14.992.268-22.373-.612-15.137-1.804-30.083-4.296-45.521-2.376-23.267 2.894-40.987 18.631-43.98 41.882-1.474 11.452-1.168 23.191-.955 34.788.335 18.259 1.861 36.431 6.88 54.125 8.32 29.331 25.789 50.034 55.709 58.922 23.648 7.025 47.581 6.463 71.387 1.483 29.679-6.208 59.119-6.245 88.821-.063 23.774 4.949 47.706 5.91 71.314-1.64 40.283-6.644 57.323-51.665 61.18-86.748 3.747-34.085 9.369-97.113-39.228-101.465Zm-171.249-49.29c-46.36 17.256-121.018-13.547-119.573-69.79.694-26.986 32.152-35.466 54.483-36.493 27.678-1.273 50.514 11.496 71.183 28.509.543-8.673 2.478-14.741-3.309-21.555-6.15-7.241-16.627-14.033-24.96-18.376-18.198-9.485-39.227-13.156-59.585-13.782-14.314-.44-45.675-.171-53.809 14.313-4.382 7.803-1.042 25.174-1.029 34.067.017 11.971-.172 23.947-.088 35.917.272 38.608 28.1 66.891 64.069 76.952 9.658 2.701 35.783 9.685 43.263 1.298 2.616-2.933 3.196-9.334 5.881-12.871 2.001-2.636 4.439-4.9 7.164-6.774 4.533-3.117 18.262-4.49 16.309-11.415Zm95.133-11.805c24.86-1.582 53.846-11.12 67.462-33.63 4.553-7.526 9.878-20.498 5.748-29.169-4.823-10.125-20.917-12.947-30.823-13.767-25.736-2.131-51.398 6.728-67.467 27.46-7.291 9.407-8.814 24.373-5.151 35.84 3.758 11.765 20.128 11.302 30.231 13.267Zm-158.085-76.837c-11.267-.035-30.039 1.821-37.104 12.26-5.497 8.121-.617 21.891 3.746 29.561 12.551 22.066 40.245 32.833 64.455 34.151 10.361.564 29.353-.024 33.726-11.267 1.727-4.439 1.81-13.982 1.923-19.002.145-6.429-2.084-11.489-5.701-16.726-13.844-20.044-37.521-28.523-61.045-28.977Zm129.826 144.719c12.134-4.167 19.61-20.126 7.963-29.979-5.906-4.996-15.563-1.428-20.998-6.247-4.799-4.256-3.634-12.682-4.041-18.441-1.424-20.143-2.855-40.285-4.289-60.427-.635-8.92 2.645-41.023-13.437-38.157-13.784 2.456-10.156 36.262-10.885 46.491-1.369 19.223-2.516 38.475-4.098 57.681-1.625 19.73-11.897 9.222-23.997 18.657-13.007 10.142-4.424 25.54 7.517 30.579-.676-4.6-2.379-11.624 1.683-15.246 3.759-3.352 9.375-2.678 12.417 1.141 3.594 4.512 2.009 11.27 6.076 16.03 3.329 3.896 8.324 6.14 13.424 5.95 5.836-.218 10.688-3.172 13.713-8.126 2.541-4.162 1.412-10.552 4.666-14.092 10.964-11.929 14.997 6.364 14.287 14.188Zm-175.686-23.641-10.422-7.537v10.561l10.422-3.024Zm295.386-7.714-10.209 7.736 10.209 2.918v-10.655Zm5.918 59.319c5.248 33.506 1.89 68.312-7 100.863l-.491 1.807-.116-.09c-24.119 51.004-82.171 37.868-126.971 32.22-29.72-3.747-56.988 2.716-86.257 5.898-22.572 2.454-47.58 1.213-67.033-11.823-16.068-10.767-24.711-28.005-28.552-46.542-2.983-14.401-3.892-29.244-4.132-43.916-.196-11.948-2.403-27.549 2.726-38.698 11.565-25.139 45.107-20.779 66.928-15.725 27.67 6.41 55.295 20.33 83.635 22.579 32.051 2.544 63.86-12.463 94.335-20.447 23.956-6.276 59.235-13.837 72.928 13.875Zm-37.169-2.8-10.777.646v34.584l15.494 5.683 18.009 9.749c0-11.58 2.498-26.226-.338-37.491-2.828-11.235-12.391-10.88-22.388-13.171Zm4.981 60.732-15.801-7.959v68.983c13.454-4.917 22.402-16.433 26.946-29.661 1.465-4.263 5.95-16.338 4.261-20.812-1.896-5.02-11.037-7.964-15.405-10.552Zm-33.289 66.071v-66.226c-8.021 14.07-17.299 24.447-33.268 24.708v41.518h33.268Zm-186.8-66.129v65.988h33.46v-41.469c-16.332-.089-25.344-10.791-33.46-24.52Zm-.264-56.829c0 8.324-.601 16.867.034 25.171.521 6.813 2.643 8.702 7.164 13.769 9.211 10.325 14.26 19.988 26.753 26.266 0-15.865 1.371-32.459-.059-48.26-.783-8.656-2.329-7.93-11.029-10.457-7.608-2.21-15.241-4.33-22.863-6.489Zm153.426 63.546 1.294 1.449c11.819-6.9 18.278-17.462 27.225-27.729 8.814-10.113 5.429-24.288 5.429-37.253-9.856 2.792-31.229 4.383-33.872 14.789-3.597 14.162-.076 34.055-.076 48.743Zm-50.829.236h33.508v-48.355l-33.508 8.371v39.983Zm-51.302-48.251v48.391h33.778c0-12.9.055-25.617-.117-38.331-.012-.902-1.567-2.319-2.633-2.588-10.212-2.578-20.474-4.961-31.027-7.472Zm-68.54 32.689c-8.288 4.732-18.427 8.913-25.895 14.834-7.481 5.932-4.929 8.474-2.413 18.312 4.283 16.745 11.628 29.883 28.308 36.667v-69.812Zm.047-50.956c-9.375-2.49-27.068-2.443-32.099 7.885-4.829 9.913-.854 29.793-.854 40.716l32.954-15.278v-33.322Zm68.611 84.443v37.267l33.389-4.063v-33.205h-33.389Zm84.683.084h-33.552v33.141l33.552 4.017v-37.158Z"/></svg>
