<svg xmlns="http://www.w3.org/2000/svg" viewBox="0 0 30 30" id="wagasa-umbrella-icon" width="30px"><path fill="#f49520" d="M17.282 14.276a24.711 24.711 0 0 0-1.206-1.34 4.175 4.175 0 0 1-.533-.468L.969 27.042c-.548.548-.548 1.441 0 1.989s1.441.548 1.989 0l14.523-14.523-.199-.232ZM2.596 28.67a.9.9 0 0 1-1.261.005c.299-.077.58-.232.807-.459l14.15-14.15.454.454-14.15 14.15Z"/><path fill="#e67c25" d="m16.292 14.066-14.15 14.15a1.762 1.762 0 0 1-.807.459.9.9 0 0 0 1.261-.005l14.15-14.15-.454-.454Z"/><path fill="#f05a2d" d="M5.789 25.578h-.001l1.128-1.128.002-.002-1.813-1.813-.002.001-1.128 1.128h.001v.003l1.812 1.811h.001z" data-name="Fill"/><path fill="#d54627" d="M7.37 24.9v-.001l-.452-.451-.002.002-1.128 1.128h.001l-.001.001.452.451.002-.002L7.37 24.9z" data-name="Shadow"/><path fill="#ec3894" d="M26.624 3.376 3.455.506l26.039 26.039-2.87-23.169z" data-name="Fill"/><path fill="#c13180" d="m26.633 7.176-.131 1.099 1.268 15.898 1.106 1.106-2.243-18.103z"/><path fill="#5fa945" d="M18.865 12.165a4.33 4.33 0 0 1 1.029.559 4.405 4.405 0 0 1-1.029-.559Zm7.403-1.99a.85.85 0 0 1 .151-.004.266.266 0 0 0-.151.004Zm-.132.268a.387.387 0 0 0 .021.02l-.035-.142a.115.115 0 0 0 .014.123Zm-.014-.123a.306.306 0 0 1 .069-.096.2.2 0 0 1 .076-.05.732.732 0 0 0-.171.041l.025.104Zm-.063 12.067c-.175.025-.549.138-.729-.007l.173.173c.363-.176.736-.053 1.109.066-.05-.18-.544-.242-.754-.421.06.07.129.132.201.189Zm-.288-.312a.21.21 0 0 1-.006-.091.313.313 0 0 1 .036-.113 4.143 4.143 0 0 1-.099.041c.017.059.04.113.068.162Zm.086.123a.906.906 0 0 1-.087-.123.26.26 0 0 0 .087.123Zm3.637 4.347-1.029-1.029a.886.886 0 0 1 .156-.156c-.059-.074-.025-.14.103-.196l-.021-.019a9.722 9.722 0 0 0-.329.28l-2.664-2.664c.285.075.644.097.763-.105.65.304 1.256.825 1.933 1.091l.011-.021c-.355-.326-.825-.508-1.155-.853-.078-.082-.305-.521-.487-.431-.219-.26-.177-.718-.32-1.042-.094.284-.16.562.03.83-.058-.028-.381-.416-.577-.42-.221-.035-.693.081-.679.346a.32.32 0 0 0 .062.187l-2.337-2.337c.234-.349.285-.809.012-1.246-.349.148-.617.284-.807.451l-.134-.134a.905.905 0 0 0 .388-.162.447.447 0 0 1-.037-.855l-.011-.02-.386.06c.003.121-.041.169-.132.146-.033-.07-.023-.139.03-.207-.232-.125-.586-.089-.825.064l-7.007-7.007c.064-.046-.011-.337-.037-.383l-.025.01c-.004-.042-.004.191-.02.29l-.376-.376c.095-.356.225-1.029.28-1.166-.319.193-.476.506-.614.833l-.525-.525c.415.087.963-.357 1.284-.536-.146-.187-.067-.32.079-.43-.056-.11-.142-.38-.313-.405l-.005.057h-.008l-.004-.096c.195.042.291.258.374.416l.067-.044c-.193-.156-.046-.411-.243-.606-.104-.103-.432-.167-.563-.184-.612-.079-.529.145-.709.584-.106.259-.381.571-.349.852l-.749-.749c.185 0 .535-.068.564-.235.028-.159-.485-.421-.669-.47-.281-.075-.31-.064-.564.036l-.045-.045c.206-.056.401-.177.487-.339.237-.452-.22-.658-.571-.803l-.005.009c.326.359.158.665-.106.938l-.79-.79a1.21 1.21 0 0 0 .119-.206c-.08.037-.149.075-.214.111L8.52 5.569c.122-.15.228-.312.386-.414a7.168 7.168 0 0 0-.006-.101v-.002c.03.054.079.062.144.044l-.03.062c.312.022.451.34.816.274-.232-.047-.369-.241-.582-.331.35-.229.618-.164.89-.56l-.194.052c.172-.044.285-.172.402-.295l.013.013c-.269.403-.432.701-.946.795l-.005.02c.462.187.912.19 1.312-.183.107-.1.487-.883.112-.766.079.339-.253.609-.479.613.356-.211.497-.536.342-.742.082.059.158.103.224.093-.03-.306-.387-.344-.629-.321a.52.52 0 0 1 .229.099.917.917 0 0 0-.328-.061c-.638-.017-.916.382-1.074.913l.015.009c.092-.1.187-.208.337-.207-.152.04-.288.213-.389.336a.558.558 0 0 1-.023-.009c.01-.266.182-.498.181-.763-.202.274-.262.589-.337.915v.002c-.208.076-.335.275-.423.472l-.036-.036c.015-.284.031-.568.065-.852l-.004.003a.501.501 0 0 0 .009-.063c-.032-.072-.095-.105-.188-.1.205-.078.37-.237.166-.406l.067-.038c.005-.462.086-.905.222-1.338l-.017-.007-.235.397.014.007.072-.051.014.015c-.282.502-.288.688-.391 1.239-.292-.088-.315-.414-.282-.668-.18.115-.242.138-.299.338.361-.038.346.302.535.49-.048-.048.066.193.173.273a.184.184 0 0 1-.176-.005l-.031.111.064.007a.92.92 0 0 0-.043.381l-.805-.805c.052-.18.094-.376.25-.606a.814.814 0 0 1-.111.023c.448-.117 1.022-1.051.876-1.499.037.015.072.048.108.108.209-.079.892-.64.263-.657l.02-.026c-.131-.06-.337.442-.363.489l-.019-.009c.104-.247.264-.515.281-.789a4.708 4.708 0 0 0-.092-.043v-.006c.282.042-.205-.243-.247-.262-.028-.012-.472-.102-.495-.092-.3.12-.34.412-.301.726a.754.754 0 0 0-.106-.16c-.121.233-.105.471-.045.714-.048-.128-.092-.237-.113-.297l-.025.005c-.011.366.182.714.247 1.07l-.04.044a1.187 1.187 0 0 0-.127-.317.755.755 0 0 0-.075-.139c-.068-.122-.128-.219-.129-.221-.045-.059-.354-.513-.398-.534-.051-.024-.184.147-.138.196.046.021.088.013.127-.022.137.15.391.359.538.58.025.044.05.092.075.139a.445.445 0 0 1 .037.176c-.246-.219-.535-.376-.808-.559.044-.03.046-.061.008-.093-.068-.032-.211.222-.004.173.306.176.662.359.847.67h-.002c-.316-.227-.936-.65-1.27-.793-.189-.08.278.309.335.342.273.157.599.457.935.451l.003.002c-.156.175-.311.373-.259.468.062.112.143.167.233.177-.208.002-.365-.061-.569.019l-.025-.025c.109-.044.208-.09.29-.134a.304.304 0 0 1 .01-.257 3.97 3.97 0 0 1-.688.003l-.104-.104c.021-.046.058-.066.111-.061a.092.092 0 0 1-.002.114c.245.109.743.034.924-.141-.405.005-.881-.683-1.277-.464-.069.038-.084.122-.106.203L3.455.506l7.84.971c-.115.357-.251.581.153.835.271.171.472.128.756 0-.086.233-.39.086-.503.235-.072.095.02.162-.039.258-.053.086-.196.352-.188.453.042.522.74.456 1.077.458-.074-.299.113-1.214-.215-1.398-.004.006-.15.86-.225.575-.056-.212.185-.635.172-.902-.162-.065-.327-.017-.478.068l-.016.105c-.032.036-.263-.189-.017-.171.15-.137.333-.151.522-.1-.037-.088-.083-.198-.14-.31l.17.021c.008.018.016.037.027.056 0-.009.004-.028.008-.052l.114.014c-.011.073-.017.131-.011.149a.783.783 0 0 0 .071-.141l.078.01-.026.1c.007-.01.044-.044.095-.091l.094.012c-.058.05-.108.094-.131.125l.051.028c.05-.045.112-.092.178-.141h.009a.608.608 0 0 0-.113.234c.223.038.466-.106.675-.139.152-.025.129.155.051.154-.058-.011-.085-.045-.08-.102-.126.034-.532.086-.62.214.21-.004.396.02.563.112.219-.088.034.278-.051.216a.179.179 0 0 1 .025-.167.977.977 0 0 0-.533-.09c.015.133.101.216.257.25.085-.012.143.097.045.122-.041.01-.119-.096-.168-.102.502.502 1.21.459 1.175-.36a.683.683 0 0 0-.036-.194l.885.11c.015.254.112.489.381.596a.547.547 0 0 0 .249.045 1.047 1.047 0 0 0-.153.12c-.364.358.044.853.46 1.022 1.261.509.79-.809 1-1.497l-.04-.006c-.03.185-.083.361-.195.506l.011.104c-.008.071-.093-.111-.088-.149.012-.081.215-.286.22-.448l-.139-.057c-.178.225-.282.49-.407.744.056.041.059.077.008.108-.196.018.248-.628.313-.888l.509.063c-.001.225.206.528.307.692l.089.008c-.004.013-.035.173-.107.129-.152-.092-.287-.635-.342-.812-.006 0-.011.002-.017.003.014.277.083.468.217.698l-.124.037c-.088.019.026-.092.031-.093l-.153-.363c-.155 1.158.92 1.778 1.48.603.242-.508.014-.479-.459-.715-.022-.011-.086-.047-.168-.093l8.784 1.088.143 1.15a.599.599 0 0 0-.24.387c-.089.458.098.703.381.751l.045.36c-.334.298-.485.634.092.95l.028.014.444 3.581a4.654 4.654 0 0 1-.362-.175c.139-.325-.461-.79-.676-.866.014.49.373.744.729 1-.174.066-.517-.294-.787-.356.092.006.183.025.272.05-.11-.205-.303-.778-.679-.53-.221.146-.034.595.125.751.119.155.623.185.68.214-.328.006-.512.224-.685.469.346-.077.689-.383 1.028-.362.023.126.223.141.396.139l.725 5.853c-.517-.11-.791.919-.901 1.396a.646.646 0 0 1 .105-.029c-.141.067-.158.365-.158.51.158-.077.68-.257.39-.457a.385.385 0 0 0-.128-.061c.126.006.21.076.282.172l-.013.003c-.012.101-.452.477-.557.526.29-.039.363-.275.68-.298l-.078-.185c.065.096.123.21.2.313.112-.021.253-.07.394-.141l.006.052a1.352 1.352 0 0 1-.156.086c.057.014.114.023.17.028l.017.136c-.169-.04-.33-.071-.451-.106-.029.236-.179.274-.36.249-.038.118-.168.369-.065.508l.044-.037.006.006-.065.071c-.108-.167-.023-.388.03-.559l-.078-.016c.026.247-.258.323-.257.601 0 .146.187.423.268.528.377.489.477.271.914.088.052-.022.11-.04.171-.057l.284 2.289a1.824 1.824 0 0 0-.272-.021c.154.098.239.21.307.309l.095.77c0 .061.009.124.023.189l.363 2.928ZM12.461 2.051a9.687 9.687 0 0 0-.114-.029l-.025.168.139-.139Zm-5.623-.414c-.057.137-.012.312.137.154.081.018.153.087.228.148.086-.105-.292-.26-.365-.302Zm.243-.174c.112.095.199.037.322.116l.026-.053c-.064-.039-.515-.204-.348-.063Zm4.495 1.055c-.31.153-.584.349-.822.594.231-.163.781-.293.822-.594Zm2.548 2.738c.079.398.05.327.234.678.428-.214.043-.592-.234-.678Zm-.834-1.279c1.116-.411-.109-1.234-.545-1.671l-.173.108c.015.05.286.45.262.447-.086.001-.117-.036-.092-.111-.12-.105-.135-.257-.243-.353l-.017.01c.171.554-.077 1.896.808 1.57Zm-.938 3.58c-.534.117-.715-.281-1.069.249.448.163.707.106 1.069-.249Zm1.359-.921c-.134-.268-.284-.511-.608-.565.061-.021.564.025.705-.111.181-.131.433-.547.235-.724-.335-.301-.611.237-.75.423.092-.011.184-.017.276-.009-.276.022-.669.327-.831.236.389-.2.783-.398.869-.88-.224.044-.886.415-.797.756-.675.245-1.471.305-2.138.596l.007.022c.482-.021.942-.224 1.42-.214.114.003.584.153.649-.04.339.029.633.382.963.51Zm.391-.932c-.136.249-.361.483-.668.459.212.212.268.344.607.242.349-.105.429-.493.061-.701Zm.507.009c-.038.136-.11.227-.234.263a.62.62 0 0 1 .007.317.484.484 0 0 0 .227-.58Zm12.487 13.568c.053-.019.625-.194.474-.363a.218.218 0 0 0-.159-.005l.048-.069c-.135.027-.352.292-.363.437Zm-.148-.52.011.015c.271-.139.354-.123.33-.403-.195.065-.26.233-.341.388Zm.062-.208c-.66-.291-.781-.255-1.332.182.201.136 1.829.309 1.686-.078l-.077.028-.008-.041-.384.197-.014-.004.13-.283Zm.493-1.358h.025c.005-.134.119-.206.169-.316.001 0 .16.023.078-.04-.222-.171-.272.167-.272.357Zm-.063-.089.015-.004a1.7 1.7 0 0 1 .091-.514.157.157 0 0 0 .139.039c-.017-.056-.111-.145-.185-.105-.074.04-.073.54-.06.584Zm-1.485.173c.117.238.218.489.417.67.187.17.629.251.678.545.309-.205.612-1.011.376-1.362-.361-.538-1.113-.082-1.471.147Zm-.288-1.791c-.007-.064-.037-.086-.09-.068-.102-.417-.19-.844-.537-1.132.048.2.086 1.456.159 1.425.121-.051-.043-1.115-.057-1.26.132.155.409 1.238.525 1.034Zm-2.391 2.043c.241-.741-.315-1.066-.921-1.182.234.391.309.802.245 1.251.213-.249.486-.427.675-.068Zm.112-3.042-.014-.02c-.152.113-.395.354-.125.431.099.028-.013-.086-.014-.087.059-.106.048-.24.153-.324Zm.552 1.02c.193.016.725-.01.875-.127.344-.267.235-.976.082-1.293-.128 0-.254.02-.37.025l.195-.047c-.17-.269-.024-.468-.165-.724.023.114-.017.691-.092.76a.061.061 0 0 1 .005.012c-.12 0-.226-.027-.306-.124a.375.375 0 0 0 .124.066c.333.115.168-.412.136-.585-.116.085-.343.275-.316.427a.704.704 0 0 1-.039-.099c-.39.457-1.306 1.609-.131 1.708Zm.464-2.082a.765.765 0 0 1 .038-.018l.023.079c.397-.115-.71-1.321-.939-1.402-.023.703.02.822.646 1.18l.151-.273a.278.278 0 0 0 .011.008l.07.426Zm-.083-.336h-.019c-.077.157-.174.309-.11.505.24-.147.178-.204.128-.505Zm.379.284c.017.054.05.096.099.125.226.02.026-.544.01-.597-.11.095-.194.427-.135.552l.027-.079Zm.197-.279c.09-.443.28-.976-.202-1.273-.294-.181-.953-.13-1.158.157.56.33.937.786 1.077 1.423-.018-.246.132-.427.213-.63l.063.327.008-.005Zm-.158 2.414-.023-.014c-.043.053-.23.511.015.347-.043.029.022-.387.008-.333Zm.993-2.654c-.132-.003-.466.012-.584.098-.224.164-.116.437-.331.563l.06.053c.106-.144.233-.344.432-.356l-.018.095-.008-.001.003-.058c-.173 0-.298.254-.37.354.128.13.187.274.014.437.329.254.894.886 1.352.682.574-.256.158-.799.064-1.185-.113-.461.003-.671-.614-.683Zm-.787-.837c.216.346.052.652.008 1.012.213-.218.596-.201.876-.229-.013-.575-.261-.839-.884-.783Zm.895-1.17c.32.151.396.029.636-.149-.308-.022-.496-.287-.593-.553-.395.151-.373.546-.043.702Zm-.267-.474c-.117-.054-.175-.154-.192-.294a.484.484 0 0 0 .138.607.625.625 0 0 1 .054-.313Zm.022-.04c.234-.32.195-.253.332-.635-.287.043-.724.36-.332.635Zm-2.558 1.481-.004.017.494.208c-.038-.117-.407-.214-.49-.225Zm-1.118-1.825-.072.315c.255-.034.511-.047.767-.041.232.038.478.053.706.07.127.022.255.049.382.082l.034-.04a5.03 5.03 0 0 0-.416-.042 4.824 4.824 0 0 0-.706-.07c-.27-.045-.52-.122-.695-.274Zm-3.277 2.604-.187-.03c.228.28 1.052.361 1.38.404l.003-.015c-.493-.267-1.087-.365-1.598-.607.024.148.298.187.407.234l-.005.014Zm.942-1.985c.251.055.545.005.8-.113l.006.002c-.002 0-.003-.002-.004-.003.185-.086.348-.207.459-.351.013-.007-.485.313-.459.351h-.002c-.335-.103.191-.287.29-.348l-.735.204c-.014.025 0 .087-.056.074-.254-.057.843-.344.943-.369-.078-.015-1.188-.19-.833-.402a.126.126 0 0 1 .012.115c.222.084.598.204.742.179-.125-.031-.259-.245-.102-.205.039.025.052.06.04.107l.185.067.011-.012c-.175-.191-.513-.555-.778-.616-.276-.063-.854.088-.953.358-.115.314.154.9.436.962Zm-1.834.798c.24-.154.475-.097.713.003-.139-.201-.703-.431-.713-.003Zm2.014.181.03-.008c.12.35.123.753.363 1.045a2.34 2.34 0 0 0-.408-1.275c-.098.393-.143.868.217 1.089-.133-.276-.22-.553-.202-.851Zm.455.814c.086-.232.048-.398-.138-.589l.138.589Zm1.549-2.888c-.217-.327-.562-.221-.67.115-.05.156.024.338-.039.506-.052.139-.221.179-.232.347-.034.498.414.252.664.102.285-.187.481-.762.277-1.07Zm.167.375c1.017-.079 1.355-1.236.812-1.971-1.011.5-1.053.967-.812 1.971ZM20.65 8.204c-.631.151-.383 1.031.06 1.24.023-.083.072-.132.148-.147.073.059.06.124-.039.193l.181.346c.008 0 .015-.002.023-.003a.446.446 0 0 1 .709-.478c.022-.453-.592-1.267-1.082-1.15Zm-.279 1.156.497.4c-.071-.217-.262-.35-.497-.4Zm-.737 1.472c.454.418 1.045.672 1.498.038-.401.061-.42-.265-.346-.584a1.84 1.84 0 0 1-1.152.546Zm.747 2.243c-.444-.681-.919-.838-1.706-.989.548.479 1.002.791 1.706.989Zm3.893-7.527.012.016c.189-.13.409-.344.633-.401-.006.256-.557.278-.679.521.13.045.892-.085.883-.097.121.15-.851.149-.879.14-.208.294.676.415.79.431-.019.088-.084.165-.155.07l-.327-.09a.615.615 0 0 0 .027.025c-.161-.113-.315-.219-.418-.301-.115.11.384 1.07.162 1.015-.046-.038-.037-.073.024-.105-.085-.269-.149-.547-.292-.796l-.146.035c-.019.161.151.393.151.475 0 .039-.112.206-.109.135l.027-.102a1.099 1.099 0 0 1-.117-.53h-.041c.106.712-.556 1.945.767 1.629.437-.104.913-.534.607-.942a1.066 1.066 0 0 0-.134-.142.55.55 0 0 0 .253-.008c.497-.117.525-.704.48-1.109-.108-.977-1.112-.405-1.521.128Zm-.869-.864a.141.141 0 0 1 .123-.099c.07.254.124.497.228.767.089-.152.044-.537.049-.695-.072-.098.027-.196.07-.131.064.097-.043.634-.036.78.175.049-.002-.745.152-.732.017.001-.036.72-.037.729l.015.006.192-.388h-.007l.088-.104c-.119-.122.103-.182.133-.131.005.008-.348.652-.34.635l.152.11c.058-.057.302-.422.385-.64-.004.168.013.343-.136.471.192-.167.612-.444.69-.672.093-.272-.235-.792-.507-.947-.325-.187-.767-.057-1.058.149-.393.277-.313.483-.155.895Zm.054.078-.02.014.233.611.02-.006c-.034-.17-.114-.493-.233-.62Zm-1.526.108c-.186.422.129.58.427.795.387.281.368.34.885.029a.036.036 0 0 0-.002-.01c.055-.008.071-.011 0-.004v.004c-.12.017-.424.059-.4.077-.142-.103.25-.11.365-.105l.024.005c.015-.001.003-.003-.024-.005-.141-.028-.788-.159-.785-.17.025-.115.761.132.928.139l-.439-.18c-.066.12-.165-.06-.043-.114.035-.016.577.267.681.28.084-.173-.652-.334-.449-.47-.019.013.442.343.469.36l.04-.051c-.267-.272-.287-.723-.636-.921-.349-.198-.87-.043-1.039.341ZM19.72 6.574c-.271.021-.66.331-.861.493l.009.014.193-.039c-.005-.047.013-.081.055-.099.161-.016-.004.176-.131.188.138.046.529-.017.76-.067a.125.125 0 0 1 .029-.112c.32.262-.804.271-.883.274.095.039 1.137.486.878.504-.058.004-.035-.055-.045-.082l-.697-.311c.088.074.582.334.235.387l-.002-.001c.031-.034-.414-.424-.402-.415.088.159.232.303.402.415a.008.008 0 0 1-.005.002l.006-.001c.234.154.517.247.774.23.288-.019.641-.559.574-.887-.057-.281-.607-.517-.889-.495Zm-4.144 3.685s-.129.097-.027.084c.278-.036.074-.311-.06-.444l-.017.018c.091.098.061.23.103.343Zm.014-.37c.636.125.845-.73.936-1.145-.251-.085-.499-.192-.768-.179-.252.012-.622.267-.865.094-.073.363.282 1.147.697 1.229Zm-.999-1.197.035.023.133-.411.013-.007.109.292c.672-.261.732-.372.814-1.071-.239.046-1.512 1.075-1.137 1.247l.035-.075Zm2.5-1.527c.254.032.505.083.752.155l-.024-.322c-.196.124-.454.163-.728.168a4.64 4.64 0 0 0-.709-.036 4.882 4.882 0 0 0-.417-.02l.027.045c.131-.014.26-.021.39-.025.228.018.474.039.709.036Zm-.874.16c-.084-.002-.463.04-.518.15l.52-.133-.002-.017Zm-1.408 1.589c.092-.184.019-.349-.034-.516l-.018-.003c-.094.29-.163.338.052.518Zm4.017-1.268c.014-.167-.147-.232-.178-.377-.037-.176.063-.345.037-.507-.057-.349-.383-.504-.646-.213-.248.274-.139.872.115 1.099.225.186.631.496.672-.002Zm.617-1.043c-.239.014-.449.118-.551.321l.551-.321Zm-1.345-.208a.447.447 0 0 1 .631.578l.022.006.23-.315c-.087-.083-.091-.149-.01-.197.073.026.114.082.125.168.469-.14.845-.974.243-1.217-.468-.189-1.195.526-1.241.977Zm-.79-1.569c-.646.646-.484 1.84.51 2.069.387-.957.415-1.425-.51-2.069Zm-3.166 3.417c.01-.362-.107-.689.158-1-.607-.148-.892.076-.99.643.272.069.653.109.832.356Zm.213.459c.077-.114.043-.456-.052-.566-.024.051-.305.579-.079.592a.22.22 0 0 0 .116-.109l.014.082Zm.067-.041c.233-.609.674-1.004 1.276-1.248-.161-.314-.805-.462-1.122-.327-.521.221-.412.777-.389 1.229l.007.006.111-.314c.05.213.171.414.117.655Zm.478.474a.7.7 0 0 1-.053.092c.049-.147-.148-.368-.249-.469-.057.166-.299.662.047.599a.393.393 0 0 0 .133-.047c-.093.084-.202.094-.321.077l.007-.011c-.063-.08-.017-.657.022-.766-.177.233-.063.451-.27.692l.186.076c-.114-.022-.235-.061-.362-.08-.199.291-.412.975-.111 1.291.131.138.654.243.847.255 1.177.076.443-1.199.124-1.709Zm1.069 1.238c.024-.08-.33-.434-.37-.456l-.008.014c.122.127.221.27.299.428a.158.158 0 0 0-.126.071c.052.028.181.024.205-.057Zm3.986-2.205a1.847 1.847 0 0 1-1.058-.711c.026.326-.042.645-.429.526.353.694.976.531 1.487.185Zm2.179-1.541c.379 1.245 1.534.792 1.553-.377l-.205.336c.004.002.101.129.016.097l-.118-.055c.166-.208.262-.385.318-.658l-.016-.005c-.081.167-.295.683-.459.752-.077.032-.084-.13-.086-.144l.089.005c.145-.171.46-.508.403-.744-.067.034-.13.073-.188.115a1.59 1.59 0 0 0 .148-.161c-.146-.023-.786.487-.822.427-.066-.109.768-.468.8-.479.021-.103-.779.22-.873.251-.503.164-.724.102-.56.639Zm-4.819 5.914c.3.08.313.062.619-.058-.277-.105-.514-.285-.809-.326l.008-.029c.337.046.631.312.968.316-.055-.055-.112-.116-.171-.177.094.071.188.13.27.171-.081-.433-.675-.814-.429-1.253-.573.108-.441.484-.147.806a.817.817 0 0 0-.34-.15c-.14-.022-.604.037-.638.23-.028.159.485.421.669.47Zm.201.13c-.448-.163-.707-.106-1.069.249.534-.117.715.281 1.069-.249Zm.492 1.02.005-.009c-.411-.453-.036-.821.326-1.147-.294-.08-.757.077-.902.353-.237.452.22.658.571.803Zm2.605-.454c-.627-.521-1.533-.147-1.824.503.303-.142.453-.293.799-.309.413-.019.623-.036 1.025-.194Zm1.265.535.241.102.004-.009-.213-.146.003-.01.103.008c-.595-.31-1.257-.596-1.771-1.037.082.391.41.513.736.647l-.008.019-.146-.029c.397.186.792.371 1.153.625l-.121-.15.016-.022Zm1.398.673c.423-.019.891-.742.872-1.112-.266.134-.594-.172-.841-.222-.264-.053-.526.016-.786.063.029.424.109 1.301.756 1.271Zm-.446.421c.012.083.139.107.195.086a.16.16 0 0 0-.114-.089c.1-.145.219-.271.359-.379l-.006-.015c-.043.016-.446.312-.434.396Zm-.603 3.113-.617-.162c.179.159.401.234.617.162Zm.306-.824c-.046 0-.008.591-.01.576.05-.174.05-.377.01-.576h.005a.018.018 0 0 1-.005-.004c-.056-.275-.191-.541-.385-.71-.217-.19-.848-.058-1.033.221-.158.24.063.794.279.979.207.177.7.233.958.26l.003-.016a23.137 23.137 0 0 0-.164-.109c-.03.037-.066.048-.109.031-.125-.102.127-.122.226-.04-.065-.131-.386-.362-.585-.49a.126.126 0 0 1-.1.059c-.041-.412.76.377.819.431-.04-.095-.461-1.148-.264-.977.044.038-.014.064-.026.089l.273.712c-.01-.115-.175-.648.107-.439v.004Zm.728.835c-.028-.291-.096-.797-.476-.474-.128.109-.06.268-.141.393-.098.151-.289.199-.384.332-.206.287-.086.627.306.607.368-.018.715-.518.696-.858Zm1.167 1.929.012-.051a4.822 4.822 0 0 1-.293-.258c-.149-.174-.307-.363-.476-.526a5 5 0 0 1-.423-.641l-.211.245c.226.051.437.206.634.396.144.186.303.362.476.526.097.114.191.221.281.309Zm1.214-1.157-.461-.274-.011.013c.058.061.356.299.472.26Zm1.663.474-.001-.009-.3.144c.115-.186.172-.414.38-.546-.596.266-1.186.234-1.785-.02-.108.336.242.895.562 1.025.525.212.841-.258 1.144-.594Zm-.838.678c.325.534.684.576 1.155.245-.144-.241-.385-.539-.336-.84-.263.249-.411.563-.818.595Zm-1.3 1.503c.124-.069.238-.082.351-.02a.617.617 0 0 1 .219-.229.483.483 0 0 0-.57.25Zm.019.666c.225-.338.196-.267.314-.645-.454-.151-.449.389-.314.645Zm.872-.753c-.321-.173-.652.045-.539.452.272-.08.597-.086.797.148 0-.299.053-.433-.258-.6Zm-.257.541.135-.057-.028-.005a.117.117 0 0 0-.107.062Zm-5.38-8.578c-.105-.153-.776-.178-.898-.04.302-.022.593-.021.898.04Zm-2.491-1.026a2.348 2.348 0 0 0-.306-.276c.092.101.2.196.306.276Z" data-name="Fill"/><path fill="#559342" d="m26.607 9.594-.105-1.319.131-1.1.337 2.717a1.76 1.76 0 0 0-.362-.298Zm.034.429.01.12.039.079a1.61 1.61 0 0 0-.034-.009l.005.068c.135.08.271.179.384.227l-.013-.107a1.737 1.737 0 0 1-.391-.378Zm1.063 9.398-.044.037c-.103-.139.027-.391.065-.508.16.022.296-.005.345-.174l-.027-.218c-.049-.076-.092-.155-.139-.224l.078.185c-.302.022-.383.236-.64.291l.003.032a.64.64 0 0 0 .039-.016.509.509 0 0 0-.038.026l.004.05a.277.277 0 0 1 .11-.057l-.048.069a.223.223 0 0 1 .159.005c.082.093-.052.187-.199.257l.013.169c.079-.148.231-.237.212-.421l.078.016c-.053.171-.138.392-.03.559a9.88 9.88 0 0 0 .065-.071l-.006-.006Zm-.376-.797-.033-.418c.191-.33.302-.821.132-1.075a.545.545 0 0 0-.234-.203l-.483-6.049c.123-.057.246-.103.368-.113l.768 6.196c-.244.307-.391.872-.465 1.191a.646.646 0 0 1 .105-.029c-.138.066-.157.354-.158.501Zm.127-1.523a1.7 1.7 0 0 1 .091-.514.157.157 0 0 0 .139.039c-.017-.056-.111-.145-.185-.105-.074.04-.073.54-.06.584l.015-.004Zm.073.094c.005-.134.119-.206.169-.316.001 0 .16.023.078-.04-.222-.171-.272.167-.272.357h.025Zm.727 3.072c-.235.119-.361.154-.647-.217a2.163 2.163 0 0 1-.19-.297l.007.088c.065.113.139.221.197.319-.056.04-.111.073-.164.102l.236 2.957c.245.162.505.307.722.507l-.011.021a4.65 4.65 0 0 1-.698-.358l.063.784 1.105 1.105-.621-5.012Zm-.396-1.976.013-.003c-.072-.096-.156-.166-.282-.172a.404.404 0 0 1 .128.061c.29.199-.23.379-.389.456l.003.035.032-.012c.018.049.008.088-.023.12v.017c.148-.096.509-.411.519-.503Z" data-name="Shadow"/><path fill="#fad800" d="M25.652 2.495a.292.292 0 0 0-.407 0l-.497.497a.292.292 0 0 0 0 .407l1.655 1.655.904-.904-1.655-1.655Z" data-name="Fill"/><path fill="#f4bb18" d="m27.505 4.348-.199-.199-.904.904.199.199a.289.289 0 0 0 .407 0l.497-.497a.289.289 0 0 0 0-.407Z" data-name="Shadow"/><path fill="#f49520" d="M27.458 2.9c.226-.226.381-.508.459-.806l-.005-.005a.896.896 0 0 0-1.266 0l-.023.023.812.812.023-.023Z"/><path fill="#e67c25" d="m27.413 2.945.454.454.045-.045a.9.9 0 0 0 .005-1.261c-.077.299-.232.58-.459.807l-.045.045Z" data-name="Shadow"/><path fill="#231f20" d="M29.949 26.489 27.426 6.128c.093-.053.181-.118.26-.198l.497-.497c.33-.33.435-.801.317-1.221l.135-.135a1.923 1.923 0 0 0 0-2.712 1.923 1.923 0 0 0-2.712 0l-.135.135a1.248 1.248 0 0 0-1.221.317l-.497.497a1.26 1.26 0 0 0-.198.26L3.511.051a.458.458 0 0 0-.38.779l.919.919-.693.693a.458.458 0 1 0 .648.648l.693-.693 2.2 2.2-.693.693a.458.458 0 1 0 .648.648l.693-.693.614.614L9.701 7.4l-.693.693a.458.458 0 1 0 .648.648l.693-.693 1.869 1.869.377.377-.693.693a.458.458 0 1 0 .648.648l.693-.693 1.552 1.552-.038.038-9.239 9.239a.962.962 0 0 0-1.09.186l-1.13 1.13a.96.96 0 0 0-.186 1.09L.608 26.681a1.923 1.923 0 0 0 0 2.712 1.923 1.923 0 0 0 2.712 0l2.504-2.504a.962.962 0 0 0 1.09-.186l1.13-1.13a.96.96 0 0 0 .186-1.09l9.239-9.239.038-.038 1.552 1.552-.693.693a.458.458 0 1 0 .648.648l.693-.693.377.377 1.823 1.823-.693.693a.458.458 0 1 0 .648.648l.693-.693 1.586 1.586.569.569-.693.693a.458.458 0 1 0 .648.648l.693-.693 2.245 2.245-.693.693a.458.458 0 1 0 .648.648l.693-.693.919.919a.458.458 0 0 0 .779-.38ZM26.646 2.088a.896.896 0 0 1 1.266 1.266l-.023.023-1.266-1.266.023-.023Zm-1.401.407c.11-.11.297-.11.407 0l.294.294.048.048 1.17 1.17.048.048.095.095.199.199a.289.289 0 0 1 0 .407l-.497.497a.289.289 0 0 1-.407 0l-.199-.199-.708-.708-.041-.041-.906-.906a.292.292 0 0 1 0-.407l.497-.497ZM8.651 5.054l-3.93-3.93 18.103 2.243L8.651 5.054Zm3.993 3.993L9.476 5.879 23.64 4.193 12.644 9.047ZM2.596 28.67a.896.896 0 0 1-1.266-1.266l2.464-2.464 1.266 1.266-2.464 2.464Zm3.644-2.64-.452-.451v-.001l-1.812-1.811v-.003l1.127-1.128.003-.001.497.497 1.266 1.266.05.05.452.452-1.128 1.128-.002.002Zm.04-3.576 9.2-9.2 1.266 1.266-9.2 9.2-1.266-1.266Zm7.058-12.713L24.712 4.72l.567.567-5.021 11.374-6.92-6.92Zm7.615 7.615L25.807 6.36l-1.686 14.165-3.168-3.168Zm3.993 3.993 1.687-14.173 2.243 18.103-3.93-3.93Z"/></svg>
